<?xml version="1.0" encoding="utf-8"?>
<!-- Generator: Adobe Illustrator 19.1.0, SVG Export Plug-In . SVG Version: 6.00 Build 0)  -->
<svg version="1.1" id="Capa_1" xmlns="http://www.w3.org/2000/svg" xmlns:xlink="http://www.w3.org/1999/xlink" x="0px" y="0px"
	 viewBox="0 91 612 612" enable-background="new 0 91 612 612" xml:space="preserve">
<g>
	<g>
		<path fill="#FFFFFF" d="M349.1,493.3c0-30-17.4-44.8-36.5-60.9L297,420.1c-4.8-3.9-11.3-9.1-11.3-18.7c0-9.6,6.5-15.7,12.2-21.3
			c18.2-14.4,36.5-29.6,36.5-61.8c0-33.1-20.9-50.5-30.9-58.7l0,0h27l27.8-15.7h-89.6c-23.5,0-53,3.5-77.9,23.9
			C172.1,284,163,306.2,163,326.2c0,33.9,26.1,68.3,72.2,68.3c4.4,0,9.1-0.4,13.9-0.9c-2.2,5.2-4.3,9.6-4.3,17
			c0,13.5,7,21.8,13,29.6c-19.6,1.3-56.1,3.5-83.1,20c-25.7,15.2-33.5,37.4-33.5,53.1c0,32.2,30.5,62.2,93.5,62.2
			C309.6,575.5,349.1,534.1,349.1,493.3z M255.6,382.3c-37.4,0-54.4-48.3-54.4-77.4c0-11.3,2.2-23,9.6-32.2
			c7-8.7,19.1-14.4,30.5-14.4c36.1,0,54.8,48.7,54.8,80c0,7.8-0.9,21.8-10.9,31.8C278.2,377.1,266.5,382.3,255.6,382.3z
			 M256.1,557.2c-46.5,0-76.6-22.2-76.6-53s27.8-41.3,37.4-44.8c18.3-6.1,41.8-7,45.7-7c4.3,0,6.5,0,10,0.4
			c33.1,23.5,47.4,35.2,47.4,57.4C320,537.2,297.8,557.2,256.1,557.2z"/>
		<polygon fill="#FFFFFF" points="353.1,408.8 400.2,408.8 400.2,455.8 423.7,455.8 423.7,408.8 470.8,408.8 470.8,385.2 
			423.7,385.2 423.7,338.2 400.2,338.2 400.2,385.2 353.1,385.2 		"/>
		<path fill="#FFFFFF" d="M612,397c0-169-137-306-306-306C137,91,0,228,0,397c0,169,137,306,306,306C475,703,612,566,612,397z
			 M27.8,397c0-153.6,124.5-278.2,278.2-278.2S584.2,243.4,584.2,397S459.6,675.2,306,675.2S27.8,550.6,27.8,397z"/>
	</g>
</g>
</svg>
