<svg width="188" height="102" viewBox="0 0 188 102" fill="none" xmlns="http://www.w3.org/2000/svg">
<g clip-path="url(#clip0)">
<path d="M93.998 2.3207L185.777 30.4978V71.1981L93.998 99.43L2.21895 71.1981V30.4978L93.998 2.3207ZM93.998 0L0 28.8581V72.8378L93.998 101.751L187.996 72.8378V28.8581L93.998 0Z" fill="white"/>
<path d="M27.0774 47.0988L23.7823 42.4809H21.2581V47.0988H19.3248V35.6401H21.2581V40.5633H23.4066L26.8426 35.6401H29.2612L25.4103 41.209L29.4921 47.0988H27.0774Z" fill="white"/>
<path d="M37.1351 43.9093H33.6834V47.0949H31.7657V35.6401H37.1311C39.4244 35.6401 41.2677 37.4834 41.2677 39.7767C41.2716 42.0661 39.4284 43.9093 37.1351 43.9093ZM37.1351 37.5538H33.6834V41.9761H37.1351C38.3521 41.9761 39.3383 40.9899 39.3383 39.7728C39.3383 38.5557 38.3521 37.5538 37.1351 37.5538Z" fill="white"/>
<path d="M51.3176 47.0988L50.5662 44.9699H44.2341L43.4828 47.0988H41.4243L45.4708 35.6401H49.3138L53.3604 47.0988H51.3176ZM46.8288 37.5538L44.8916 43.0327H49.8813L47.9441 37.5538H46.8288Z" fill="white"/>
<path d="M60.1346 47.2397C56.8943 47.2397 54.5305 44.6099 54.5305 41.3695C54.5305 38.1291 56.8943 35.4993 60.1346 35.4993C61.6022 35.4993 62.2283 35.691 64.0481 36.2154L63.5198 38.0861C61.8096 37.6126 61.0308 37.4834 60.1346 37.4834C57.9861 37.4834 56.5381 39.221 56.5381 41.3695C56.5381 43.518 57.99 45.236 60.1346 45.236C61.0308 45.236 61.927 45.0912 63.4454 44.7468L63.8485 46.641C62.2205 47.0362 61.6022 47.2397 60.1346 47.2397Z" fill="white"/>
<path d="M75.1194 47.0988V42.3009H68.4273V47.0988H66.4941V35.6401H68.4273V40.3833H75.1194V35.6401H77.0331V47.0988H75.1194Z" fill="white"/>
<path d="M86.3393 47.0988H79.9525V35.6401H81.8858V39.9371H86.3393C88.3078 39.9371 89.9202 41.5495 89.9202 43.518C89.9202 45.4865 88.3117 47.0988 86.3393 47.0988ZM86.3393 41.8508H81.8858V45.1617H86.3393C87.2512 45.1617 88.0065 44.4259 88.0065 43.5141C88.0065 42.6022 87.2551 41.8508 86.3393 41.8508ZM90.9768 47.0988V35.6401H92.9101V47.0988H90.9768Z" fill="white"/>
<path d="M104.51 47.0988V39.6318L95.9391 47.2944V35.6401H97.8176V42.8017L106.388 35.2839V47.0988H104.51ZM99.6491 38.2504V35.6361H103.156L99.6491 38.2504Z" fill="white"/>
<path d="M55.9942 60.4869C55.9942 63.9855 53.3252 66.3375 50.03 66.3375C46.7349 66.3375 44.0659 63.9855 44.0659 60.4869C44.0659 56.8865 46.7349 54.6362 50.03 54.6362C53.3252 54.6362 55.9942 56.8904 55.9942 60.4869ZM50.03 56.6125C47.8502 56.6125 46.0813 57.9783 46.0813 60.4869C46.0813 62.8937 47.8502 64.3612 50.03 64.3612C52.2098 64.3612 53.9787 62.8937 53.9787 60.4869C53.9787 57.9783 52.2098 56.6125 50.03 56.6125Z" fill="white"/>
<path d="M101.124 66.2123L100.373 64.0834H94.0489L93.2975 66.2123H91.2429L95.2816 54.7732H99.1208L103.159 66.2123H101.124ZM96.6475 56.6869L94.7142 62.1579H99.6961L97.7628 56.6869H96.6475Z" fill="white"/>
<path d="M138.717 66.2122V58.757L130.159 66.4079V54.7731H132.037V61.9231L140.596 54.417V66.2162H138.717V66.2122ZM133.861 57.3795V54.7731H137.363L133.861 57.3795Z" fill="white"/>
<path d="M27.9384 66.2123V56.6869H21.2581V66.2123H19.3287V54.7732H29.8521V66.2123H27.9384Z" fill="white"/>
<path d="M38.2113 63.0306H34.7674V66.2123H32.8537V54.7732H38.2113C40.5007 54.7732 42.34 56.6125 42.34 58.9019C42.34 61.1913 40.5007 63.0306 38.2113 63.0306ZM38.2113 56.6869H34.7674V61.1013H38.2113C39.4284 61.1013 40.4106 60.119 40.4106 58.9019C40.4106 57.6848 39.4284 56.6869 38.2113 56.6869Z" fill="white"/>
<path d="M56.7534 65.0226C58.8745 63.3046 59.0859 59.3715 59.0859 56.683V54.7693H68.0908V66.2084H66.1614V56.683H61.0191V57.1291C61.0191 59.2972 60.9722 63.8368 58.1153 66.4236L56.7534 65.0226Z" fill="white"/>
<path d="M70.9868 66.2123V54.7732H79.5064V56.6869H72.9161V59.5476H78.078V61.4261H72.9161V64.2869H79.5064V66.2162H70.9868V66.2123Z" fill="white"/>
<path d="M87.6934 56.6869V66.2123H85.7797V56.6869H81.7097V54.7732H91.6735V56.6869H87.6934Z" fill="white"/>
<path d="M110.329 63.0306H106.885V66.2123H104.971V54.7732H110.329C112.618 54.7732 114.458 56.6125 114.458 58.9019C114.458 61.1913 112.614 63.0306 110.329 63.0306ZM110.329 56.6869H106.885V61.1013H110.329C111.546 61.1013 112.528 60.119 112.528 58.9019C112.528 57.6848 111.542 56.6869 110.329 56.6869Z" fill="white"/>
<path d="M125.2 66.2122V58.4518L116.641 66.4118V54.777H118.52V62.1422L127.079 54.4209V66.2201H125.2V66.2122Z" fill="white"/>
</g>
<defs>
<clipPath id="clip0">
<rect width="188" height="101.751" fill="white"/>
</clipPath>
</defs>
</svg>
