<svg width="188" height="103" viewBox="0 0 188 103" fill="none" xmlns="http://www.w3.org/2000/svg">
<path d="M99.8065 46.1613H100.774V56.8065C100.774 59.4745 102.945 61.6452 105.613 61.6452H115.29C117.958 61.6452 120.129 59.4745 120.129 56.8065V46.1613H121.097C122.698 46.1613 124 44.8587 124 43.2581C124 41.6574 122.698 40.3548 121.097 40.3548H120.129V36.3184C120.129 34.2948 119.341 32.3923 117.91 30.961C116.479 29.5297 114.577 28.7419 112.553 28.7419H108.35C106.326 28.7419 104.424 29.5297 102.992 30.961C101.561 32.3923 100.774 34.2939 100.774 36.3184V40.3548H99.8065C98.2059 40.3548 96.9033 41.6574 96.9033 43.2581C96.9033 44.8587 98.2059 46.1613 99.8065 46.1613ZM102.773 35.5161H104.645C106.78 35.5161 108.516 33.78 108.516 31.6452V30.6774H112.387V31.6452C112.387 33.78 114.123 35.5161 116.258 35.5161H118.131C118.168 35.7803 118.194 36.0465 118.194 36.3184V42.1829C116.42 40.9936 114.335 40.3548 112.152 40.3548H108.75C106.567 40.3548 104.483 40.9936 102.709 42.1829V36.3184C102.71 36.0465 102.735 35.7803 102.773 35.5161ZM102.71 44.6526C104.364 43.1323 106.491 42.2903 108.751 42.2903H112.153C114.414 42.2903 116.541 43.1323 118.195 44.6526V52.5077C116.54 54.029 114.413 54.871 112.152 54.871H108.75C106.49 54.871 104.363 54.029 102.709 52.5087V44.6526H102.71ZM115.29 59.7097H105.613C104.012 59.7097 102.71 58.4071 102.71 56.8065V54.9784C104.484 56.1668 106.568 56.8065 108.751 56.8065H112.153C114.336 56.8065 116.421 56.1668 118.195 54.9784V56.8065C118.194 58.4071 116.891 59.7097 115.29 59.7097ZM121.097 42.2903C121.63 42.2903 122.065 42.7248 122.065 43.2581C122.065 43.7913 121.63 44.2258 121.097 44.2258H120.129V42.2903H121.097ZM117.483 33.5807H116.258C115.191 33.5807 114.323 32.7126 114.323 31.6452V30.9648C115.149 31.2368 115.908 31.6965 116.542 32.3294C116.918 32.7058 117.231 33.1277 117.483 33.5807ZM106.581 30.9648V31.6452C106.581 32.7126 105.713 33.5807 104.645 33.5807H103.42C103.673 33.1277 103.985 32.7058 104.362 32.3294C104.996 31.6965 105.754 31.2368 106.581 30.9648ZM99.8065 42.2903H100.774V44.2258H99.8065C99.2733 44.2258 98.8388 43.7913 98.8388 43.2581C98.8388 42.7248 99.2733 42.2903 99.8065 42.2903Z" fill="white"/>
<path d="M66.9032 46.1613H67.871V56.8065C67.871 59.4745 70.0416 61.6452 72.7097 61.6452H82.3871C85.0552 61.6452 87.2258 59.4745 87.2258 56.8065V46.1613H88.1936C89.7942 46.1613 91.0968 44.8587 91.0968 43.2581C91.0968 41.6574 89.7942 40.3548 88.1936 40.3548H87.2258V36.3184C87.2258 34.2948 86.4381 32.3923 85.0068 30.961C83.5755 29.5297 81.6739 28.7419 79.6494 28.7419H75.4465C73.4229 28.7419 71.5203 29.5297 70.089 30.961C68.6577 32.3923 67.871 34.2939 67.871 36.3184V40.3548H66.9032C65.3026 40.3548 64 41.6574 64 43.2581C64 44.8587 65.3026 46.1613 66.9032 46.1613ZM69.8694 35.5161H71.7419C73.8768 35.5161 75.6129 33.78 75.6129 31.6452V30.6774H79.4839V31.6452C79.4839 33.78 81.22 35.5161 83.3548 35.5161H85.2274C85.2652 35.7803 85.2903 36.0465 85.2903 36.3184V42.1829C83.5165 40.9936 81.4319 40.3548 79.2487 40.3548H75.8471C73.6639 40.3548 71.5794 40.9936 69.8055 42.1829V36.3184C69.8065 36.0465 69.8316 35.7803 69.8694 35.5161ZM69.8065 44.6526C71.4603 43.1323 73.5874 42.2903 75.8481 42.2903H79.2497C81.5103 42.2903 83.6374 43.1323 85.2913 44.6526V52.5077C83.6365 54.029 81.5094 54.871 79.2487 54.871H75.8471C73.5874 54.871 71.4603 54.029 69.8065 52.5087V44.6526ZM82.3871 59.7097H72.7097C71.109 59.7097 69.8065 58.4071 69.8065 56.8065V54.9784C71.5803 56.1668 73.6648 56.8065 75.8481 56.8065H79.2497C81.4329 56.8065 83.5174 56.1668 85.2913 54.9784V56.8065C85.2903 58.4071 83.9877 59.7097 82.3871 59.7097ZM88.1936 42.2903C88.7268 42.2903 89.1613 42.7248 89.1613 43.2581C89.1613 43.7913 88.7268 44.2258 88.1936 44.2258H87.2258V42.2903H88.1936ZM84.58 33.5807H83.3548C82.2874 33.5807 81.4194 32.7126 81.4194 31.6452V30.9648C82.2458 31.2368 83.0045 31.6965 83.6384 32.3294C84.0148 32.7058 84.3274 33.1277 84.58 33.5807ZM73.6774 30.9648V31.6452C73.6774 32.7126 72.8094 33.5807 71.7419 33.5807H70.5168C70.7694 33.1277 71.0819 32.7058 71.4584 32.3294C72.0923 31.6965 72.851 31.2368 73.6774 30.9648ZM66.9032 42.2903H67.871V44.2258H66.9032C66.37 44.2258 65.9355 43.7913 65.9355 43.2581C65.9355 42.7248 66.37 42.2903 66.9032 42.2903Z" fill="white"/>
<path d="M66.9033 26.8065H88.1936C88.7278 26.8065 89.1614 26.3729 89.1614 25.8387V21.9677C89.1614 21.4335 88.7278 21 88.1936 21H66.9033C66.3691 21 65.9355 21.4335 65.9355 21.9677V25.8387C65.9355 26.3729 66.3691 26.8065 66.9033 26.8065ZM67.871 22.9355H87.2259V24.871H67.871V22.9355Z" fill="white"/>
<path d="M99.8066 26.8065H121.097C121.631 26.8065 122.065 26.3729 122.065 25.8387V21.9677C122.065 21.4335 121.631 21 121.097 21H99.8066C99.2724 21 98.8389 21.4335 98.8389 21.9677V25.8387C98.8389 26.3729 99.2724 26.8065 99.8066 26.8065ZM100.774 22.9355H120.129V24.871H100.774V22.9355Z" fill="white"/>
<path d="M64 79.0645H124V81H64V79.0645Z" fill="white"/>
<path d="M68.8389 71.3226H72.7098V73.2581H68.8389V71.3226Z" fill="white"/>
<path d="M76.5811 71.3226H80.452V73.2581H76.5811V71.3226Z" fill="white"/>
<path d="M84.3223 71.3226H88.1932V73.2581H84.3223V71.3226Z" fill="white"/>
<path d="M92.0645 71.3226H95.9354V73.2581H92.0645V71.3226Z" fill="white"/>
<path d="M99.8066 71.3226H103.678V73.2581H99.8066V71.3226Z" fill="white"/>
<path d="M107.549 71.3226H111.42V73.2581H107.549V71.3226Z" fill="white"/>
<path d="M115.29 71.3226H119.161V73.2581H115.29V71.3226Z" fill="white"/>
<path d="M94.9677 21H93.0323V63.5806H64V65.5161H124V63.5806H94.9677V21Z" fill="white"/>
<path d="M0.5 72.7248V29.3286L93.998 0.523191L187.5 29.3286V72.7248L93.998 101.585L0.5 72.7248Z" stroke="white"/>
</svg>
