<svg width="60" height="60" viewBox="0 0 60 60" fill="none" xmlns="http://www.w3.org/2000/svg">
<path d="M35.8064 25.1613H36.7742V35.8065C36.7742 38.4745 38.9448 40.6452 41.6129 40.6452H51.2903C53.9584 40.6452 56.129 38.4745 56.129 35.8065V25.1613H57.0968C58.6974 25.1613 60 23.8587 60 22.2581C60 20.6574 58.6974 19.3548 57.0968 19.3548H56.129V15.3184C56.129 13.2948 55.3413 11.3923 53.91 9.96098C52.4787 8.52969 50.5771 7.74194 48.5526 7.74194H44.3497C42.3261 7.74194 40.4235 8.52969 38.9922 9.96098C37.561 11.3923 36.7742 13.2939 36.7742 15.3184V19.3548H35.8064C34.2058 19.3548 32.9032 20.6574 32.9032 22.2581C32.9032 23.8587 34.2058 25.1613 35.8064 25.1613ZM38.7726 14.5161H40.6451C42.78 14.5161 44.5161 12.78 44.5161 10.6452V9.67743H48.3871V10.6452C48.3871 12.78 50.1232 14.5161 52.2581 14.5161H54.1306C54.1684 14.7803 54.1935 15.0465 54.1935 15.3184V21.1829C52.4197 19.9936 50.3351 19.3548 48.1519 19.3548H44.7503C42.5671 19.3548 40.4826 19.9936 38.7087 21.1829V15.3184C38.7097 15.0465 38.7348 14.7803 38.7726 14.5161ZM38.7097 23.6526C40.3635 22.1323 42.4906 21.2903 44.7513 21.2903H48.1529C50.4135 21.2903 52.5406 22.1323 54.1945 23.6526V31.5077C52.5397 33.029 50.4126 33.871 48.1519 33.871H44.7503C42.4897 33.871 40.3626 33.029 38.7087 31.5087V23.6526H38.7097ZM51.2903 38.7097H41.6129C40.0122 38.7097 38.7097 37.4071 38.7097 35.8065V33.9784C40.4835 35.1668 42.5681 35.8065 44.7513 35.8065H48.1529C50.3361 35.8065 52.4206 35.1668 54.1945 33.9784V35.8065C54.1935 37.4071 52.891 38.7097 51.2903 38.7097ZM57.0968 21.2903C57.63 21.2903 58.0645 21.7248 58.0645 22.2581C58.0645 22.7913 57.63 23.2258 57.0968 23.2258H56.129V21.2903H57.0968ZM53.4832 12.5807H52.2581C51.1906 12.5807 50.3226 11.7126 50.3226 10.6452V9.96485C51.149 10.2368 51.9077 10.6965 52.5416 11.3294C52.9181 11.7058 53.2306 12.1277 53.4832 12.5807ZM42.5806 9.96485V10.6452C42.5806 11.7126 41.7126 12.5807 40.6451 12.5807H39.42C39.6726 12.1277 39.9851 11.7058 40.3616 11.3294C40.9955 10.6965 41.7542 10.2368 42.5806 9.96485ZM35.8064 21.2903H36.7742V23.2258H35.8064C35.2732 23.2258 34.8387 22.7913 34.8387 22.2581C34.8387 21.7248 35.2732 21.2903 35.8064 21.2903Z" fill="#F24538"/>
<path d="M2.90323 25.1613H3.87097V35.8065C3.87097 38.4745 6.04161 40.6452 8.70968 40.6452H18.3871C21.0552 40.6452 23.2258 38.4745 23.2258 35.8065V25.1613H24.1936C25.7942 25.1613 27.0968 23.8587 27.0968 22.2581C27.0968 20.6574 25.7942 19.3548 24.1936 19.3548H23.2258V15.3184C23.2258 13.2948 22.4381 11.3923 21.0068 9.96098C19.5755 8.52969 17.6739 7.74194 15.6494 7.74194H11.4465C9.4229 7.74194 7.52032 8.52969 6.08903 9.96098C4.65774 11.3923 3.87097 13.2939 3.87097 15.3184V19.3548H2.90323C1.30258 19.3548 0 20.6574 0 22.2581C0 23.8587 1.30258 25.1613 2.90323 25.1613ZM5.86936 14.5161H7.74194C9.87677 14.5161 11.6129 12.78 11.6129 10.6452V9.67743H15.4839V10.6452C15.4839 12.78 17.22 14.5161 19.3548 14.5161H21.2274C21.2652 14.7803 21.2903 15.0465 21.2903 15.3184V21.1829C19.5165 19.9936 17.4319 19.3548 15.2487 19.3548H11.8471C9.66387 19.3548 7.57936 19.9936 5.80548 21.1829V15.3184C5.80645 15.0465 5.83161 14.7803 5.86936 14.5161ZM5.80645 23.6526C7.46032 22.1323 9.58742 21.2903 11.8481 21.2903H15.2497C17.5103 21.2903 19.6374 22.1323 21.2913 23.6526V31.5077C19.6365 33.029 17.5094 33.871 15.2487 33.871H11.8471C9.58742 33.871 7.46032 33.029 5.80645 31.5087V23.6526ZM18.3871 38.7097H8.70968C7.10903 38.7097 5.80645 37.4071 5.80645 35.8065V33.9784C7.58032 35.1668 9.66484 35.8065 11.8481 35.8065H15.2497C17.4329 35.8065 19.5174 35.1668 21.2913 33.9784V35.8065C21.2903 37.4071 19.9877 38.7097 18.3871 38.7097ZM24.1936 21.2903C24.7268 21.2903 25.1613 21.7248 25.1613 22.2581C25.1613 22.7913 24.7268 23.2258 24.1936 23.2258H23.2258V21.2903H24.1936ZM20.58 12.5807H19.3548C18.2874 12.5807 17.4194 11.7126 17.4194 10.6452V9.96485C18.2458 10.2368 19.0045 10.6965 19.6384 11.3294C20.0148 11.7058 20.3274 12.1277 20.58 12.5807ZM9.67742 9.96485V10.6452C9.67742 11.7126 8.80935 12.5807 7.74194 12.5807H6.51677C6.76936 12.1277 7.08194 11.7058 7.45839 11.3294C8.09226 10.6965 8.85097 10.2368 9.67742 9.96485ZM2.90323 21.2903H3.87097V23.2258H2.90323C2.37 23.2258 1.93548 22.7913 1.93548 22.2581C1.93548 21.7248 2.37 21.2903 2.90323 21.2903Z" fill="#F24538"/>
<path d="M2.90321 5.80645H24.1935C24.7277 5.80645 25.1613 5.3729 25.1613 4.83871V0.967742C25.1613 0.433548 24.7277 0 24.1935 0H2.90321C2.36902 0 1.93547 0.433548 1.93547 0.967742V4.83871C1.93547 5.3729 2.36902 5.80645 2.90321 5.80645ZM3.87095 1.93548H23.2258V3.87097H3.87095V1.93548Z" fill="#F24538"/>
<path d="M35.8064 5.80645H57.0967C57.6309 5.80645 58.0645 5.3729 58.0645 4.83871V0.967742C58.0645 0.433548 57.6309 0 57.0967 0H35.8064C35.2722 0 34.8387 0.433548 34.8387 0.967742V4.83871C34.8387 5.3729 35.2722 5.80645 35.8064 5.80645ZM36.7742 1.93548H56.129V3.87097H36.7742V1.93548Z" fill="#F24538"/>
<path d="M0 58.0645H60V60H0V58.0645Z" fill="#F24538"/>
<path d="M4.8387 50.3226H8.70967V52.2581H4.8387V50.3226Z" fill="#F24538"/>
<path d="M12.5806 50.3226H16.4516V52.2581H12.5806V50.3226Z" fill="#F24538"/>
<path d="M20.3226 50.3226H24.1936V52.2581H20.3226V50.3226Z" fill="#F24538"/>
<path d="M28.0645 50.3226H31.9355V52.2581H28.0645V50.3226Z" fill="#F24538"/>
<path d="M35.8064 50.3226H39.6774V52.2581H35.8064V50.3226Z" fill="#F24538"/>
<path d="M43.5483 50.3226H47.4193V52.2581H43.5483V50.3226Z" fill="#F24538"/>
<path d="M51.2903 50.3226H55.1613V52.2581H51.2903V50.3226Z" fill="#F24538"/>
<path d="M30.9677 0H29.0323V42.5806H0V44.5161H60V42.5806H30.9677V0Z" fill="#F24538"/>
</svg>
