<?xml version="1.0" encoding="utf-8"?>
<!-- Generator: Adobe Illustrator 19.1.0, SVG Export Plug-In . SVG Version: 6.00 Build 0)  -->
<svg version="1.1" id="Capa_1" xmlns="http://www.w3.org/2000/svg" xmlns:xlink="http://www.w3.org/1999/xlink" x="0px" y="0px"
	 viewBox="-256 378.9 99 35.2" enable-background="new -256 378.9 99 35.2" xml:space="preserve">
<g>
	<g>
		<path fill="#FFFFFF" d="M-238.7,399.2c-4.1,0-7.5,3.3-7.5,7.5c0,0.3,0,0.6,0.1,0.9c0.5,3.7,3.6,6.5,7.4,6.5c3.9,0,7.1-3,7.4-6.8
			c0-0.2,0-0.4,0-0.6C-231.3,402.5-234.6,399.2-238.7,399.2z M-242.5,403.8l1.5,1.5c-0.1,0.2-0.2,0.4-0.3,0.7h-2.1
			C-243.2,405.2-242.9,404.5-242.5,403.8z M-243.4,407.3h2.2c0.1,0.2,0.2,0.4,0.3,0.6l-1.5,1.5
			C-242.9,408.9-243.3,408.1-243.4,407.3z M-239.4,411.3c-0.8-0.1-1.5-0.4-2.2-0.9l1.5-1.5c0.2,0.1,0.4,0.2,0.6,0.3V411.3z
			 M-239.4,404.2c-0.2,0.1-0.5,0.2-0.7,0.3l-1.5-1.5c0.6-0.5,1.4-0.8,2.2-0.9V404.2z M-238.1,402c0.8,0.1,1.6,0.4,2.2,0.9l-1.5,1.5
			c-0.2-0.1-0.4-0.2-0.7-0.3L-238.1,402L-238.1,402z M-238.1,411.3v-2.2c0.2-0.1,0.4-0.1,0.6-0.3l1.5,1.5
			C-236.5,410.9-237.3,411.2-238.1,411.3z M-235,409.5l-1.5-1.5c0.1-0.2,0.2-0.4,0.3-0.6h2.1C-234.2,408.1-234.5,408.9-235,409.5z
			 M-236.2,406c-0.1-0.2-0.2-0.5-0.3-0.7l1.5-1.5c0.5,0.6,0.8,1.4,0.9,2.2L-236.2,406L-236.2,406z"/>
		<path fill="#FFFFFF" d="M-176.7,399.2c-4.1,0-7.5,3.3-7.5,7.5c0,0.3,0,0.6,0.1,0.9c0.5,3.7,3.6,6.5,7.4,6.5c3.9,0,7.1-3,7.4-6.8
			c0-0.2,0-0.4,0-0.6C-169.2,402.5-172.6,399.2-176.7,399.2z M-180.5,403.8l1.5,1.5c-0.1,0.2-0.2,0.4-0.3,0.7h-2.1
			C-181.2,405.2-180.9,404.5-180.5,403.8z M-181.4,407.3h2.2c0.1,0.2,0.2,0.4,0.3,0.6l-1.5,1.5
			C-180.9,408.9-181.2,408.1-181.4,407.3z M-177.4,411.3c-0.8-0.1-1.5-0.4-2.2-0.9l1.5-1.5c0.2,0.1,0.4,0.2,0.6,0.3V411.3z
			 M-177.4,404.2c-0.2,0.1-0.5,0.2-0.7,0.3l-1.5-1.5c0.6-0.5,1.4-0.8,2.2-0.9C-177.4,402-177.4,404.2-177.4,404.2z M-176.1,402
			c0.8,0.1,1.6,0.4,2.2,0.9l-1.5,1.5c-0.2-0.1-0.4-0.2-0.7-0.3C-176.1,404.2-176.1,402-176.1,402z M-176.1,411.3v-2.2
			c0.2-0.1,0.4-0.1,0.6-0.3l1.5,1.5C-174.5,410.9-175.3,411.2-176.1,411.3z M-173,409.5l-1.5-1.5c0.1-0.2,0.2-0.4,0.3-0.6h2.1
			C-172.2,408.1-172.5,408.9-173,409.5z M-174.2,406c-0.1-0.2-0.2-0.5-0.3-0.7l1.5-1.5c0.5,0.6,0.8,1.4,0.9,2.2L-174.2,406
			L-174.2,406z"/>
		<path fill="#FFFFFF" d="M-158.8,395.3v-5.5c0-0.9-0.6-1.6-1.5-1.8c-2.1-0.3-5.8-1-7.5-1.5c-2.4-0.7-11.7-4.7-14.9-5.4
			c-3.2-0.7-17.7-4.7-31.6,0.1c-2.4,0.8-12.9,5.9-19.2,8.5c-1.8,0-20,3.8-20.9,6.4c-1,2.6-1.3,3.9-1.4,4.5c-0.2,0.7,0,3.8,1.3,6
			c1.4,0.8,4,1.3,7.1,1.6c0-0.2-0.1-0.4-0.1-0.6c-0.1-0.4-0.1-0.8-0.1-1.1c0-4.9,4-9,9-9s9,4,9,9c0,0.3,0,0.5,0,0.8
			c0,0.6-0.1,1.1-0.3,1.6c0,0,0,0,0,0l44.5-0.9c0-0.1,0-0.2-0.1-0.3c-0.1-0.4-0.1-0.8-0.1-1.1c0-4.9,4-9,9-9s9,4,9,9c0,0,0,0,0,0.1
			l0.2,0l7.6-1.4c0,0,2.9-1.6,2.9-5.8C-157,396.6-158.8,395.3-158.8,395.3z M-202.9,390.1l-16.6,0.5c0.3-2.5-1.2-3-1.2-3
			c6.6-6,19.9-6.2,19.9-6.2L-202.9,390.1z M-184.3,389.3l-15.1,0.5l1.4-8.5c7.8-0.1,12.3,1.6,12.3,1.6l2.2,3.6L-184.3,389.3z
			 M-175.7,389.3h-4.2l-4.2-5.8c3.2,1.3,5.7,2.5,7.2,3.3C-176.1,387.2-175.6,388.3-175.7,389.3z"/>
	</g>
</g>
</svg>
