<svg width="20" height="22" viewBox="0 0 20 22" fill="none" xmlns="http://www.w3.org/2000/svg">
<path d="M19.3182 3.63626C19.3182 5.26806 17.9955 6.59092 16.3637 6.59092C14.7319 6.59092 13.4092 5.26806 13.4092 3.63626C13.4092 2.00462 14.7319 0.681763 16.3637 0.681763C17.9955 0.681763 19.3182 2.00462 19.3182 3.63626Z" fill="#F24538"/>
<path d="M16.3637 7.27279C14.3582 7.27279 12.7274 5.64182 12.7274 3.63631C12.7274 1.63097 14.3582 0 16.3637 0C18.3692 0 20 1.63097 20 3.63631C20 5.64182 18.3692 7.27279 16.3637 7.27279ZM16.3637 1.36364C15.1101 1.36364 14.091 2.3837 14.091 3.63631C14.091 4.88909 15.1101 5.90915 16.3637 5.90915C17.6173 5.90915 18.6363 4.88909 18.6363 3.63631C18.6363 2.3837 17.6173 1.36364 16.3637 1.36364Z" fill="#F24538"/>
<path d="M19.3182 18.182C19.3182 19.8136 17.9955 21.1364 16.3637 21.1364C14.7319 21.1364 13.4092 19.8136 13.4092 18.182C13.4092 16.5502 14.7319 15.2273 16.3637 15.2273C17.9955 15.2273 19.3182 16.5502 19.3182 18.182Z" fill="#F24538"/>
<path d="M16.3637 21.8182C14.3582 21.8182 12.7274 20.1872 12.7274 18.1819C12.7274 16.1764 14.3582 14.5454 16.3637 14.5454C18.3692 14.5454 20 16.1764 20 18.1819C20 20.1872 18.3692 21.8182 16.3637 21.8182ZM16.3637 15.909C15.1101 15.909 14.091 16.9291 14.091 18.1819C14.091 19.4345 15.1101 20.4546 16.3637 20.4546C17.6173 20.4546 18.6363 19.4345 18.6363 18.1819C18.6363 16.9291 17.6173 15.909 16.3637 15.909Z" fill="#F24538"/>
<path d="M6.59098 10.9091C6.59098 12.5409 5.26812 13.8636 3.63632 13.8636C2.00468 13.8636 0.681824 12.5409 0.681824 10.9091C0.681824 9.27728 2.00468 7.95459 3.63632 7.95459C5.26812 7.95459 6.59098 9.27728 6.59098 10.9091Z" fill="#F24538"/>
<path d="M3.63631 14.5455C1.63097 14.5455 0 12.9146 0 10.9091C0 8.90363 1.63097 7.27283 3.63631 7.27283C5.64182 7.27283 7.27279 8.90363 7.27279 10.9091C7.27279 12.9146 5.64182 14.5455 3.63631 14.5455ZM3.63631 8.63647C2.3827 8.63647 1.36364 9.65636 1.36364 10.9091C1.36364 12.1619 2.3827 13.1818 3.63631 13.1818C4.89009 13.1818 5.90915 12.1619 5.90915 10.9091C5.90915 9.65636 4.89009 8.63647 3.63631 8.63647Z" fill="#F24538"/>
<path d="M5.7828 10.4728C5.46636 10.4728 5.15908 10.3082 4.99178 10.0137C4.74359 9.57824 4.8964 9.02276 5.33186 8.77357L13.7672 3.96455C14.2027 3.71453 14.7581 3.86734 15.0073 4.30446C15.2555 4.73992 15.1027 5.2954 14.6673 5.54459L6.23174 10.3536C6.08992 10.4345 5.93544 10.4728 5.7828 10.4728Z" fill="#F24538"/>
<path d="M14.2173 17.9729C14.0645 17.9729 13.91 17.9346 13.7682 17.8537L5.33271 13.0447C4.89725 12.7965 4.74461 12.241 4.9928 11.8045C5.24 11.3682 5.7963 11.2146 6.23276 11.4646L14.6683 16.2736C15.1037 16.5218 15.2564 17.0773 15.0082 17.5138C14.8401 17.8082 14.5328 17.9729 14.2173 17.9729Z" fill="#F24538"/>
</svg>
