<svg width="96" height="28" viewBox="0 0 96 28" fill="none" xmlns="http://www.w3.org/2000/svg">
<path d="M31.7339 14.213L32.9505 10.7976L34.3065 7.48987H35.9414V7.73066L32.0063 16.9631H31.379L27.4059 7.73066V7.48987H29.0788L30.4032 10.7279L31.6895 14.213H31.7339Z" fill="white"/>
<path d="M41.2452 15.6452V16.8998H36.7145V15.6452H38.2099V8.78261H36.8539V7.52795H41.1374V8.78261H39.7814V15.6452H41.2452Z" fill="white"/>
<path d="M43.8938 14.2131C43.9635 15.2586 45.1105 15.6769 46.1243 15.6769C47.1002 15.6769 48.2851 15.398 48.2851 14.2131C48.2851 12.9965 46.9988 12.8571 45.9152 12.7493C44.2106 12.6099 42.4998 12.0523 42.4998 10.1703C42.4998 8.25666 44.2043 7.3125 46.0166 7.3125C47.7909 7.3125 49.5017 8.11092 49.5334 10.0309H48.0697C48 9.02339 46.9544 8.70656 46.0166 8.70656C45.1485 8.70656 44.0332 9.05507 44.0332 10.1006C44.0332 11.1462 45.0788 11.2856 46.194 11.425C48.1077 11.6341 49.8503 12.0143 49.8503 14.1751C49.8503 16.2281 47.8986 17.0329 46.156 17.0329C44.312 17.0646 42.392 16.1648 42.3604 14.1751H43.8938V14.2131Z" fill="white"/>
<path d="M51.2761 16.2345C51.2761 15.7149 51.6943 15.3981 52.1822 15.3981C52.6701 15.3981 53.0883 15.7086 53.0883 16.2345C53.0883 16.7224 52.6701 17.0709 52.1822 17.0709C51.6943 17.0709 51.2761 16.7224 51.2761 16.2345Z" fill="white"/>
<path d="M59.634 12.5782C59.3552 11.8812 58.6582 11.5327 57.9295 11.5327C56.9536 11.5327 55.9081 12.2614 55.9081 13.6238C55.9081 15.0178 56.9156 15.7149 57.8915 15.7149C58.6202 15.7149 59.3552 15.3347 59.634 14.5299H61.0281C60.6796 16.1648 59.2855 16.9695 57.8598 16.9695C56.1869 16.9695 54.4443 15.8543 54.4443 13.6238C54.4443 11.3933 56.1489 10.2463 57.8218 10.2463C59.2158 10.2463 60.6099 11.0131 60.9584 12.5782H59.634Z" fill="white"/>
<path d="M68.2392 13.9342H63.4677C63.4677 15.1191 64.4055 15.8162 65.5588 15.8162C66.3572 15.8479 67.1239 15.7465 67.8907 15.398L68.0618 16.4752C67.295 16.8237 66.4269 17.0328 65.6221 17.0328C63.4994 17.0645 61.9279 15.7085 61.9976 13.516C62.0356 11.3552 63.6008 10.278 65.3433 10.278C67.6499 10.278 68.6574 11.8114 68.2392 13.9342ZM63.5057 12.8886H67.0606C67.0986 11.9128 66.2938 11.3932 65.3877 11.3932C64.4119 11.4249 63.7148 11.8811 63.5057 12.8886Z" fill="white"/>
<path d="M74.6519 16.8998V13.1042C74.6519 12.0966 74.0245 11.4693 73.1564 11.4693C72.2503 11.4693 71.5216 12.1663 71.5216 13.2119V16.8681H70.0578V12.3058C70.0578 11.539 70.0198 11.3299 69.3608 11.3679V10.4301C70.2986 10.259 71.3822 10.1893 71.3822 11.4376C71.7307 10.6392 72.7382 10.3224 73.5746 10.3224C75.3172 10.3224 76.1156 11.539 76.1156 13.1105V16.9062H74.6519V16.8998Z" fill="white"/>
<path d="M79.943 10.4492H82.1735V11.4947H79.943V14.3842C79.943 16.0191 80.9885 16.1268 82.3129 15.6706L82.4523 16.7858C80.2598 17.4829 78.5172 16.9569 78.5172 14.4159V11.4884L77.1929 11.387V10.4492H78.5172L78.6566 8.46582H79.943V10.4492Z" fill="white"/>
<path d="M89.4543 13.9342H84.6828C84.6828 15.1191 85.6206 15.8162 86.7739 15.8162C87.5723 15.8479 88.339 15.7465 89.1057 15.398L89.2768 16.4752C88.5101 16.8237 87.642 17.0328 86.8372 17.0328C84.7145 17.0645 83.143 15.7085 83.2127 13.516C83.2507 11.3552 84.8158 10.278 86.5584 10.278C88.865 10.278 89.8725 11.8114 89.4543 13.9342ZM84.6828 12.8886H88.2376C88.2757 11.9128 87.4709 11.3932 86.5648 11.3932C85.6206 11.4249 84.8919 11.8811 84.6828 12.8886Z" fill="white"/>
<path d="M94.5046 10.24C95.0242 10.24 95.5818 10.3794 96 10.6899L95.6515 11.9445C95.2713 11.7038 94.8531 11.5643 94.3652 11.5643C93.497 11.5643 92.7303 12.122 92.7303 13.1675V16.8935H91.2349V12.1917C91.2349 11.6024 91.2349 11.3236 90.5378 11.3552V10.3794C91.4757 10.1703 92.5212 10.3097 92.5909 11.3552C92.8697 10.6265 93.7062 10.24 94.5046 10.24Z" fill="white"/>
<path d="M19.3331 10.5569C22.2353 10.5569 24.5925 8.19967 24.5925 5.29749C24.5925 2.38898 22.2353 0.0380859 19.3331 0.0380859C16.4309 0.0380859 14.0737 2.39531 14.0737 5.29749C14.0737 8.19967 16.4309 10.5569 19.3331 10.5569Z" fill="white"/>
<path d="M18.2558 15.8543H9.33386L0 0H9.02337L18.2558 15.8543Z" fill="white"/>
<path d="M14.2828 24.3517L9.8598 16.8618H18.6741L14.2828 24.3517Z" fill="white"/>
<path d="M43.8433 21.7854C45.1423 21.7854 45.9534 22.7422 45.9534 23.9399C45.9534 25.1311 45.1423 26.0943 43.8433 26.0943H42.3289V21.7854H43.8433ZM43.8433 25.7902C44.9522 25.7902 45.6556 25.0044 45.6556 23.9335C45.6556 22.888 44.9522 22.0769 43.8433 22.0769H42.652V25.7838H43.8433V25.7902Z" fill="white"/>
<path d="M46.9546 21.8678C47.0623 21.8678 47.1447 21.9502 47.1447 22.0832C47.1447 22.21 47.0623 22.2987 46.9546 22.2987C46.8469 22.2987 46.7391 22.2163 46.7391 22.0832C46.7455 21.9565 46.8469 21.8678 46.9546 21.8678ZM47.0813 26.069H46.7835V23.1478H47.0813V26.069Z" fill="white"/>
<path d="M50.4271 25.8345C50.0849 26.069 49.7237 26.1514 49.3816 26.1767C48.5958 26.1957 47.9558 25.6634 47.9558 24.5989C47.9558 23.5977 48.6402 23.0654 49.578 23.0654C49.9835 23.0654 50.3637 23.1732 50.7313 23.3632V26.3668C50.7313 27.3236 50.1103 27.7292 49.3879 27.7292C48.9823 27.7292 48.5578 27.6215 48.1713 27.4124L48.2536 27.1589C48.5958 27.3743 49.0394 27.4757 49.4069 27.4757C49.9835 27.4757 50.4524 27.1779 50.4524 26.3858V25.8535H50.4334V25.8345H50.4271ZM50.4271 23.5343C50.1293 23.4076 49.8315 23.3442 49.5336 23.3442C48.7479 23.3442 48.2346 23.7498 48.2346 24.5989C48.2346 25.4924 48.7669 25.8979 49.3879 25.8979C49.7301 25.8979 50.0913 25.7712 50.4081 25.4924V23.5343H50.4271Z" fill="white"/>
<path d="M51.8972 21.8678C52.0049 21.8678 52.0872 21.9502 52.0872 22.0832C52.0872 22.21 52.0049 22.2987 51.8972 22.2987C51.7894 22.2987 51.6817 22.2163 51.6817 22.0832C51.688 21.9565 51.7894 21.8678 51.8972 21.8678ZM52.0239 26.069H51.7261V23.1478H52.0239V26.069Z" fill="white"/>
<path d="M53.6651 23.1097H54.8184V23.3632H53.6651V24.96C53.6651 25.8535 54.0897 26.0246 54.9451 25.7268L55.0085 25.9802C53.9883 26.3224 53.3863 26.0246 53.3863 24.9347V23.3379L52.702 23.3188V23.0844H53.3863L53.4053 22.1909H53.6841V23.1097H53.6651Z" fill="white"/>
<path d="M56.3961 26.1133C55.8829 26.1133 55.3506 25.7964 55.3506 25.2198C55.3506 24.5608 55.9272 24.2376 56.5039 24.2376C56.8904 24.2376 57.2896 24.32 57.6128 24.4911V24.0412C57.6128 23.4645 57.0805 23.3188 56.5926 23.3188C56.2504 23.3188 55.8892 23.4012 55.6104 23.5533L55.528 23.3188C55.8068 23.1667 56.2124 23.0844 56.6116 23.0844C57.2516 23.0844 57.8916 23.3378 57.8916 24.0665V25.4289C57.8916 25.7711 57.8726 25.9802 58.2781 25.9422V26.1576C57.7648 26.24 57.6381 26.0499 57.6635 25.6063C57.4163 25.9612 56.8841 26.1133 56.3961 26.1133ZM57.6064 24.7699C57.2896 24.6178 56.884 24.5164 56.5229 24.5164C56.054 24.5164 55.6041 24.7509 55.6041 25.2642C55.6231 25.7141 56.0096 25.9232 56.4151 25.9232C56.9031 25.9232 57.4353 25.7077 57.5684 25.2008V24.7762H57.6064V24.7699Z" fill="white"/>
<path d="M59.2097 21.5699V24.941C59.2097 25.581 59.3174 25.8979 60.0398 25.8155V26.0499C59.121 26.1767 58.9119 25.7965 58.9119 24.941V21.5699H59.2097Z" fill="white"/>
<path d="M60.5086 24.3771H62.4476V24.6305H60.5086V24.3771Z" fill="white"/>
<path d="M63.3729 26.1197H63.2651V23.1161H63.5566V24.7383L63.5186 25.5684L65.6731 23.1161C65.7111 23.1161 65.7491 23.1161 65.7871 23.1161C65.7871 24.1173 65.7871 25.1248 65.7871 26.1197C65.6921 26.1197 65.597 26.1197 65.502 26.1197V24.3137L65.5337 23.661L63.3729 26.1197Z" fill="white"/>
<path d="M69.342 23.1161V26.1197H69.0505V24.7066H67.0924V26.1197H66.801V23.1161H67.0924V24.4404H69.0505V23.1161H69.342Z" fill="white"/>
<path d="M71.1352 26.1195V23.3821H69.9946V23.1223H72.5673V23.3821H71.4204V26.1259H71.1352V26.1195Z" fill="white"/>
<path d="M75.8687 24.6304H73.3213C73.3213 25.4986 73.8663 25.8978 74.6584 25.9168C75.0639 25.9104 75.4061 25.8154 75.6976 25.6887L75.7609 25.9421C75.4124 26.1005 75.0132 26.1829 74.6647 26.1829C73.6572 26.1829 72.9728 25.5936 73.0235 24.51C73.0742 23.5912 73.6825 23.0526 74.5443 23.0526C75.5138 23.0589 76.0398 23.6292 75.8687 24.6304ZM75.6215 24.377C75.6912 23.6673 75.2033 23.3061 74.5316 23.3061C73.86 23.3061 73.3974 23.7053 73.3277 24.377H75.6215Z" fill="white"/>
<path d="M76.6988 26.1197V23.1161H78.7075V23.3822H76.9966V26.1197H76.6988Z" fill="white"/>
<path d="M79.734 23.7243C79.9748 23.2237 80.3994 23.0463 80.9253 23.0463C81.8061 23.0463 82.2877 23.7813 82.2877 24.6114C82.2877 26.0372 80.862 26.6011 79.7721 25.79V27.6783H79.4806V24.0348C79.4806 23.5785 79.5186 23.268 79.094 23.3378L79.0814 23.0906C79.582 23.0082 79.734 23.2237 79.734 23.6419V23.7243ZM79.7721 25.4732C80.6909 26.2399 81.9835 25.8914 81.9835 24.6051C81.9835 23.9334 81.6097 23.3187 80.8746 23.3187C80.2156 23.3187 79.7911 23.8383 79.7721 24.4657V25.4732Z" fill="white"/>
<path d="M83.9099 26.1702C83.3839 26.1702 82.8453 25.8344 82.8453 25.2578C82.8453 24.5797 83.4093 24.2502 84.0113 24.2502C84.3851 24.2502 84.7843 24.3326 85.1265 24.51V24.0475C85.1265 23.4645 84.5879 23.3124 84.1127 23.3124C83.7641 23.3124 83.403 23.3948 83.1495 23.5405L83.0798 23.2934C83.3586 23.135 83.7578 23.0463 84.1507 23.0463C84.797 23.0463 85.418 23.3061 85.418 24.0538L85.4117 25.4225C85.4117 25.7837 85.3927 25.9928 85.7919 25.9421L85.8045 26.1512C85.2913 26.2336 85.1645 26.0498 85.1835 25.5746C84.9428 26.0181 84.4105 26.1702 83.9099 26.1702ZM85.1265 24.7762C84.8034 24.5987 84.4041 24.4974 84.0493 24.5037C83.5994 24.5037 83.1178 24.7508 83.1368 25.2514C83.1558 25.714 83.5424 25.9168 83.9606 25.9168C84.4485 25.9168 84.9934 25.7013 85.1265 25.1817V24.7762Z" fill="white"/>
<path d="M87.2303 26.1195V23.3821H86.0897V23.1223H88.6623V23.3821H87.5154V26.1259H87.2303V26.1195Z" fill="white"/>
<path d="M89.1122 24.6114C89.1122 22.533 92.2679 22.533 92.2679 24.6114C92.2615 26.6835 89.1122 26.6835 89.1122 24.6114ZM91.9637 24.6114C91.9637 22.8942 89.4101 22.8942 89.4101 24.6114C89.4101 26.316 91.9637 26.3287 91.9637 24.6114Z" fill="white"/>
<path d="M93.4465 23.7243C93.6873 23.2237 94.1118 23.0463 94.6378 23.0463C95.5186 23.0463 96.0002 23.7813 96.0002 24.6114C96.0002 26.0372 94.5744 26.6011 93.4845 25.79V27.6783H93.193V24.0348C93.193 23.5785 93.2311 23.268 92.8065 23.3378L92.7938 23.0906C93.2944 23.0082 93.4465 23.2237 93.4465 23.6419V23.7243ZM93.4845 25.4732C94.4033 26.2399 95.696 25.8914 95.696 24.6051C95.696 23.9334 95.3221 23.3187 94.5871 23.3187C93.9281 23.3187 93.5035 23.8383 93.4845 24.4657V25.4732Z" fill="white"/>
</svg>
