<svg width="188" height="103" viewBox="0 0 188 103" fill="none" xmlns="http://www.w3.org/2000/svg">
<path d="M120.897 23.2286C120.744 22.6543 120.424 22.1384 119.977 21.7462C119.531 21.354 118.978 21.1032 118.389 21.0257C117.8 20.9481 117.201 21.0473 116.668 21.3106C116.136 21.5739 115.693 21.9895 115.397 22.5047L102.998 43.9839V40.0033C102.998 38.9425 102.577 37.9251 101.826 37.1751C101.076 36.425 100.059 36.0036 98.9983 36.0036H93.9987V34.0037H98.9983C99.2635 34.0037 99.5178 33.8984 99.7053 33.7109C99.8929 33.5233 99.9982 33.269 99.9982 33.0038C99.9982 32.7386 99.8929 32.4843 99.7053 32.2968C99.5178 32.1092 99.2635 32.0039 98.9983 32.0039V29.0041C98.9983 28.7389 98.8929 28.4846 98.7054 28.2971C98.5179 28.1096 98.2636 28.0042 97.9984 28.0042H93.9987C93.7335 28.0042 93.4792 28.1096 93.2916 28.2971C93.1041 28.4846 92.9988 28.7389 92.9988 29.0041V32.0039C92.7336 32.0039 92.4792 32.1092 92.2917 32.2968C92.1042 32.4843 91.9988 32.7386 91.9988 33.0038V36.1456C91.1428 36.3666 90.3841 36.8651 89.8413 37.563C89.2986 38.261 89.0024 39.1191 88.9991 40.0033V46.0598C88.5451 46.2081 88.1319 46.4601 87.7922 46.7957C87.5817 47.0056 87.2965 47.1235 86.9992 47.1235C86.702 47.1235 86.4168 47.0056 86.2063 46.7957C85.612 46.2277 84.8216 45.9106 83.9995 45.9106C83.1774 45.9106 82.3869 46.2277 81.7927 46.7957C81.1648 47.4343 80.6589 48.1822 80.2998 49.0025H78.9089L77.76 46.4587C77.5559 46.0067 77.5271 45.4949 77.6792 45.0228C77.8313 44.5507 78.1533 44.1519 78.5829 43.904L82.5406 41.6191C82.9697 41.3694 83.4766 41.2888 83.9619 41.3933C84.4473 41.4979 84.8761 41.7799 85.1644 42.1841C85.3193 42.3994 85.5533 42.5444 85.8151 42.5872C86.0769 42.6299 86.3449 42.5669 86.5603 42.4121C86.7756 42.2572 86.9206 42.0231 86.9634 41.7613C87.0061 41.4996 86.9431 41.2315 86.7883 41.0162C86.387 40.458 85.8478 40.0135 85.2233 39.7261C84.5989 39.4387 83.9105 39.3181 83.2255 39.3763L81.5257 36.4315L80.0258 33.8318L80.8917 33.3318L84.3555 31.332C84.4693 31.2664 84.569 31.179 84.649 31.0749C84.7291 30.9708 84.7878 30.8519 84.8219 30.725C84.856 30.5982 84.8647 30.4659 84.8477 30.3356C84.8306 30.2054 84.788 30.0798 84.7224 29.9661L82.7226 26.5023C82.6569 26.3885 82.5695 26.2887 82.4652 26.2087C82.361 26.1287 82.242 26.07 82.115 26.036C81.9881 26.002 81.8556 25.9934 81.7254 26.0106C81.5951 26.0278 81.4695 26.0706 81.3557 26.1364L77.892 28.1362L67.5008 34.1357C67.3868 34.2014 67.2869 34.2889 67.2068 34.3932C67.1267 34.4976 67.068 34.6167 67.034 34.7437C67 34.8708 66.9914 35.0033 67.0087 35.1337C67.026 35.2641 67.0689 35.3898 67.1348 35.5036L69.1347 38.9673C69.2673 39.197 69.4857 39.3646 69.7418 39.4332C69.998 39.5018 70.2709 39.4659 70.5006 39.3333C70.8419 39.1361 71.2188 39.0082 71.6096 38.9567C72.0005 38.9053 72.3976 38.9314 72.7784 39.0335C73.1591 39.1357 73.516 39.3119 73.8286 39.5521C74.1412 39.7922 74.4034 40.0917 74.6002 40.4332L76.3001 43.377C75.9074 43.9414 75.6677 44.598 75.6044 45.2827C75.5412 45.9674 75.6565 46.6568 75.9391 47.2837L76.7141 49.0025H72.0004C71.7352 49.0025 71.4809 49.1079 71.2934 49.2954C71.1059 49.4829 71.0005 49.7373 71.0005 50.0025C71.0005 50.2677 71.1059 50.522 71.2934 50.7095C71.4809 50.897 71.7352 51.0024 72.0004 51.0024H79.6998L79.4138 53.0022H72.0004C71.7352 53.0022 71.4809 53.1076 71.2934 53.2951C71.1059 53.4826 71.0005 53.737 71.0005 54.0022C71.0005 54.2673 71.1059 54.5217 71.2934 54.7092C71.4809 54.8967 71.7352 55.0021 72.0004 55.0021H74.1423L74.4502 57.0019H72.0004C71.7352 57.0019 71.4809 57.1073 71.2934 57.2948C71.1059 57.4823 71.0005 57.7366 71.0005 58.0018C71.0005 68.478 79.9718 77.0003 90.9989 77.0003C95.32 77.0092 99.534 75.6558 103.042 73.1326L102.14 79.0002H79.8578L79.3729 75.8484C79.3286 75.5903 79.1849 75.3598 78.9725 75.2066C78.7602 75.0533 78.4962 74.9895 78.2373 75.0288C77.9784 75.068 77.7452 75.2073 77.5879 75.4167C77.4306 75.6261 77.3617 75.8888 77.396 76.1484L78.012 80.1481C78.0474 80.3848 78.1666 80.601 78.3479 80.7573C78.5291 80.9137 78.7605 80.9998 78.9999 81H102.998C103.237 80.9999 103.468 80.9144 103.649 80.7588C103.83 80.6033 103.95 80.3881 103.986 80.1521L105.366 71.1868C107.137 69.4764 108.548 67.4285 109.515 65.164C110.483 62.8995 110.986 60.4642 110.997 58.0018C110.997 57.7366 110.892 57.4823 110.704 57.2948C110.517 57.1073 110.263 57.0019 109.997 57.0019H107.548L107.856 55.0021H109.997C110.263 55.0021 110.517 54.8967 110.704 54.7092C110.892 54.5217 110.997 54.2673 110.997 54.0022V50.0025C110.997 49.7373 110.892 49.4829 110.704 49.2954C110.517 49.1079 110.263 49.0025 109.997 49.0025H107.028L110.618 42.784C110.749 42.5545 110.783 42.2827 110.714 42.0278C110.645 41.773 110.478 41.5559 110.249 41.4239C110.02 41.2918 109.749 41.2556 109.494 41.3231C109.238 41.3906 109.02 41.5563 108.887 41.7841L104.718 49.0025H102.41L117.131 23.5046C117.194 23.3867 117.281 23.2828 117.385 23.1989C117.489 23.1151 117.61 23.0531 117.738 23.0165C117.867 22.98 118.002 22.9696 118.135 22.9861C118.267 23.0026 118.396 23.0456 118.512 23.1126C118.627 23.1796 118.729 23.2691 118.809 23.3759C118.89 23.4827 118.948 23.6047 118.981 23.7345C119.014 23.8643 119.02 23.9993 118.999 24.1316C118.979 24.2639 118.932 24.3907 118.862 24.5045L110.886 38.3204C110.82 38.4342 110.776 38.56 110.758 38.6906C110.74 38.8213 110.749 38.9542 110.782 39.0817C110.816 39.2092 110.875 39.3287 110.955 39.4335C111.035 39.5382 111.135 39.6261 111.249 39.6921C111.363 39.758 111.489 39.8007 111.62 39.8177C111.751 39.8347 111.884 39.8256 112.011 39.7911C112.138 39.7565 112.257 39.6972 112.362 39.6164C112.466 39.5356 112.553 39.435 112.618 39.3203L120.597 25.5044C120.794 25.1636 120.923 24.7871 120.974 24.3965C121.025 24.0059 120.999 23.609 120.897 23.2286ZM77.83 42.0291L76.8301 40.2972L78.5619 39.2973L80.2938 38.2974L81.2937 40.0293L77.83 42.0291ZM81.4897 28.3702L82.4896 30.102L80.7577 31.102L80.2578 30.236L79.7578 29.3701L81.4897 28.3702ZM71.9904 36.9325C71.4551 36.9326 70.9234 37.0191 70.4156 37.1885L69.3656 35.3696L78.025 30.37L78.5249 31.236L79.0249 32.1019L78.1589 32.6019C77.9293 32.7345 77.7617 32.9529 77.6931 33.209C77.6245 33.4652 77.6604 33.7381 77.793 33.9677L79.2929 36.5675L78.1929 37.2045L75.7461 38.6174C75.275 38.0871 74.6967 37.6627 74.0495 37.3723C73.4023 37.0819 72.7008 36.932 71.9914 36.9325H71.9904ZM90.9989 45.0029V43.003H100.998V45.0029H90.9989ZM94.9986 30.0041H96.9984V32.0039H94.9986V30.0041ZM92.9988 38.0034H98.9983C99.5287 38.0034 100.037 38.2141 100.412 38.5892C100.787 38.9642 100.998 39.4729 100.998 40.0033V41.0032H90.9989V40.0033C90.9989 39.4729 91.2096 38.9642 91.5847 38.5892C91.9597 38.2141 92.4684 38.0034 92.9988 38.0034ZM79.1329 55.0021L77.7 65.0013L76.1661 55.0021H79.1329ZM74.7582 59.0018L76.0581 67.4351C74.2791 64.963 73.2304 62.0409 73.0314 59.0018H74.7582ZM108.966 59.0018C108.768 62.0402 107.72 64.962 105.943 67.4341L107.24 59.0018H108.966ZM108.997 53.0022H97.7124C97.4472 53.0022 97.1929 53.1076 97.0053 53.2951C96.8178 53.4826 96.7125 53.737 96.7125 54.0022C96.7125 54.2673 96.8178 54.5217 97.0053 54.7092C97.1929 54.8967 97.4472 55.0021 97.7124 55.0021H105.832L103.491 70.2189C100.133 73.2311 95.8002 74.9284 91.29 74.9983C86.7797 75.0681 82.3962 73.5057 78.9469 70.5988L81.4877 69.074C81.9158 68.8167 82.4109 68.693 82.9097 68.7189C83.4085 68.7447 83.8882 68.9188 84.2875 69.2189C85.0703 69.8018 86.0202 70.1166 86.9962 70.1166C87.9722 70.1166 88.9222 69.8018 89.705 69.2189C90.1043 68.9188 90.584 68.7447 91.0828 68.7189C91.5816 68.693 92.0767 68.8167 92.5048 69.074C92.9344 69.3337 93.4289 69.4661 93.9308 69.4557C94.4327 69.4454 94.9214 69.2926 95.3398 69.0153C95.7583 68.7379 96.0894 68.3474 96.2945 67.8892C96.4996 67.431 96.5704 66.924 96.4985 66.4272L95.8515 61.9015C95.814 61.639 95.6737 61.4021 95.4615 61.243C95.2494 61.0839 94.9827 61.0156 94.7201 61.0531C94.4576 61.0906 94.2207 61.2309 94.0616 61.4431C93.9025 61.6553 93.8342 61.922 93.8717 62.1845L94.5186 66.7101C94.5381 66.8322 94.5215 66.9573 94.4709 67.0701C94.4203 67.1829 94.3378 67.2785 94.2337 67.3451C94.1323 67.4152 94.0126 67.454 93.8894 67.4567C93.7663 67.4593 93.645 67.4257 93.5407 67.3601C92.9988 67.0386 92.3956 66.8342 91.7699 66.7601L90.9989 55.931C90.9896 55.7997 90.9545 55.6715 90.8956 55.5537C90.8368 55.436 90.7553 55.331 90.6559 55.2447C90.5564 55.1585 90.441 55.0927 90.3161 55.051C90.1912 55.0094 90.0593 54.9927 89.928 55.0021C89.7967 55.0114 89.6685 55.0465 89.5508 55.1054C89.433 55.1642 89.328 55.2457 89.2418 55.3451C89.1555 55.4446 89.0897 55.56 89.048 55.6849C89.0064 55.8098 88.9898 55.9417 88.9991 56.073L89.777 66.9541C89.3206 67.1065 88.8916 67.331 88.5061 67.6191C88.0699 67.9434 87.5408 68.1186 86.9972 68.1186C86.4537 68.1186 85.9246 67.9434 85.4884 67.6191C85.1483 67.3663 84.7747 67.1621 84.3785 67.0121L85.9893 54.1261C86.0156 53.8664 85.9392 53.6066 85.7764 53.4024C85.6137 53.1983 85.3776 53.0658 85.1185 53.0334C84.8594 53.001 84.5979 53.0713 84.39 53.2291C84.182 53.387 84.044 53.6199 84.0055 53.8782L82.3996 66.7311C81.7126 66.7897 81.0481 67.0044 80.4568 67.3591L79.2859 68.059L81.6857 51.2394C81.727 50.9537 81.7912 50.6718 81.8777 50.3964L81.8867 50.3764C82.146 49.5583 82.5972 48.814 83.2025 48.2056C83.413 47.9957 83.6982 47.8778 83.9955 47.8778C84.2928 47.8778 84.5779 47.9957 84.7884 48.2056C85.3827 48.7737 86.1731 49.0907 86.9952 49.0907C87.8174 49.0907 88.6078 48.7737 89.2021 48.2056C89.4126 47.9957 89.6977 47.8778 89.995 47.8778C90.2923 47.8778 90.5774 47.9957 90.7879 48.2056C91.3927 48.8141 91.8438 49.5579 92.1038 50.3754L92.1128 50.3964C92.1998 50.672 92.264 50.9543 92.3048 51.2404L93.3047 58.2208C93.3201 58.3535 93.362 58.4818 93.4278 58.598C93.4936 58.7143 93.582 58.8162 93.6878 58.8977C93.7936 58.9792 93.9147 59.0387 94.0439 59.0726C94.1731 59.1065 94.3078 59.1142 94.44 59.0953C94.5723 59.0763 94.6993 59.031 94.8138 58.9621C94.9282 58.8932 95.0277 58.8021 95.1063 58.6941C95.1849 58.5861 95.2411 58.4635 95.2716 58.3334C95.302 58.2033 95.3061 58.0685 95.2836 57.9368L94.2987 51.0024H108.997V53.0022ZM93.6987 49.0025C93.3713 48.2683 92.9258 47.5928 92.3798 47.0027H100.998V47.4477L100.098 49.0025H93.6987Z" fill="white"/>
<path d="M0.5 72.7248V29.3286L93.998 0.523191L187.5 29.3286V72.7248L93.998 101.585L0.5 72.7248Z" stroke="white"/>
</svg>