<svg width="188" height="103" viewBox="0 0 188 103" fill="none" xmlns="http://www.w3.org/2000/svg">
<path d="M93.998 0L0 28.9595V73.0938L93.998 102.108L188 73.0938V28.9595L93.998 0Z" fill="#F24538"/>
<path d="M27.0778 47.2643L23.7827 42.6302H21.2585V47.2643H19.3252V35.7654H21.2585V40.7058H23.407L26.843 35.7654H29.2615L25.4107 41.3538L29.4924 47.2643H27.0778Z" fill="white"/>
<path d="M37.1349 44.0636H33.6832V47.2604H31.7656V35.7654H37.131C39.4243 35.7654 41.2676 37.6151 41.2676 39.9164C41.2715 42.2139 39.4282 44.0636 37.1349 44.0636ZM37.1349 37.6858H33.6832V42.1236H37.1349C38.352 42.1236 39.3382 41.1339 39.3382 39.9125C39.3382 38.6911 38.352 37.6858 37.1349 37.6858Z" fill="white"/>
<path d="M51.3171 47.2643L50.5657 45.1279H44.2337L43.4823 47.2643H41.4238L45.4704 35.7654H49.3134L53.36 47.2643H51.3171ZM46.8284 37.6858L44.8912 43.1839H49.8809L47.9437 37.6858H46.8284Z" fill="white"/>
<path d="M60.1344 47.4057C56.894 47.4057 54.5303 44.7666 54.5303 41.5149C54.5303 38.2631 56.894 35.624 60.1344 35.624C61.6019 35.624 62.2281 35.8164 64.0479 36.3427L63.5196 38.2199C61.8094 37.7447 61.0306 37.6151 60.1344 37.6151C57.9859 37.6151 56.5379 39.3588 56.5379 41.5149C56.5379 43.6709 57.9898 45.395 60.1344 45.395C61.0306 45.395 61.9268 45.2497 63.4452 44.9041L63.8483 46.8048C62.2203 47.2015 61.6019 47.4057 60.1344 47.4057Z" fill="white"/>
<path d="M75.1195 47.2643V42.4495H68.4274V47.2643H66.4941V35.7654H68.4274V40.5252H75.1195V35.7654H77.0332V47.2643H75.1195Z" fill="white"/>
<path d="M86.339 47.2643H79.9521V35.7654H81.8854V40.0775H86.339C88.3074 40.0775 89.9198 41.6955 89.9198 43.6709C89.9198 45.6463 88.3114 47.2643 86.339 47.2643ZM86.339 41.9979H81.8854V45.3203H86.339C87.2508 45.3203 88.0061 44.582 88.0061 43.667C88.0061 42.7519 87.2547 41.9979 86.339 41.9979ZM90.9764 47.2643V35.7654H92.9097V47.2643H90.9764Z" fill="white"/>
<path d="M104.51 47.2644V39.7712L95.9395 47.4607V35.7654H97.8179V42.9523L106.388 35.408V47.2644H104.51ZM99.6495 38.3849V35.7615H103.156L99.6495 38.3849Z" fill="white"/>
<path d="M55.9937 60.6994C55.9937 64.2104 53.3247 66.5707 50.0296 66.5707C46.7344 66.5707 44.0654 64.2104 44.0654 60.6994C44.0654 57.0864 46.7344 54.8282 50.0296 54.8282C53.3247 54.8282 55.9937 57.0903 55.9937 60.6994ZM50.0296 56.8115C47.8498 56.8115 46.0809 58.1821 46.0809 60.6994C46.0809 63.1147 47.8498 64.5874 50.0296 64.5874C52.2094 64.5874 53.9783 63.1147 53.9783 60.6994C53.9783 58.1821 52.2094 56.8115 50.0296 56.8115Z" fill="white"/>
<path d="M101.125 66.4449L100.373 64.3085H94.0491L93.2977 66.4449H91.2432L95.2819 54.9656H99.121L103.16 66.4449H101.125ZM96.6477 56.886L94.7144 62.3763H99.6963L97.763 56.886H96.6477Z" fill="white"/>
<path d="M138.717 66.445V58.9636L130.158 66.6413V54.9657H132.037V62.1407L140.595 54.6083V66.4489H138.717V66.445ZM133.86 57.5812V54.9657H137.363L133.86 57.5812Z" fill="white"/>
<path d="M27.9388 66.4449V56.886H21.2585V66.4449H19.3291V54.9656H29.8525V66.4449H27.9388Z" fill="white"/>
<path d="M38.2111 63.2521H34.7672V66.4449H32.8535V54.9656H38.2111C40.5005 54.9656 42.3398 56.8114 42.3398 59.1088C42.3398 61.4063 40.5005 63.2521 38.2111 63.2521ZM38.2111 56.886H34.7672V61.316H38.2111C39.4282 61.316 40.4105 60.3302 40.4105 59.1088C40.4105 57.8875 39.4282 56.886 38.2111 56.886Z" fill="white"/>
<path d="M56.7529 65.2511C58.874 63.527 59.0854 59.5801 59.0854 56.8821V54.9617H68.0903V66.441H66.1609V56.8821H61.0186V57.3298C61.0186 59.5055 60.9717 64.0611 58.1148 66.657L56.7529 65.2511Z" fill="white"/>
<path d="M70.9863 66.4449V54.9656H79.506V56.886H72.9157V59.7568H78.0776V61.6419H72.9157V64.5127H79.506V66.4488H70.9863V66.4449Z" fill="white"/>
<path d="M87.6937 56.886V66.4449H85.78V56.886H81.71V54.9656H91.6737V56.886H87.6937Z" fill="white"/>
<path d="M110.329 63.2521H106.885V66.4449H104.972V54.9656H110.329C112.619 54.9656 114.458 56.8114 114.458 59.1088C114.458 61.4063 112.615 63.2521 110.329 63.2521ZM110.329 56.886H106.885V61.316H110.329C111.546 61.316 112.529 60.3302 112.529 59.1088C112.529 57.8875 111.542 56.886 110.329 56.886Z" fill="white"/>
<path d="M125.2 66.445V58.6572L116.642 66.6452V54.9696H118.52V62.3606L127.079 54.6122V66.4528H125.2V66.445Z" fill="white"/>
</svg>
