<svg width="188" height="102" viewBox="0 0 188 102" fill="none" xmlns="http://www.w3.org/2000/svg">
<g clip-path="url(#clip0)">
<path d="M93.998 2.3207L185.777 30.4978V71.1981L93.998 99.43L2.21895 71.1981V30.4978L93.998 2.3207ZM93.998 0L0 28.8581V72.8378L93.998 101.751L187.996 72.8378V28.8581L93.998 0Z" fill="white"/>
<path d="M27.0778 47.0988L23.7827 42.4809H21.2585V47.0988H19.3252V35.6401H21.2585V40.5633H23.407L26.843 35.6401H29.2615L25.4107 41.209L29.4924 47.0988H27.0778Z" fill="white"/>
<path d="M37.1349 43.9093H33.6832V47.0949H31.7656V35.6401H37.131C39.4243 35.6401 41.2676 37.4834 41.2676 39.7767C41.2715 42.0661 39.4282 43.9093 37.1349 43.9093ZM37.1349 37.5538H33.6832V41.9761H37.1349C38.352 41.9761 39.3382 40.9899 39.3382 39.7728C39.3382 38.5557 38.352 37.5538 37.1349 37.5538Z" fill="white"/>
<path d="M51.3171 47.0988L50.5657 44.9699H44.2337L43.4823 47.0988H41.4238L45.4704 35.6401H49.3134L53.36 47.0988H51.3171ZM46.8284 37.5538L44.8912 43.0327H49.8809L47.9437 37.5538H46.8284Z" fill="white"/>
<path d="M60.1344 47.2395C56.894 47.2395 54.5303 44.6096 54.5303 41.3693C54.5303 38.1289 56.894 35.499 60.1344 35.499C61.6019 35.499 62.2281 35.6908 64.0479 36.2152L63.5196 38.0858C61.8094 37.6123 61.0306 37.4832 60.1344 37.4832C57.9859 37.4832 56.5379 39.2207 56.5379 41.3693C56.5379 43.5178 57.9898 45.2358 60.1344 45.2358C61.0306 45.2358 61.9268 45.091 63.4452 44.7466L63.8483 46.6407C62.2203 47.036 61.6019 47.2395 60.1344 47.2395Z" fill="white"/>
<path d="M75.1195 47.0988V42.3009H68.4274V47.0988H66.4941V35.6401H68.4274V40.3833H75.1195V35.6401H77.0332V47.0988H75.1195Z" fill="white"/>
<path d="M86.339 47.0988H79.9521V35.6401H81.8854V39.9371H86.339C88.3074 39.9371 89.9198 41.5495 89.9198 43.518C89.9198 45.4865 88.3114 47.0988 86.339 47.0988ZM86.339 41.8508H81.8854V45.1617H86.339C87.2508 45.1617 88.0061 44.4259 88.0061 43.5141C88.0061 42.6022 87.2547 41.8508 86.339 41.8508ZM90.9764 47.0988V35.6401H92.9097V47.0988H90.9764Z" fill="white"/>
<path d="M104.51 47.099V39.6321L95.9395 47.2947V35.6403H97.8179V42.802L106.388 35.2842V47.099H104.51ZM99.6494 38.2506V35.6364H103.156L99.6494 38.2506Z" fill="white"/>
<path d="M55.9937 60.4869C55.9937 63.9855 53.3247 66.3375 50.0296 66.3375C46.7344 66.3375 44.0654 63.9855 44.0654 60.4869C44.0654 56.8865 46.7344 54.6362 50.0296 54.6362C53.3247 54.6362 55.9937 56.8904 55.9937 60.4869ZM50.0296 56.6125C47.8498 56.6125 46.0809 57.9783 46.0809 60.4869C46.0809 62.8937 47.8498 64.3612 50.0296 64.3612C52.2094 64.3612 53.9783 62.8937 53.9783 60.4869C53.9783 57.9783 52.2094 56.6125 50.0296 56.6125Z" fill="white"/>
<path d="M101.125 66.2121L100.373 64.0831H94.0491L93.2977 66.2121H91.2432L95.2819 54.7729H99.121L103.16 66.2121H101.125ZM96.6477 56.6866L94.7144 62.1577H99.6963L97.763 56.6866H96.6477Z" fill="white"/>
<path d="M138.717 66.2122V58.757L130.158 66.4079V54.7731H132.037V61.9231L140.595 54.417V66.2162H138.717V66.2122ZM133.86 57.3795V54.7731H137.363L133.86 57.3795Z" fill="white"/>
<path d="M27.9388 66.2121V56.6866H21.2585V66.2121H19.3291V54.7729H29.8525V66.2121H27.9388Z" fill="white"/>
<path d="M38.2111 63.0304H34.7672V66.2121H32.8535V54.7729H38.2111C40.5005 54.7729 42.3398 56.6123 42.3398 58.9017C42.3398 61.1911 40.5005 63.0304 38.2111 63.0304ZM38.2111 56.6866H34.7672V61.1011H38.2111C39.4282 61.1011 40.4105 60.1188 40.4105 58.9017C40.4105 57.6846 39.4282 56.6866 38.2111 56.6866Z" fill="white"/>
<path d="M56.7529 65.0224C58.874 63.3044 59.0854 59.3713 59.0854 56.6827V54.769H68.0903V66.2082H66.1609V56.6827H61.0186V57.1289C61.0186 59.2969 60.9717 63.8366 58.1148 66.4234L56.7529 65.0224Z" fill="white"/>
<path d="M70.9863 66.2121V54.7729H79.506V56.6866H72.9157V59.5474H78.0776V61.4259H72.9157V64.2866H79.506V66.216H70.9863V66.2121Z" fill="white"/>
<path d="M87.6937 56.6866V66.2121H85.78V56.6866H81.71V54.7729H91.6737V56.6866H87.6937Z" fill="white"/>
<path d="M110.329 63.0304H106.885V66.2121H104.972V54.7729H110.329C112.619 54.7729 114.458 56.6123 114.458 58.9017C114.458 61.1911 112.615 63.0304 110.329 63.0304ZM110.329 56.6866H106.885V61.1011H110.329C111.546 61.1011 112.529 60.1188 112.529 58.9017C112.529 57.6846 111.542 56.6866 110.329 56.6866Z" fill="white"/>
<path d="M125.2 66.2122V58.4518L116.642 66.4118V54.777H118.52V62.1422L127.079 54.4209V66.2201H125.2V66.2122Z" fill="white"/>
</g>
<defs>
<clipPath id="clip0">
<rect width="188" height="101.751" fill="white"/>
</clipPath>
</defs>
</svg>
