<svg width="26" height="59" viewBox="0 0 26 59" fill="none" xmlns="http://www.w3.org/2000/svg">
<rect x="0.5" y="0.5" width="25" height="38" rx="12.5" stroke="white"/>
<circle cx="13" cy="14" r="3.5" stroke="white"/>
<path d="M12.6464 58.3536C12.8417 58.5488 13.1583 58.5488 13.3536 58.3536L16.5355 55.1716C16.7308 54.9763 16.7308 54.6597 16.5355 54.4645C16.3403 54.2692 16.0237 54.2692 15.8284 54.4645L13 57.2929L10.1716 54.4645C9.97631 54.2692 9.65973 54.2692 9.46447 54.4645C9.2692 54.6597 9.2692 54.9763 9.46447 55.1716L12.6464 58.3536ZM12.5 44L12.5 58L13.5 58L13.5 44L12.5 44Z" fill="white"/>
</svg>
