<svg width="188" height="103" viewBox="0 0 188 103" fill="none" xmlns="http://www.w3.org/2000/svg">
    <path d="M0.5 72.7248V29.3286L93.998 0.523191L187.5 29.3286V72.7248L93.998 101.585L0.5 72.7248Z" stroke="white"/>
    <path d="M93.7872 50.864V48.2258H95.5461C97.0009 48.2258 98.1845 47.0421 98.1845 45.5874V43.8284C98.1845 42.3736 97.0009 41.19 95.5461 41.19H92.0283V50.864H93.7872ZM93.7872 42.9489H95.5461C96.0311 42.9489 96.4256 43.3434 96.4256 43.8284V45.5874C96.4256 46.0724 96.0311 46.4669 95.5461 46.4669H93.7872V42.9489Z" fill="white"/>
    <path d="M92.4688 57.0202H95.9866V58.7791H92.4688V57.0202Z" fill="white"/>
    <path d="M102.143 79.2411H103.901V81H102.143V79.2411Z" fill="white"/>
    <path d="M110.848 79.2411C110.44 77.2365 108.663 75.7234 106.54 75.7234H104.462C104.099 74.6997 103.121 73.9645 101.974 73.9645H96.8658V65.0163C98.6817 64.6211 100.073 63.0125 100.375 60.8349L101.237 54.6294L105.66 44.8981V38.4004C106.684 38.0373 107.419 37.0597 107.419 35.9133V23.6384C107.419 22.1836 106.236 21 104.781 21H83.674C82.2192 21 81.0357 22.1836 81.0357 23.6384V29.7943H82.7946V26.2767H83.674C84.159 26.2767 84.5535 26.6712 84.5535 27.1562C84.5535 28.6682 85.7124 29.8524 87.1919 29.8524C88.6466 29.8524 89.8302 28.6688 89.8302 27.214C89.8302 26.6709 90.2001 26.2767 90.7097 26.2767H105.661V35.9133C105.661 36.3982 105.266 36.7927 104.781 36.7927H102.093C101.654 32.8408 98.2946 29.7571 94.2275 29.7571C90.1604 29.7571 86.8015 32.8408 86.3625 36.7927H83.674C83.189 36.7927 82.7946 36.3982 82.7946 35.9133V31.5536H81.0357V35.9133C81.0357 37.0597 81.771 38.0373 82.7946 38.4004V44.8983L87.2178 54.6294L88.0796 60.8349C88.3821 63.0124 89.7733 64.621 91.5892 65.0161V74.0529C90.5183 74.2711 89.5879 74.8798 88.9532 75.7231H81.9151C79.7915 75.7231 78.0149 77.2363 77.6064 79.241H74V80.9999H100.384V79.241H89.8301V78.3616C89.8301 76.9069 91.0136 75.7233 92.4685 75.7233H101.974C102.459 75.7233 102.854 76.1177 102.854 76.6027V77.4822H106.54C107.686 77.4822 108.664 78.2174 109.027 79.241H105.66V80.9999H114.455V79.241H110.848V79.2411ZM90.7095 24.5178C89.23 24.5178 88.0711 25.7022 88.0711 27.214C88.0711 27.699 87.6766 28.0935 87.1916 28.0935C86.682 28.0935 86.3122 27.6994 86.3122 27.1562C86.3122 25.7015 85.1285 24.5178 83.6738 24.5178H82.7943V23.6384C82.7943 23.1534 83.1888 22.7589 83.6738 22.7589H104.781C105.266 22.7589 105.66 23.1534 105.66 23.6384V24.5178H90.7095ZM79.428 79.2411C79.7911 78.2175 80.7685 77.4822 81.9151 77.4822H88.1597C88.1018 77.7664 88.0712 78.0606 88.0712 78.3617V79.2411H79.428ZM95.1069 65.1111V73.9645H93.348V65.1111H95.1069ZM94.2274 31.516C97.3233 31.516 99.8917 33.8135 100.32 36.7927H95.1068V33.2749H93.3478V36.7927H88.1349C88.5631 33.8135 91.1315 31.516 94.2274 31.516ZM84.5534 44.5172V38.5516H103.901V44.5173L99.8174 53.5024H88.6375L84.5534 44.5172ZM89.8218 60.5929L89.0813 55.2612H99.3738L98.6333 60.5929C98.4425 61.9663 97.5502 63.3521 95.9866 63.3521H92.4686C90.9048 63.3522 90.0125 61.9663 89.8218 60.5929Z" fill="white"/>
    <path d="M102.143 28.0356H103.901V29.7945H102.143V28.0356Z" fill="white"/>
    <path d="M100.384 40.3105H102.143V42.0695H100.384V40.3105Z" fill="white"/>
</svg>