<?xml version="1.0" encoding="utf-8"?>
<!-- Generator: Adobe Illustrator 23.0.2, SVG Export Plug-In . SVG Version: 6.00 Build 0)  -->
<svg version="1.1" id="Layer_1" xmlns="http://www.w3.org/2000/svg" xmlns:xlink="http://www.w3.org/1999/xlink" x="0px" y="0px"
	 viewBox="0 0 416 119.8" style="enable-background:new 0 0 416 119.8;" xml:space="preserve">
<style type="text/css">
	.st0{fill:#FFFFFF;}
	.st1{fill:#FC6153;}
	.st2{fill:#017BFC;}
	.st3{fill:#36AF3B;}
</style>
<path class="st0" d="M137.3,61.3l5.3-14.8l5.9-14.3h7.1v1l-17,39.9h-2.7l-17.2-39.9v-1h7.2l5.7,14L137.3,61.3
	C137.2,61.3,137.3,61.3,137.3,61.3z"/>
<path class="st0" d="M178.5,67.5V73h-19.6v-5.4h6.5V37.8h-5.9v-5.4H178v5.4h-5.9v29.7H178.5z"/>
<path class="st0" d="M189.9,61.3c0.3,4.5,5.3,6.3,9.7,6.3c4.2,0,9.3-1.2,9.3-6.3c0-5.3-5.6-5.9-10.3-6.3c-7.4-0.6-14.8-3-14.8-11.2
	c0-8.3,7.4-12.4,15.2-12.4c7.7,0,15.1,3.5,15.2,11.8H208c-0.3-4.4-4.8-5.7-8.9-5.7c-3.8,0-8.6,1.5-8.6,6s4.5,5.1,9.3,5.7
	c8.3,0.9,15.8,2.5,15.8,11.9c0,8.9-8.4,12.4-16,12.4c-8,0.1-16.3-3.8-16.4-12.4h6.6L189.9,61.3L189.9,61.3z"/>
<path class="st0" d="M221.9,70.1c0-2.2,1.8-3.6,3.9-3.6c2.1,0,3.9,1.3,3.9,3.6c0,2.1-1.8,3.6-3.9,3.6S221.9,72.2,221.9,70.1z"/>
<path class="st0" d="M258,54.3c-1.2-3-4.2-4.5-7.4-4.5c-4.2,0-8.7,3.2-8.7,9c0,6,4.4,9,8.6,9c3.2,0,6.3-1.6,7.5-5.1h6
	c-1.5,7.1-7.5,10.6-13.7,10.6c-7.2,0-14.8-4.8-14.8-14.5s7.4-14.6,14.6-14.6c6,0,12.1,3.3,13.6,10.1C263.7,54.3,258,54.3,258,54.3z"
	/>
<path class="st0" d="M295.2,60.1h-20.6c0,5.1,4.1,8.1,9,8.1c3.5,0.1,6.8-0.3,10.1-1.8l0.7,4.7c-3.3,1.5-7.1,2.4-10.6,2.4
	c-9.2,0.1-16-5.7-15.7-15.2c0.2-9.3,6.9-14,14.5-14C292.7,44.3,297.1,50.9,295.2,60.1z M274.8,55.6h15.4c0.2-4.2-3.3-6.5-7.2-6.5
	C278.7,49.3,275.7,51.2,274.8,55.6z"/>
<path class="st0" d="M323,73V56.5c0-4.4-2.7-7.1-6.5-7.1c-3.9,0-7.1,3-7.1,7.5v15.8h-6.3V53.1c0-3.3-0.2-4.2-3-4.1v-4
	c4.1-0.7,8.7-1,8.7,4.4c1.5-3.5,5.9-4.8,9.5-4.8c7.5,0,11,5.3,11,12.1V73H323L323,73z"/>
<path class="st0" d="M345.9,45h9.6v4.5h-9.6V62c0,7.1,4.5,7.5,10.3,5.6l0.6,4.8c-9.5,3-17,0.7-17-10.3V49.5l-5.7-0.4V45h5.7l0.6-8.6
	h5.6V45H345.9z"/>
<path class="st0" d="M387,60.1h-20.6c0,5.1,4.1,8.1,9,8.1c3.5,0.1,6.8-0.3,10.1-1.8l0.7,4.7c-3.3,1.5-7.1,2.4-10.6,2.4
	c-9.2,0.1-16-5.7-15.7-15.2c0.2-9.3,6.9-14,14.5-14C384.5,44.3,388.8,50.9,387,60.1z M366.4,55.6h15.4c0.2-4.2-3.3-6.5-7.2-6.5
	C370.4,49.3,367.3,51.2,366.4,55.6z"/>
<path class="st0" d="M408.9,44.1c2.2,0,4.7,0.6,6.5,1.9l-1.5,5.4c-1.6-1-3.5-1.6-5.6-1.6c-3.8,0-7.1,2.4-7.1,6.9v16.1h-6.5V52.6
	c0-2.5,0-3.8-3-3.6v-4.2c4.1-0.9,8.6-0.3,8.9,4.2C401.8,45.8,405.4,44.1,408.9,44.1z"/>
<path class="st1" d="M83.6,45.5c12.6,0,22.8-10.2,22.8-22.8C106.4,10.2,96.2,0,83.6,0C71.1,0,60.9,10.2,60.9,22.8
	S71.1,45.5,83.6,45.5z"/>
<path class="st2" d="M79,68.4H40.4L0-0.2h39L79,68.4z"/>
<path class="st3" d="M61.8,105.2L42.7,72.8h38.1L61.8,105.2z"/>
<path class="st0" d="M189.7,94.1c5.6,0,9.1,4.1,9.1,9.3c0,5.2-3.5,9.3-9.1,9.3h-6.6V94.1H189.7z M189.7,111.4c4.8,0,7.8-3.4,7.8-8
	c0-4.5-3-8-7.8-8h-5.2v16H189.7L189.7,111.4z"/>
<path class="st0" d="M203.2,94.4c0.5,0,0.8,0.4,0.8,0.9s-0.4,0.9-0.8,0.9s-0.9-0.4-0.9-0.9C202.2,94.8,202.7,94.4,203.2,94.4z
	 M203.7,112.6h-1.3V100h1.3V112.6z"/>
<path class="st0" d="M218.2,111.6c-1.5,1-3,1.4-4.5,1.5c-3.4,0.1-6.2-2.2-6.2-6.8c0-4.3,3-6.6,7-6.6c1.8,0,3.4,0.5,5,1.3v13
	c0,4.1-2.7,5.9-5.8,5.9c-1.8,0-3.6-0.5-5.3-1.4l0.4-1.1c1.5,0.9,3.4,1.4,5,1.4c2.5,0,4.5-1.3,4.5-4.7v-2.3L218.2,111.6L218.2,111.6
	L218.2,111.6z M218.2,101.7c-1.3-0.5-2.6-0.8-3.9-0.8c-3.4,0-5.6,1.8-5.6,5.4c0,3.9,2.3,5.6,5,5.6c1.5,0,3-0.5,4.4-1.8L218.2,101.7
	L218.2,101.7z"/>
<path class="st0" d="M224.5,94.4c0.5,0,0.8,0.4,0.8,0.9s-0.4,0.9-0.8,0.9s-0.9-0.4-0.9-0.9S224.1,94.4,224.5,94.4z M225.1,112.6
	h-1.3V100h1.3V112.6z"/>
<path class="st0" d="M232.2,99.8h5v1.1h-5v6.9c0,3.9,1.8,4.6,5.5,3.3l0.3,1.1c-4.4,1.5-7,0.2-7-4.5v-6.9l-3-0.1v-1h3l0.1-3.9h1.2
	L232.2,99.8L232.2,99.8z"/>
<path class="st0" d="M244,112.8c-2.2,0-4.5-1.4-4.5-3.9c0-2.9,2.5-4.3,5-4.3c1.7,0,3.4,0.4,4.8,1.1v-1.9c0-2.5-2.3-3.1-4.4-3.1
	c-1.5,0-3,0.4-4.3,1l-0.4-1c1.2-0.7,3-1,4.7-1c2.8,0,5.5,1.1,5.5,4.2v5.9c0,1.5-0.1,2.4,1.7,2.2v0.9c-2.2,0.4-2.8-0.5-2.7-2.4
	C248.4,112.2,246.1,112.8,244,112.8z M249.2,107c-1.4-0.7-3.1-1.1-4.7-1.1c-2,0-4,1-4,3.2c0.1,1.9,1.8,2.9,3.5,2.9
	c2.1,0,4.4-0.9,5-3.1V107H249.2L249.2,107z"/>
<path class="st0" d="M256.2,93.2v14.6c0,2.8,0.5,4.1,3.6,3.8v1c-4,0.5-4.9-1.1-4.9-4.8V93.2H256.2z"/>
<path class="st0" d="M261.8,105.3h8.4v1.1h-8.4V105.3z"/>
<path class="st0" d="M274.2,112.8h-0.5v-13h1.3v7l-0.2,3.6l9.3-10.6c0.2,0,0.3,0,0.5,0c0,4.3,0,8.7,0,13c-0.4,0-0.8,0-1.2,0V105
	l0.1-2.8L274.2,112.8z"/>
<path class="st0" d="M300,99.8v13h-1.3v-6.1h-8.5v6.1H289v-13h1.3v5.7h8.5v-5.7H300z"/>
<path class="st0" d="M307.8,112.8V101h-4.9v-1.1H314v1.1h-5v11.9L307.8,112.8L307.8,112.8z"/>
<path class="st0" d="M328.3,106.4h-11c0,3.8,2.4,5.5,5.8,5.6c1.8,0,3.2-0.4,4.5-1l0.3,1.1c-1.5,0.7-3.2,1-4.7,1
	c-4.4,0-7.3-2.5-7.1-7.2c0.2-4,2.9-6.3,6.6-6.3C326.7,99.6,329,102.1,328.3,106.4z M327.2,105.3c0.3-3.1-1.8-4.6-4.7-4.6
	c-2.9,0-4.9,1.7-5.2,4.6H327.2z"/>
<path class="st0" d="M331.8,112.8v-13h8.7v1.2h-7.4v11.8H331.8z"/>
<path class="st0" d="M345,102.5c1-2.2,2.9-2.9,5.2-2.9c3.8,0,5.9,3.2,5.9,6.8c0,6.2-6.2,8.6-10.9,5.1v8.2h-1.3v-15.8
	c0-2,0.2-3.3-1.7-3l-0.1-1.1c2.2-0.4,2.8,0.6,2.8,2.4v0.3H345z M345.1,110c4,3.3,9.6,1.8,9.6-3.8c0-2.9-1.6-5.6-4.8-5.6
	c-2.9,0-4.7,2.2-4.8,5L345.1,110L345.1,110z"/>
<path class="st0" d="M363,113.1c-2.3,0-4.6-1.5-4.6-3.9c0-2.9,2.4-4.4,5-4.4c1.6,0,3.3,0.4,4.8,1.1v-2c0-2.5-2.3-3.2-4.4-3.2
	c-1.5,0-3.1,0.4-4.2,1l-0.3-1.1c1.2-0.7,2.9-1.1,4.6-1.1c2.8,0,5.5,1.1,5.5,4.4v5.9c0,1.6-0.1,2.5,1.6,2.2l0.1,0.9
	c-2.2,0.4-2.8-0.4-2.7-2.5C367.5,112.4,365.2,113.1,363,113.1z M368.3,107c-1.4-0.8-3.1-1.2-4.7-1.2c-1.9,0-4,1.1-3.9,3.2
	c0.1,2,1.8,2.9,3.6,2.9c2.1,0,4.5-0.9,5-3.2V107z"/>
<path class="st0" d="M377.4,112.8V101h-4.9v-1.1h11.1v1.1h-5v11.9L377.4,112.8L377.4,112.8z"/>
<path class="st0" d="M385.6,106.3c0-9,13.7-9,13.7,0C399.2,115.3,385.6,115.3,385.6,106.3z M397.9,106.3c0-7.4-11-7.4-11,0
	C386.8,113.7,397.9,113.7,397.9,106.3z"/>
<path class="st0" d="M404.3,102.5c1-2.2,2.9-2.9,5.2-2.9c3.8,0,5.9,3.2,5.9,6.8c0,6.2-6.2,8.6-10.9,5.1v8.2h-1.3v-15.8
	c0-2,0.2-3.3-1.7-3l-0.1-1.1c2.2-0.4,2.8,0.6,2.8,2.4v0.3H404.3z M404.5,110c4,3.3,9.6,1.8,9.6-3.8c0-2.9-1.6-5.6-4.8-5.6
	c-2.9,0-4.7,2.2-4.8,5L404.5,110L404.5,110z"/>
</svg>
