<svg width="204" height="56" viewBox="0 0 204 56" fill="none" xmlns="http://www.w3.org/2000/svg">
<path d="M32.0513 55.0049H23.2695C21.7577 55.0001 20.3091 54.4009 19.2401 53.3381C18.1711 52.2753 17.5684 50.8351 17.5636 49.3321V37.5461H5.72399C4.2085 37.5461 2.75486 36.9486 1.68183 35.8846C0.60881 34.8206 0.00398813 33.377 0 31.8703V23.1394C0.00398813 21.6327 0.60881 20.1891 1.68183 19.1251C2.75486 18.0611 4.2085 17.4636 5.72399 17.4636H17.5636V5.6777C17.5684 4.17463 18.1711 2.73448 19.2401 1.67165C20.3091 0.608814 21.7577 0.00962189 23.2695 0.00488281L32.0513 0.00488281C33.5663 0.0048753 35.0195 0.601971 36.0924 1.66532C37.1654 2.72866 37.7705 4.17153 37.7753 5.6777V17.4636H49.63C51.1424 17.4684 52.5914 18.068 53.6605 19.1315C54.7296 20.1949 55.3319 21.6359 55.3359 23.1394V31.8703C55.3359 33.3765 54.7354 34.8213 53.6658 35.888C52.5963 36.9547 51.145 37.5563 49.63 37.5611H37.7603V49.347C37.7555 50.8532 37.1503 52.2961 36.0774 53.3594C35.0044 54.4228 33.5512 55.0199 32.0363 55.0198L32.0513 55.0049ZM5.72399 20.0724C5.31814 20.0708 4.91598 20.149 4.54065 20.3025C4.16531 20.456 3.8242 20.6818 3.53694 20.9668C3.24969 21.2519 3.02194 21.5906 2.86682 21.9634C2.71169 22.3363 2.63224 22.7359 2.63304 23.1394V31.8703C2.63382 32.2728 2.71444 32.6712 2.87028 33.0427C3.02612 33.4141 3.25411 33.7514 3.54121 34.0352C3.82832 34.3189 4.16889 34.5436 4.54344 34.6964C4.91798 34.8491 5.31916 34.9269 5.72399 34.9254H20.1846V49.3321C20.1862 50.1418 20.5104 50.918 21.0864 51.4906C21.6623 52.0631 22.443 52.3855 23.2575 52.3871H32.0393C32.854 52.3863 33.6352 52.0642 34.2113 51.4914C34.7874 50.9187 35.1114 50.1421 35.1122 49.3321V34.9254H49.6029C50.4174 34.9238 51.1981 34.6014 51.774 34.0288C52.3499 33.4562 52.6742 32.6801 52.6758 31.8703V23.1394C52.6774 22.3297 52.3562 21.5523 51.7825 20.9774C51.2088 20.4026 50.4294 20.0772 49.6149 20.0724H35.1242V5.6777C35.1234 4.86769 34.7994 4.09109 34.2233 3.51833C33.6472 2.94556 32.8661 2.62344 32.0513 2.62265H23.2695C22.8652 2.62186 22.4647 2.70026 22.0908 2.85336C21.717 3.00647 21.3771 3.23128 21.0906 3.51497C20.8042 3.79866 20.5767 4.13566 20.4213 4.50675C20.2658 4.87783 20.1854 5.27572 20.1846 5.6777V20.0724H5.72399Z" fill="#00997B"/>
<path d="M197.195 32.4272C198.809 32.4272 199.523 32.9843 199.523 35.0839V35.4852C199.523 37.3392 198.903 38.1809 197.815 38.1809H193.872V32.4272H197.195ZM198.098 41.3228C199.403 41.3228 199.993 42.3741 199.993 43.9795L200.023 44.8121C199.993 46.3097 199.343 47.3131 197.788 47.3131H193.872V41.3378L198.098 41.3228ZM197.818 50.6796C202.075 50.6796 203.97 48.583 204 45.3992V43.7638C204.033 41.817 202.976 40.1187 201.641 39.5017C202.946 38.6661 203.629 36.9049 203.629 35.7009V34.4669C203.629 30.6061 201.361 29.0756 197.134 29.0756H189.795V50.6946L197.818 50.6796ZM177.188 37.4441C177.591 35.9285 177.872 34.0146 177.935 33.6432C178.083 34.93 178.343 36.2017 178.712 37.4441L180.264 43.0031H175.603L177.188 37.4441ZM173.431 50.6916L174.702 46.1839H181.164L182.439 50.6916H186.602L179.736 29.0576H176.163L169.267 50.6766L173.431 50.6916ZM164.489 37.0607C164.489 39.6874 163.495 40.7657 161.754 40.7657H158.332V32.4901H161.748C163.489 32.4901 164.483 33.5384 164.483 36.1352V37.0607H164.489ZM158.338 44.1322H161.748C165.911 44.1322 168.46 41.8469 168.46 37.5848V35.608C168.46 31.3459 165.911 29.0606 161.748 29.0606H154.262V50.6796H158.332V44.1322H158.338ZM150.478 47.2232H147.992V29.0576H135.779C135.779 38.2617 135.779 42.8653 134.255 47.2202H132.393V55.0076H136.12V50.6796H146.745V55.0046H150.472V47.2172L150.478 47.2232ZM137.99 47.2232C139.635 43.1139 139.575 38.2647 139.512 32.52H143.955V47.2232H137.99ZM122.481 41.3378C124.129 41.3378 125.217 41.9368 125.217 43.686V44.6324C125.217 47.2292 123.476 47.6276 121.581 47.6276C119.819 47.5692 118.084 47.1916 116.459 46.5134V49.6942C118.011 50.5928 120.249 51.0241 122.114 51.0241C126.401 51.0241 129.227 49.4486 129.227 45.1566V43.4553C129.227 41.5115 128.202 40.0888 126.554 39.5047C127.269 39.1304 127.863 38.5641 128.269 37.8704C128.676 37.1767 128.878 36.3835 128.853 35.5811V34.1494C128.853 30.1628 126.401 28.7132 122.114 28.7132C120.282 28.7012 118.467 29.0472 116.769 29.7315V32.9214C118.323 32.4012 119.95 32.1303 121.59 32.1187C123.485 32.1187 124.759 32.4601 124.759 34.7754V35.7937C124.759 37.6477 123.828 38.1719 122.49 38.1719H119.541V41.3527L122.49 41.3228L122.481 41.3378ZM109.56 37.0757C109.56 39.7024 108.566 40.7807 106.825 40.7807H103.408V32.4901H106.825C108.566 32.4901 109.56 33.5384 109.56 36.1352V37.0607V37.0757ZM103.408 44.1472H106.825C110.988 44.1472 113.537 41.8619 113.537 37.5998V35.623C113.537 31.3609 110.988 29.0756 106.825 29.0756H99.3384V50.6946H103.408V44.1322V44.1472ZM90.6409 44.1802C90.6409 46.8039 89.1165 47.6396 87.327 47.6396C85.5375 47.6396 83.974 46.8039 83.974 44.1802V35.5781C83.974 32.9543 85.4954 32.1187 87.327 32.1187C89.1587 32.1187 90.6409 32.9543 90.6409 35.5781V44.1652V44.1802ZM94.6477 35.0989C94.6477 30.7739 91.385 28.7372 87.315 28.7372C83.2449 28.7372 79.922 30.7739 79.922 35.0989V44.6324C79.922 48.9574 83.2359 51.0271 87.315 51.0271C91.3941 51.0271 94.6477 48.9574 94.6477 44.6324V35.0839V35.0989ZM77.0962 32.4751V29.0576H65.6934V50.6766H69.7634V32.4601L77.0962 32.4751Z" fill="#00997B"/>
<path d="M171.162 21.6239V0.00488281H167.683L160.66 13.8095V0.00488281H156.623V21.6239H160.103L167.122 7.94204V21.6239H171.162ZM153.517 21.6239L146.215 10.5418L153.174 0.00488281H148.67L142.021 10.413V0.00488281H137.951V21.6239H142.021V11.0001L148.824 21.6239H153.517ZM121.487 21.6239H133.821V18.2274H125.557V12.3269H132.254V8.96039H125.557V3.43134H133.604V0.00488281H121.487V21.6239ZM113.007 3.40139H118.038V0.00488281H103.936V3.40139H108.97V21.6239H113.007V3.40139ZM96.4191 21.6239H100.456V0.00488281H86.2274V21.6239H90.2674V3.46428H96.4191V21.6239ZM78.8646 21.6239H83.028L76.1622 0.00488281H72.6043L65.6934 21.6239H69.8568L71.1312 17.1132H77.5932L78.8646 21.6239ZM76.6925 13.9323H72.0319L73.6166 8.37334C74.0203 6.86079 74.3004 4.94689 74.3607 4.57549C74.5112 5.86102 74.7713 7.13153 75.1379 8.37334L76.6925 13.9323Z" fill="#00997B"/>
</svg>
