<svg width="207" height="103" viewBox="0 0 207 103" fill="none" xmlns="http://www.w3.org/2000/svg">
<path d="M145.257 74.6323C145.358 72.1691 144.973 70.009 144.988 67.829C144.996 66.5601 145.003 65.2979 145.348 64.0621C145.498 63.5271 145.707 63.0185 146.03 62.5663C146.658 61.6801 147.851 61.2113 148.884 61.4796C149.976 61.7629 150.509 62.5547 150.692 63.6149C150.921 64.945 150.627 66.2537 150.463 67.559C149.668 73.8421 148.846 80.122 148.015 86.4001C147.827 87.8181 147.648 89.246 147.326 90.6358C146.825 92.7893 145.076 93.7815 142.985 93.1902C142.482 93.0477 141.902 92.8638 141.9 92.2178C141.899 91.5767 142.449 91.3349 142.975 91.267C143.514 91.1974 143.633 90.8793 143.735 90.4503C144.24 88.2985 144.439 86.102 144.657 83.9104C144.971 80.7316 145.195 77.5444 145.257 74.6323Z" fill="#C2223C"/>
<path d="M144.439 58.791C141.87 58.791 139.951 56.8711 139.892 54.4045C139.833 52.049 142.607 49.4648 144.582 49.5659C147.166 49.6967 149.341 51.7524 149.328 54.2604C149.313 56.7054 147.063 58.791 144.439 58.791Z" fill="#C2223C"/>
<path d="M108.46 79.4163C110.043 77.8774 111.243 76.0602 112.247 74.1171C113.506 71.6804 114.541 69.1575 114.684 66.3729C114.739 65.2929 114.734 64.1234 113.657 63.4906C112.561 62.8462 111.403 63.108 110.339 63.6977C109.292 64.2791 108.581 65.2001 107.988 66.209C106.76 68.2928 106.027 70.5755 105.333 72.8698C104.783 74.6886 104.452 76.5638 103.862 78.3743C103.537 79.3716 102.968 79.948 101.893 80.0905C100.494 80.2744 99.0984 80.4665 97.686 80.4765C96.6641 80.4831 95.6406 80.5311 94.6236 80.3274C93.306 80.0623 92.9338 79.3517 93.4838 78.1126C93.7214 77.5776 94.0487 77.1038 94.4126 76.6499C95.6555 75.0928 96.7671 73.4462 97.6544 71.6638C98.5667 69.8334 99.4174 67.9665 99.3676 65.8578C99.3277 64.1333 98.0432 63.368 96.4431 64.0687C96.0576 64.2377 95.727 64.4762 95.4196 64.7595C94.7599 65.3658 94.2631 66.0913 93.8344 66.8682C92.3838 69.5021 91.4915 72.343 90.9 75.2618C90.5394 77.0442 89.8299 78.5731 88.6867 79.9696C87.5319 81.3792 86.4352 82.837 85.1658 84.1489C83.235 86.1417 81.2128 88.0285 78.521 88.9694C75.2244 90.1223 72.5791 88.9147 71.2697 85.6994C68.7574 79.5273 72.1255 70.6931 78.1106 67.7578C79.4515 67.1002 80.8572 66.7506 82.361 66.8997C83.9428 67.0554 84.3798 67.7478 83.7966 69.1625C83.2798 70.4115 83.5723 71.9073 84.5128 72.8416C85.4449 73.7676 86.6978 73.9697 88.0404 73.4131C89.9063 72.6395 90.8418 70.6004 90.3035 68.2663C89.5175 64.8556 87.2162 62.8926 83.9528 61.9534C81.2543 61.1781 78.5509 61.6304 75.909 62.2184C72.0989 63.0666 68.8089 65.066 65.6103 67.2161C65.258 67.453 64.949 67.7727 64.4688 67.9052C64.5319 67.2989 64.6067 66.7539 64.6432 66.2056C64.7778 64.2013 65.3395 62.3824 66.3962 60.6166C68.6627 56.8282 70.5287 52.8277 71.8712 48.6102C72.923 45.3038 73.6508 41.9527 73.1058 38.4459C72.6123 35.2704 70.2346 34.1423 67.4846 35.8038C66.8648 36.1781 66.3264 36.6486 65.8595 37.2035C64.5552 38.7523 63.7576 40.5662 63.1378 42.4596C61.3749 47.8515 60.7717 53.434 60.4626 59.0595C60.4277 59.6873 60.2799 60.2488 59.9625 60.7806C59.3344 61.8341 58.5584 62.7717 57.5897 63.5221C56.1125 64.6667 54.4576 64.9865 52.668 64.3719C51.4085 63.9379 50.812 62.9241 50.3185 61.7579C49.8815 60.7243 50.2255 59.9507 50.7455 59.0793C52.7694 55.6885 54.6154 52.2081 55.5592 48.3352C55.9215 46.8493 56.1192 45.3403 55.649 43.8444C55.2153 42.4662 53.979 41.898 52.6115 42.3751C52.02 42.5805 51.5481 42.9516 51.1377 43.4121C50.4116 44.2271 49.8898 45.168 49.511 46.1785C47.8926 50.4854 47.2827 54.9712 47.1515 59.5415C47.1415 59.9192 47.208 60.2985 46.9521 60.6514C45.8438 62.1754 44.6375 63.6099 43.142 64.7744C42.6734 65.1389 42.1318 65.707 41.5402 65.3774C40.9204 65.0312 41.2112 64.2775 41.2993 63.7027C41.7729 60.5636 42.6984 57.5289 43.4577 54.456C44.3367 50.9028 45.3736 47.3811 45.7375 43.7202C46.1246 39.8258 43.7036 37.1422 39.7955 37.0942C37.6421 37.0677 35.6531 37.6773 33.7556 38.6463C33.4316 38.812 33.1059 38.976 32.6988 39.1814C32.7187 38.9114 32.7187 38.7755 32.7387 38.643C33.4748 33.7116 34.2275 28.7818 34.9353 23.8454C35.0649 22.9377 35.3773 22.2171 36.027 21.5396C37.9644 19.5203 39.6443 17.2956 40.9753 14.8274C42.6352 11.7496 43.7817 8.51942 43.5109 4.95793C43.3447 2.78293 42.705 0.839849 40.3688 0C39.759 0 39.1508 0 38.541 0C37.6654 0.230255 36.9043 0.646038 36.3344 1.36662C35.6964 2.17168 35.1646 3.04135 34.7559 3.9839C33.4366 7.02525 32.624 10.2223 32.3765 13.5005C32.1189 16.9096 30.5819 19.3198 27.6093 20.92C26.8067 21.3524 26.0274 21.8295 25.2099 22.237C22.1044 23.7808 18.9407 25.1557 15.4746 25.7007C14.8182 25.8034 14.4842 25.6361 14.1702 25.0381C13.2746 23.3352 12.1081 21.8328 10.508 20.7146C8.45094 19.2784 6.14795 19.3016 4.44813 20.7544C3.53757 21.5329 3.3498 22.7256 3.99451 23.7344C4.44647 24.4418 5.05129 25.0017 5.73421 25.4887C7.65503 26.857 9.79352 27.7415 12.0699 28.2948C12.708 28.4489 13.0868 28.7868 13.3477 29.345C13.9309 30.5957 14.4959 31.8546 14.9827 33.1484C15.7354 35.1445 16.4732 37.1439 17.1594 39.0952C15.1057 37.4603 12.7263 36.7728 10.0261 37.008C6.06321 37.3542 3.42458 39.5425 1.52702 42.8456C0.633073 44.4027 0.207701 46.0956 0 47.8565C0 49.8443 0 51.8305 0 53.8183C0.127944 53.9574 0.0747724 54.1314 0.0847421 54.2904C0.345615 58.2412 1.53699 61.8722 3.97125 65.0246C5.87046 67.4845 8.40276 68.9107 11.5631 68.7451C15.4962 68.538 18.2245 66.4525 19.8263 62.8943C21.129 59.9971 21.4996 56.9044 21.6524 53.7802C21.7538 51.7112 21.5544 49.6505 21.3434 47.5915C20.8632 42.9035 19.8313 38.3415 18.2711 33.8955C17.6978 32.2621 17.0265 30.6686 16.2422 29.0303C21.1839 28.9259 25.9045 28.2269 30.2795 26.0155C30.3991 26.254 30.3327 26.4147 30.3028 26.5737C29.3357 31.7271 28.4102 36.8871 27.4448 42.0405C27.3019 42.7992 27.0244 43.4502 26.5492 44.0499C24.5586 46.5711 23.3755 49.4733 22.6461 52.5643C22.1426 54.6979 22.0529 56.7834 23.7859 58.5228C24.2944 59.033 24.3044 59.7005 24.1797 60.388C23.7577 62.6955 23.4403 65.0196 23.0798 67.337C22.0346 74.0724 20.9363 80.7978 19.5355 87.4702C18.9241 90.3857 18.2677 93.2945 17.1877 96.089C16.8786 96.8908 16.4665 97.5252 15.6474 97.9327C14.7169 98.3949 14.5374 99.2729 15.0475 100.184C15.3101 100.654 15.6789 101.022 16.1575 101.271C17.6031 102.021 19.1301 102.173 20.6671 101.686C22.6826 101.049 23.6796 99.5097 23.9853 97.517C25.2847 89.0091 26.4927 80.4864 27.802 71.9786C28.4484 67.7793 29.1031 63.5834 29.7478 59.3841C30.4806 54.6117 31.2665 49.8493 31.9827 45.0736C32.0973 44.3099 32.4263 43.6689 32.9381 43.094C34.6678 41.146 36.8545 40.0676 39.41 39.6999C41.2926 39.4299 42.3511 40.49 42.0836 42.3586C41.9274 43.4535 41.6549 44.5203 41.3126 45.5738C40.0265 49.5362 38.3333 53.3644 37.3064 57.4129C36.7648 59.5481 36.2214 61.695 36.474 63.9346C36.8578 67.3437 39.8587 68.9819 42.9825 67.511C44.5029 66.7954 45.6178 65.6176 46.7029 64.3934C46.9105 64.1599 47.0368 63.8302 47.3808 63.7341C47.6201 64.0406 47.6599 64.3802 47.7829 64.685C48.4542 66.3348 49.5143 67.6104 51.1909 68.3425C53.2413 69.237 55.3133 69.2636 57.4302 68.6241C58.1314 68.4121 58.7944 68.0907 59.562 67.8688C59.3942 69.4541 59.2463 70.9598 58.9971 72.4523C58.9373 72.8101 58.7844 73.1348 58.5917 73.4429C56.6326 76.5555 54.9012 79.7907 53.3393 83.1169C52.2476 85.441 51.1776 87.7817 50.4681 90.2548C49.6223 93.2067 49.1703 96.1967 50.0909 99.2232C50.6674 101.12 51.7192 102.591 53.8295 103C53.9408 103 54.0505 103 54.1618 103C54.6055 102.743 55.0474 102.752 55.4911 103C55.6573 103 55.8234 103 55.9896 103C56.8403 102.586 57.7758 102.349 58.5053 101.683C59.778 100.525 60.5308 99.0674 60.9561 97.4457C61.8185 94.1542 62.091 90.7667 62.4566 87.399C63.0066 82.3284 63.4884 77.2512 63.9936 72.1774C64.0401 71.7119 64.2229 71.3806 64.6034 71.0774C66.0938 69.8881 67.6076 68.7285 69.1944 67.6683C69.4553 67.4944 69.6912 67.2443 70.1415 67.2492C69.9454 67.5325 69.7926 67.7462 69.6463 67.9649C66.4693 72.6842 64.7413 77.8111 65.2929 83.5576C65.7997 88.8302 70.733 92.8224 76.002 92.2708C78.8201 91.9759 81.1115 90.5911 83.225 88.8369C84.9348 87.4189 86.392 85.7574 87.7911 84.0446C87.9506 83.8491 88.1334 83.5145 88.4508 83.6785C88.6967 83.806 88.5937 84.1357 88.5671 84.3626C88.3793 85.8949 88.1517 87.4205 87.9706 88.9528C87.8077 90.3211 87.6083 91.701 88.0786 93.0477C88.3046 93.6954 88.7681 94.1012 89.5142 94.083C90.2569 94.0665 90.6773 93.6573 90.9 92.9914C91.121 92.3288 91.2207 91.638 91.1609 90.9555C90.89 87.8761 91.6178 84.9341 92.3423 81.9872C92.4469 81.5648 92.5865 81.53 92.9587 81.7139C93.964 82.2092 95.054 82.3715 96.159 82.4908C98.1812 82.7078 100.19 82.5736 102.201 82.345C102.993 82.2555 103.186 82.4709 103.07 83.2793C103.011 83.6884 102.95 84.0976 102.912 84.51C102.717 86.5757 102.621 88.6381 103.184 90.6673C103.882 93.1769 105.751 94.2917 108.305 93.7418C108.716 93.654 109.103 93.5148 109.457 93.2912C110.884 92.3884 111.843 91.093 112.504 89.574C112.75 89.0091 112.735 88.383 112.076 88.0782C111.461 87.7933 111.202 88.315 110.926 88.7358C110.578 89.2675 110.228 89.7993 109.701 90.1819C108.779 90.8528 108.02 90.6325 107.627 89.5707C107.445 89.077 107.353 88.5635 107.315 88.0368C107.162 85.9081 107.327 83.7961 107.612 81.6874C107.72 80.8591 107.817 80.0408 108.46 79.4163ZM108.108 75.227C108.481 72.444 109.136 69.7009 110.477 67.1581C110.736 66.6678 111.05 66.2156 111.477 65.8528C111.835 65.5497 112.243 65.3641 112.695 65.5811C113.149 65.7981 113.139 66.257 113.097 66.6662C112.976 67.8837 112.564 69.025 112.099 70.1448C111.381 71.8759 110.552 73.5523 109.48 75.0994C109.354 75.28 109.241 75.4771 109.083 75.6279C108.854 75.8482 108.666 76.2838 108.319 76.1596C107.945 76.0238 108.192 75.5782 108.108 75.227ZM96.3833 66.3133C96.5478 66.0648 96.7837 65.7484 97.1028 65.8561C97.5099 65.9936 97.3869 66.4276 97.3271 66.7225C96.797 69.305 95.7868 71.6936 94.3445 73.9001C94.2232 74.0873 94.0786 74.3871 93.7845 74.2828C93.5669 74.2049 93.7347 73.9366 93.625 73.7328C94.1883 71.1404 94.8845 68.5811 96.3833 66.3133ZM65.4159 54.5819C65.7731 50.7206 66.1703 46.8593 67.2785 43.1172C67.5992 42.0322 68.0495 40.9969 68.7075 40.066C68.882 39.8191 69.0764 39.5806 69.2974 39.3768C69.6414 39.0571 70.0086 38.7242 70.5386 38.9097C71.0654 39.0936 71.1651 39.5905 71.2382 40.0444C71.391 41.0085 71.2797 41.9742 71.0853 42.9185C70.193 47.2237 68.759 51.3418 66.7186 55.2429C66.5159 55.6305 66.25 55.9916 65.9659 56.3246C65.7117 56.6211 65.4541 56.5598 65.4259 56.149C65.3893 55.6288 65.4159 55.1054 65.4159 54.5819ZM35.7612 13.8136C36.13 10.8021 36.6817 7.83197 37.8631 5.01259C38.1206 4.39968 38.423 3.81328 38.8667 3.31136C39.1641 2.97509 39.4998 2.67692 40.0049 2.7879C40.5532 2.90883 40.8556 3.29479 40.9769 3.805C41.0717 4.20422 41.0899 4.62166 41.1381 5.00431C41.0285 7.229 40.2159 9.21018 39.2572 11.14C38.6806 12.3012 38.011 13.4127 37.1287 14.3768C36.8761 14.6535 36.5953 15.0212 36.1533 14.8191C35.7445 14.6319 35.713 14.1996 35.7612 13.8136ZM16.4433 62.7253C16.194 63.5171 15.7869 64.2427 15.2536 64.8887C14.2217 66.1361 13.1068 66.4492 11.5648 65.9489C10.2122 65.5099 9.22525 64.6121 8.44928 63.4658C6.79266 61.0208 6.18119 58.2329 5.82062 55.3688C5.67606 54.2192 5.61624 53.0613 5.62953 51.9017C5.65446 48.8239 5.98678 45.7975 7.14658 42.9102C7.46727 42.1134 7.87104 41.3597 8.42934 40.7037C9.87494 39.0025 11.8124 38.8368 13.5504 40.2498C14.5623 41.0715 15.2868 42.1266 15.7504 43.3144C18.2411 49.6969 18.5103 56.1755 16.4433 62.7253ZM49.702 56.9739C49.5425 55.488 49.7835 54.143 50.0045 52.7995C50.3484 50.7057 50.8037 48.64 51.6511 46.682C51.9153 46.0741 52.2144 45.4844 52.7162 45.0272C53.017 44.7522 53.3692 44.5418 53.7614 44.7456C54.1269 44.9344 54.1253 45.3469 54.097 45.6981C54.0206 46.6605 53.7913 47.5948 53.5022 48.5158C52.6929 51.095 51.6644 53.5831 50.4132 55.9784C50.2437 56.3047 50.0925 56.6575 49.702 56.9739ZM58.6714 81.3097C58.0899 86.0937 57.7609 91.1295 56.4914 96.0294C56.2837 96.8312 55.9979 97.6097 55.5476 98.3088C55.1704 98.8952 54.75 99.4816 53.9225 99.3772C53.0784 99.2695 52.7345 98.6103 52.5268 97.9129C52.0266 96.2381 52.113 94.5253 52.4155 92.8373C53.1964 88.4807 55.0242 84.5067 57.063 80.6222C57.3089 80.1534 57.5482 79.4196 58.1779 79.5836C58.8824 79.7658 58.6282 80.5344 58.6714 81.3097Z" fill="#C2223C"/>
<path d="M206.999 82.3067C206.71 82.0764 206.77 81.7153 206.691 81.4171C206.336 80.0605 205.726 78.8363 204.825 77.7645C202.664 75.1936 198.591 75.467 197.094 78.2731C196.411 79.5519 196.494 81.0196 197.305 82.0052C198.159 83.0438 199.455 83.4066 200.912 82.9146C201.7 82.6479 202.268 82.8914 202.75 83.4596C203.227 84.0228 203.478 84.6937 203.508 85.4325C203.573 87.0261 202.82 88.2353 201.657 89.2325C200.063 90.5975 198.177 91.2783 196.109 91.3562C192.498 91.492 189.158 90.5776 186.157 88.5302C185.9 88.3546 185.542 88.232 185.93 87.7914C187.799 85.6644 188.972 83.1366 189.984 80.5359C191.318 77.1069 192.132 73.5918 191.551 69.8713C190.848 65.3772 187.437 62.3971 182.882 62.4733C178.997 62.5379 175.86 64.3303 173.551 67.307C169.053 73.1048 167.673 79.6977 169.107 86.8753C169.191 87.2928 169.172 87.5909 168.852 87.9073C167.733 89.0188 166.598 90.1105 165.282 90.9917C164.334 91.6262 163.342 92.1911 162.187 92.3153C160.254 92.524 158.568 91.7107 159.266 89.1613C159.448 88.4921 159.713 87.8576 160.015 87.2398C160.681 85.8781 161.374 84.5297 162.034 83.1664C162.969 81.2333 163.98 79.3283 164.546 77.2394C165.277 74.5476 163.897 72.7536 161.092 72.6658C159.081 72.6029 157.297 73.2737 155.575 74.2064C155.306 74.3521 155.032 74.4896 154.557 74.7381C156.144 71.3903 157.993 68.5428 160.484 66.1325C161.319 65.3225 162.193 64.5539 163.355 64.2325C164.558 63.9012 165.321 64.3949 165.424 65.6306C165.485 66.3711 165.891 66.7388 166.545 66.8564C167.226 66.979 167.733 66.656 168.024 66.0448C168.318 65.4269 168.233 64.809 167.919 64.2176C167.077 62.6274 165.352 61.8472 163.578 62.2265C162.527 62.4501 161.599 62.9289 160.756 63.5666C156.861 66.5152 154.09 70.3732 151.88 74.6569C151.099 76.171 150.409 77.7463 150.104 79.4442C149.994 80.0522 149.903 80.68 150.674 80.9715C151.468 81.2714 152.048 81.066 152.475 80.2758C152.787 79.6944 153.01 79.0649 153.319 78.4818C154.447 76.3449 156.291 75.0909 158.578 74.5261C160.173 74.1335 161.015 75.1357 160.567 76.716C160.377 77.3819 160.098 78.013 159.758 78.6127C158.819 80.2675 157.853 81.9058 156.921 83.564C156.07 85.0797 155.28 86.6235 154.921 88.348C154.557 90.1055 155.027 91.5566 156.461 92.6781C158.388 94.1855 160.552 94.5218 162.886 93.9602C165.55 93.3191 167.7 91.7869 169.671 89.9763C170.101 89.5804 170.246 89.64 170.555 90.0873C171.96 92.1215 173.929 93.1088 176.412 93.0988C179.16 93.0872 181.427 91.8945 183.474 90.2115C183.931 89.8355 184.172 89.8554 184.642 90.1751C188.897 93.0723 193.566 94.265 198.663 93.2148C202.85 92.3517 205.738 89.9763 206.783 85.686C206.819 85.5385 206.779 85.3397 206.997 85.2851C206.997 85.1194 206.997 84.9538 206.997 84.7881C206.856 84.1255 206.856 83.4629 206.997 82.8003C206.999 82.6363 206.999 82.4723 206.999 82.3067ZM171.105 84.6241C170.814 83.5209 170.817 82.3945 171.095 81.2846C171.332 80.3321 171.839 79.8898 172.519 79.9727C173.168 80.0505 173.556 80.6916 173.517 81.7783C173.428 82.8517 172.939 83.9151 172.176 84.8461C171.681 85.4524 171.302 85.3745 171.105 84.6241ZM180.73 87.9007C179.183 89.9912 177.14 91.0365 174.511 90.7516C173.341 90.624 172.477 89.9664 171.876 88.9542C171.603 88.497 171.595 88.184 172.025 87.7582C173.426 86.3751 174.373 84.7152 174.822 82.7838C174.993 82.045 175.001 81.3028 174.93 80.564C174.784 79.0467 173.785 78.288 172.246 78.4586C171.931 78.4934 171.412 78.7767 171.605 78.008C172.544 74.2577 173.913 70.7062 176.45 67.7112C177.721 66.2104 179.232 65.031 181.239 64.6566C183.588 64.2176 186.207 65.9454 186.583 68.1684C186.672 68.7034 186.707 68.9867 185.953 68.7747C183.042 67.9597 181.073 68.9387 179.911 71.7282C179.019 73.8734 178.786 76.1428 178.715 78.3277C178.783 81.4022 179.453 84.2199 180.8 86.8621C181.015 87.2762 180.98 87.5644 180.73 87.9007ZM183.379 84.4519C182.708 85.5004 182.444 85.4673 181.887 84.3111C180.825 82.1079 180.715 79.7457 180.812 77.3686C180.872 75.8811 181.099 74.4101 181.687 73.0203C181.97 72.3544 182.327 71.7398 182.859 71.2379C183.505 70.6283 184.263 70.3285 185.134 70.6151C186.054 70.9165 186.584 71.5924 186.696 72.5614C186.745 72.9988 186.749 73.4411 186.78 74.0241C186.491 77.6751 185.441 81.2283 183.379 84.4519Z" fill="#C2223C"/>
<path d="M142.791 68.5481C142.826 65.4587 142.435 63.4063 141.704 62.0032C140.95 60.5571 139.807 59.6394 138.133 59.5416C136.236 59.4306 134.601 60.0386 133.283 61.4367C132.344 62.4339 131.647 63.5852 131.105 64.8292C129.731 67.9815 129.136 71.3144 128.98 74.7152C128.784 78.9791 129.008 83.2065 130.859 87.1722C131.018 87.5151 130.895 87.6493 130.621 87.8149C127.315 89.8243 122.963 89.3488 120.919 85.3451C119.54 82.6433 119.588 79.7676 119.852 76.8588C119.959 75.6777 120.294 74.6805 121.21 73.8042C122.225 72.8318 122.78 71.5364 122.742 70.0803C122.704 68.6491 121.748 67.6883 120.481 67.7612C119.621 67.8109 118.972 68.2582 118.455 68.9092C117.491 70.1234 116.985 71.548 116.587 73.019C116.468 73.4646 116.303 73.7512 115.773 73.8986C114.828 74.1603 114.59 75.2006 115.341 75.7439C115.83 76.0968 115.816 76.4297 115.727 76.9201C115.153 80.0509 115.082 83.175 116.13 86.2296C117.355 89.7978 119.607 92.3852 123.45 93.1687C126.755 93.8429 129.666 92.7231 132.308 90.8049C132.815 90.4372 133.089 90.3113 133.644 90.8331C135.053 92.1583 137.316 92.1897 138.657 91.0203C139.042 90.6856 139.391 90.2831 139.047 89.7348C138.717 89.2113 138.298 89.4615 137.888 89.6619C137.045 90.0744 136.267 89.917 135.58 89.324C135.118 88.9264 134.966 88.567 135.447 87.9541C140.094 82.0122 142.377 75.194 142.791 68.5481ZM134.051 84.8812C133.336 84.7454 133.184 84.0149 133.067 83.3887C132.771 81.7819 132.768 80.1536 132.73 78.4358C132.818 74.7136 133.077 70.9251 134.4 67.2957C134.971 65.727 135.736 64.266 136.965 63.0965C138.308 61.821 139.385 62.0612 140.024 63.8088C140.754 65.7999 140.754 67.8788 140.505 69.9395C139.893 75.0051 138.065 79.6367 135.246 83.8824C134.948 84.3246 134.686 85.0005 134.051 84.8812Z" fill="#C2223C"/>
<path d="M125.221 37.5234C123.993 36.064 122.401 35.4809 120.482 35.7691C122.09 31.8631 121.344 28.1873 118.581 26.052C116.469 24.4204 112.21 23.93 109.261 26.173C106.554 28.232 105.713 31.159 106.986 34.4919C108.342 38.0402 111.145 39.3008 116.63 38.7889C115.665 42.2626 117.273 45.1218 120.523 45.7926C123.393 46.3857 126.173 44.4111 126.508 41.5023C126.681 39.9982 126.183 38.6663 125.221 37.5234ZM116.65 35.4809C115.952 36.0226 115.13 36.2362 114.432 36.2777C113.54 36.2627 112.923 36.0573 112.69 35.3086C112.471 34.6013 112.817 34.0629 113.382 33.6836C114.234 33.1137 115.161 32.8139 116.201 33.1038C116.761 33.2595 117.089 33.6355 117.207 34.1954C117.325 34.752 117.057 35.1645 116.65 35.4809ZM122.64 44.1411C121.917 44.1312 121.439 43.6607 121.431 42.9517C121.421 42.0357 122.411 41.0683 123.321 41.1031C123.976 41.1296 124.509 41.7011 124.495 42.3637C124.475 43.2764 123.559 44.1544 122.64 44.1411Z" fill="#C2223C"/>
<path d="M99.739 40.5763C96.3559 40.5945 93.4564 43.5398 93.4415 46.972C93.4265 50.5352 96.1432 53.3744 99.5462 53.3529C103.117 53.3297 106.201 50.3729 106.184 46.9886C106.166 43.4735 103.235 40.5564 99.739 40.5763ZM97.524 50.7456C96.5437 50.7373 95.6049 49.7798 95.6431 48.829C95.6713 48.1084 96.1898 47.6529 96.9591 47.6728C97.8979 47.6976 98.835 48.6352 98.8184 49.5347C98.8068 50.2238 98.2419 50.7522 97.524 50.7456Z" fill="#C2223C"/>
</svg>
