<svg width="97" height="122" viewBox="0 0 97 122" fill="none" xmlns="http://www.w3.org/2000/svg">
<path d="M65.4174 55.5056C48.9411 55.5056 58.9489 75.4908 38.1705 75.4908C33.4412 75.4908 28.0101 74.1178 24.6233 72.4701C22.2129 71.3412 20.9314 72.4091 22.7316 76.5282C27.0337 86.353 39.5435 91.1738 49.6124 91.1738C63.3121 91.1738 75.7304 79.8845 75.7304 67.1306C75.7609 59.2281 70.5739 55.5056 65.4174 55.5056ZM45.7374 0.00488281C24.9894 0.00488281 8.17749 15.6879 8.17749 34.3C8.17749 49.5559 20.4127 67.6493 38.7807 67.6493C41.5268 67.6493 41.8014 65.7576 40.5199 63.6828C35.3329 55.5056 34.4786 43.7586 44.2118 35.1543C45.0661 44.0332 51.5041 49.983 62.2137 49.983C72.0384 49.983 80.8258 41.5313 80.8258 28.5943C80.8258 10.7755 64.7156 0.00488281 45.7374 0.00488281Z" fill="#E62627"/>
<path d="M21.8769 109.115V98.6797H0V109.115H4.63778V101.304H17.3917V109.115H21.8769ZM48.6967 98.6797H43.052L37.8955 103.195L31.5491 98.6797H25.9044L35.3936 105.209L30.6948 109.145H36.0953L48.6967 98.6797ZM72.2822 101.334V98.6797H51.0155V101.334H59.3757V109.145H63.9525V101.334H72.2822ZM81.8629 100.846V98.6797H77.2251V109.115H89.5823C93.7624 109.115 96.6 108.26 96.6 105.026V104.782C96.6 101.67 93.7319 100.846 89.5823 100.846H81.8629ZM91.8402 105.026C91.8402 105.972 91.3825 106.308 89.0636 106.308H81.8629V103.44H89.0636C91.352 103.44 91.8402 103.806 91.8402 104.752V105.026Z" fill="#252525"/>
<path d="M1.98326 116.041H4.02754C4.72931 116.041 7.23127 116.102 7.23127 118.817C7.23127 120.556 5.98029 121.35 4.02754 121.35H0V112.898H6.56001V114.546H1.98326V116.041ZM1.98326 119.702H3.60038C4.39368 119.702 5.09545 119.55 5.09545 118.756C5.09545 117.749 4.11908 117.688 3.6614 117.688H2.01377V119.702H1.98326Z" fill="#252525"/>
<path d="M14.1272 117.109C14.1272 115.156 14.6764 112.654 18.0022 112.654C20.9008 112.654 22.2738 114.546 22.2738 117.109C22.2738 119.671 20.9008 121.563 18.0022 121.563C14.6764 121.594 14.1272 119.092 14.1272 117.109ZM20.138 117.109C20.138 116.346 20.0465 114.271 18.0022 114.271C16.9038 114.271 15.8969 114.851 15.8969 117.109C15.8969 119.305 16.9038 119.946 18.0022 119.946C20.0465 119.946 20.138 117.841 20.138 117.109Z" fill="#252525"/>
<path d="M34.6612 112.898H37.0106L33.6238 116.773L37.1936 121.35H34.7527L31.7626 117.231H31.732V121.35H29.7488V112.898H31.732V116.437H31.7626L34.6612 112.898Z" fill="#252525"/>
<path d="M52.236 118.36C52.114 119.641 51.3817 121.594 48.3915 121.594C46.2252 121.594 44.2419 120.617 44.2419 117.292C44.2419 112.837 47.4762 112.684 48.3 112.684C51.2901 112.684 52.0529 114.546 52.114 115.797H50.1612C49.9781 114.393 48.8492 114.332 48.3915 114.332C47.9339 114.332 46.3778 114.423 46.3778 117.231C46.3778 118.817 47.11 119.977 48.4526 119.977C49.7646 119.977 50.1307 119.031 50.2222 118.39H52.236V118.36Z" fill="#252525"/>
<path d="M65.9358 116.254V117.81H61.8168V119.702H66.6071V121.35H59.803V112.898H66.485V114.546H61.8168V116.254H65.9358Z" fill="#252525"/>
<path d="M78.4453 112.898C80.1539 112.898 81.6185 113.539 81.6185 115.613C81.6185 118.268 79.4217 118.421 78.3843 118.421H76.4925V121.319H74.5093V112.898H78.4453ZM76.4925 116.803H78.0486C78.9945 116.803 79.4827 116.468 79.4827 115.644C79.4827 114.485 78.5063 114.546 78.0486 114.546H76.4925V116.803Z" fill="#252525"/>
<path d="M92.4199 112.898L95.5931 121.35H93.4878L92.9386 119.763H89.8874L89.3687 121.35H87.2634L90.4366 112.898H92.4199ZM92.4809 118.329L91.3825 115.095L90.2841 118.329H92.4809Z" fill="#252525"/>
</svg>
