<svg width="273" height="59" viewBox="0 0 273 59" fill="none" xmlns="http://www.w3.org/2000/svg">
<path d="M211.031 43.1231C211.031 40.5556 211.052 37.9934 211.026 35.4259C211.005 33.7019 211.815 32.8742 213.543 32.8795C216.187 32.89 218.831 32.8953 221.475 32.8742C222.869 32.8636 223.844 33.3803 223.892 34.8618C223.945 36.4223 222.98 37.0919 221.496 37.1024C219.843 37.1129 218.19 37.1498 216.537 37.0919C215.599 37.0602 215.26 37.3765 215.254 38.3203C215.254 39.2745 215.758 39.3747 216.505 39.3589C217.824 39.3378 219.149 39.3325 220.474 39.3641C221.873 39.3958 222.747 40.0706 222.731 41.531C222.715 43.0282 221.798 43.5871 220.389 43.566C219.133 43.5449 217.872 43.6187 216.621 43.5449C215.562 43.4816 215.302 43.9087 215.26 44.9104C215.069 49.3758 215.037 49.3758 219.451 49.3758C220.707 49.3758 221.968 49.3337 223.219 49.3969C224.512 49.4602 225.343 50.1034 225.343 51.4847C225.343 52.866 224.559 53.5408 223.229 53.5513C219.923 53.5777 216.616 53.5724 213.31 53.5566C211.784 53.5461 211.021 52.7658 211.031 51.2158C211.047 48.5165 211.031 45.8172 211.031 43.1231Z" fill="#1E1E21"/>
<path d="M84.2535 43.2444C84.2535 40.6769 84.28 38.1146 84.2429 35.5471C84.2217 34.0235 84.6668 32.8794 86.4155 32.9269C88.1429 32.9691 88.5668 34.1658 88.5244 35.6526C88.5085 36.243 88.4979 36.8388 88.5297 37.4293C88.5562 37.9248 88.3337 38.5311 89.0013 38.7947C89.6584 39.0531 90.2731 39.0373 90.8401 38.5259C92.0853 37.4082 93.1027 36.1323 93.6856 34.5507C94.2102 33.122 95.2541 32.5368 96.6477 33.0851C98.1367 33.6703 98.2055 34.8828 97.5856 36.2009C97.4743 36.4381 97.3736 36.6806 97.2835 36.9284C96.6901 38.5522 94.6023 39.7648 94.7613 41.1777C94.9255 42.5959 96.9921 43.5923 97.8611 45.0949C98.8997 46.8821 99.6469 48.7643 99.9754 50.794C100.193 52.149 99.6098 53.1559 98.2373 53.467C96.7642 53.7991 96.0807 53.0241 95.7998 51.6112C95.1216 48.2581 93.622 45.4165 90.4479 43.7189C89.2133 43.0546 88.3867 42.8964 88.4926 44.8049C88.6092 46.9032 88.5297 49.0121 88.5138 51.1156C88.5032 52.5865 87.8674 53.5355 86.2724 53.5039C84.7516 53.4722 84.2482 52.5075 84.2482 51.1367C84.2588 48.5059 84.2535 45.8752 84.2535 43.2444Z" fill="#1F1E21"/>
<path d="M147.978 17.5638C147.978 15.455 147.931 13.3461 147.999 11.2426C148.037 10.1512 147.724 9.66093 146.563 9.76637C145.779 9.84018 144.968 9.82437 144.184 9.73474C142.966 9.59239 142.277 8.87012 142.287 7.61536C142.298 6.45023 142.971 5.6436 144.084 5.62251C148.121 5.54343 152.159 5.54343 156.197 5.63305C157.32 5.65941 157.94 6.5504 157.919 7.68917C157.903 8.82267 157.262 9.50804 156.139 9.72947C156.011 9.75583 155.874 9.74529 155.746 9.77165C154.613 9.97726 153.055 9.16008 152.424 10.2303C151.899 11.1213 152.239 12.5342 152.239 13.7152C152.228 16.9417 152.212 20.1682 152.244 23.4C152.26 24.9553 151.937 26.2469 150.05 26.2206C148.291 26.1942 147.941 24.9816 147.973 23.4896C148.01 21.5179 147.978 19.5408 147.978 17.5638Z" fill="#1F1E21"/>
<path d="M272.99 43.2129C272.99 45.7066 272.969 48.2055 272.995 50.6992C273.011 52.2492 272.672 53.5198 270.796 53.5198C269.011 53.5198 268.698 52.302 268.703 50.831C268.724 45.7751 268.724 40.7139 268.703 35.658C268.698 34.1871 269.005 32.9481 270.77 32.927C272.624 32.9059 273.016 34.1607 273.001 35.7265C272.969 38.2202 272.99 40.7139 272.99 43.2129Z" fill="#212023"/>
<path d="M72.2454 9.15349C67.7519 6.07986 62.9882 3.50708 57.8005 1.80947C52.6341 0.122399 47.2981 -0.963652 42.0787 1.25063C39.6518 2.27868 37.4156 2.60555 34.8722 2.31559C33.4838 2.15743 32.387 1.47733 31.147 1.07665C29.3719 0.50199 27.5755 0.0907664 25.6997 0.101311C16.1882 0.148759 8.26631 4.42443 0.646471 9.48564C0.111281 9.84414 -0.27554 10.2501 0.249052 10.9355C0.800139 11.6577 1.33533 11.4521 1.93941 11.0093C4.02718 9.49091 6.23153 8.1518 8.53125 6.98139C14.1163 4.13973 19.8762 1.87273 26.3197 2.14688C28.5558 2.24178 30.7125 2.66882 32.5141 4.16609C29.0963 3.38582 25.6891 3.34892 22.2872 4.0712C14.7681 5.66864 8.19212 9.2853 1.93411 13.561C1.37242 13.9458 0.487504 14.2516 1.16576 15.2111C1.85992 16.197 2.49579 15.5907 3.15816 15.1215C6.67134 12.6331 10.3859 10.4768 14.3389 8.75809C18.6151 6.89704 23.0079 5.47885 27.7504 5.61065C29.8223 5.66864 31.873 5.91643 33.6163 7.27663C30.9139 6.81796 28.2326 6.72306 25.5408 7.21336C17.1208 8.74754 9.96726 12.9389 3.08927 17.7206C2.42161 18.1846 1.36182 18.6327 2.19905 19.6871C2.9515 20.6308 3.63506 19.7399 4.22324 19.3181C8.26101 16.4184 12.5001 13.8562 17.0572 11.8581C21.6355 9.84414 26.3409 8.33632 31.465 8.97424C32.4188 9.0955 33.3249 9.29057 34.5754 10.1288C31.8624 10.0287 29.7004 9.89159 27.5491 10.3239C18.6098 12.1111 11.1648 16.8507 3.97419 22.0807C3.39661 22.5024 2.35802 22.8873 3.10517 23.8995C3.9318 25.0172 4.62066 24.0524 5.24593 23.5779C9.05585 20.7152 13.0353 18.1108 17.3063 15.9809C21.9534 13.6611 26.7383 11.779 32.0796 11.9846C32.8586 12.0162 33.717 11.9003 34.8139 12.8598C31.6822 12.9283 29.0804 13.1445 26.5582 13.9406C18.986 16.3288 12.5425 20.6836 6.25802 25.3283C5.62215 25.7975 4.99688 26.2878 4.37691 26.7834C3.85761 27.1999 3.59267 27.6691 4.11196 28.2912C4.61536 28.8922 5.08166 28.771 5.64335 28.3492C6.24212 27.8958 6.70313 27.1893 7.70992 27.1208C7.61454 27.6954 7.55095 28.2016 7.44498 28.7024C6.54416 32.9095 7.52976 34.934 11.4722 36.6106C12.3041 36.9638 12.2723 37.5543 12.3465 38.1816C12.7174 41.2553 13.1042 44.3289 13.4327 47.4025C13.8249 51.0666 13.8037 51.0666 10.4283 52.4374C10.2428 52.5112 10.0679 52.6061 9.88248 52.6746C9.21481 52.9171 8.62134 53.1807 9.05055 54.0823C9.45327 54.9205 10.052 54.7466 10.7091 54.4671C11.3768 54.1824 12.1027 54.0085 12.7333 53.6552C13.9785 52.9646 14.8423 53.2756 15.8014 54.2932C17.7567 56.3756 20.2948 57.4986 23.0662 58.1049C27.2417 59.0169 31.3537 58.6584 35.4179 57.43C36.0326 57.2455 36.7321 56.692 36.8116 57.9098C36.8592 58.6268 37.1825 59.0433 37.9137 58.9959C38.8569 58.9431 38.8251 58.2103 38.8304 57.5408C38.841 55.9591 38.8887 54.3775 38.8304 52.8011C38.7827 51.6307 39.1961 51.4884 40.2346 51.8416C43.3769 52.9119 46.5933 53.0068 49.831 52.3161C52.9679 51.6466 55.4902 49.9437 57.6628 47.4394C58.2722 50.8399 56.852 52.9277 54.2397 54.4671C51.2829 56.2175 48.077 56.7605 44.7016 56.5918C43.9863 56.5549 43.3186 56.6023 43.2656 57.5091C43.2126 58.4001 43.8273 58.5688 44.5745 58.5899C48.4268 58.7164 52.2791 58.2894 55.3577 55.938C57.8588 54.0295 59.9996 52.4743 63.0624 54.5726C63.6029 54.9416 64.0904 54.5673 64.3394 54.0348C64.6785 53.3073 64.2546 52.954 63.6135 52.7168C62.808 52.4216 62.0344 52.0209 61.2078 51.7942C59.9678 51.4568 59.5545 50.7819 59.7241 49.4955C60.2275 45.7102 60.6514 41.9143 61.0647 38.1184C61.1601 37.259 61.3614 36.7687 62.3788 36.5262C64.7951 35.9463 65.9291 34.1643 66.1675 31.776C66.3265 30.1944 66.0669 28.6444 65.6323 27.0997C66.4272 27.0364 66.7663 27.6164 67.2432 27.9221C67.8685 28.3281 68.3931 29.2138 69.225 28.249C70.0993 27.2368 69.0713 26.8256 68.5256 26.4038C62.6067 21.8276 56.444 17.6363 49.4336 14.8315C49.1898 14.7314 48.9196 14.6839 48.6864 14.5627C48.236 14.3307 47.9446 13.9406 48.0823 13.445C48.2678 12.7543 48.8295 13.097 49.2322 13.1761C49.619 13.2499 49.9846 13.4239 50.3556 13.561C56.8997 15.907 62.6914 19.5764 68.2447 23.657C68.8382 24.0946 69.4634 24.9171 70.2424 23.9259C71.0425 22.9031 70.0304 22.5235 69.4582 22.0965C62.9935 17.3358 56.2745 13.0548 48.4056 10.8986C48.0294 10.7931 47.6478 10.6455 47.3299 10.4241C46.9908 10.1921 46.7735 9.74397 46.9166 9.38547C47.0967 8.92152 47.5842 9.13768 47.9499 9.21676C48.7288 9.37492 49.5078 9.53309 50.2708 9.73343C57.3501 11.6314 63.534 15.2744 69.4158 19.4921C70.0675 19.9613 70.6398 20.3672 71.2545 19.5342C71.848 18.7329 71.1856 18.3164 70.661 17.9473C63.3008 12.8018 55.6704 8.24669 46.5245 7.00248C46.1959 6.9603 45.8568 6.94449 45.5548 6.83377C45.1732 6.6967 44.7917 6.41201 44.8288 5.99551C44.8765 5.44194 45.4117 5.58429 45.772 5.57901C47.5683 5.54211 49.3435 5.71609 51.0974 6.10095C58.1397 7.64568 64.3076 11.0409 70.1841 15.0477C70.8094 15.4747 71.4399 16.2814 72.1818 15.2849C72.9395 14.2727 71.9539 13.8826 71.3552 13.4608C67.6671 10.8722 63.7883 8.6052 59.634 6.84432C54.1284 4.53514 48.5116 2.91661 42.4443 3.93412C42.1899 3.9763 41.9144 3.90776 41.9038 3.36474C45.152 1.82528 48.6069 1.86219 52.083 2.45794C59.0723 3.6547 65.2137 6.82323 71.0319 10.7035C71.6996 11.1516 72.3885 12.0637 73.178 10.9249C73.9198 9.85995 72.823 9.5489 72.2454 9.15349ZM35.9266 55.1103C31.5603 57.003 23.1298 57.6515 18.0958 53.7765C16.0504 52.1949 15.2715 50.2653 15.7007 47.4289C20.5916 52.8591 26.4204 53.6974 32.8851 51.9207C33.452 51.7625 33.9713 51.4251 34.5436 51.2933C35.2908 51.1246 35.7836 49.7961 36.6791 50.6343C37.3414 51.2512 36.6738 54.7835 35.9266 55.1103ZM44.8818 10.2395C45.9045 12.6173 46.3178 15.1584 46.5722 17.7259C46.6834 18.8383 46.7629 19.956 46.8318 21.0737C46.8742 21.7907 47.0332 22.4339 47.9181 22.4181C48.8772 22.4023 48.8666 21.6853 48.8189 20.9946C48.7606 20.072 48.7235 19.1494 48.6069 18.2373C48.4533 17.0247 48.7288 16.6768 49.9847 17.2198C54.3192 19.0756 58.2775 21.5429 62.3311 24.2791C61.5946 24.8169 60.2698 24.4531 60.4712 25.7342C60.6355 26.7781 61.478 26.5778 62.1774 26.6305C62.5961 26.6621 62.9299 26.8414 63.2054 27.1524C64.3394 28.4388 64.4083 32.4192 63.3061 33.732C62.9193 34.1959 62.4689 34.6862 61.8118 34.5228C60.964 34.3172 61.372 33.5475 61.3137 33.0203C61.2289 32.3033 61.2766 31.5704 61.2183 30.8482C61.1548 30.0204 61.2978 28.908 60.0261 29.0029C58.8709 29.0873 59.1624 30.1153 59.1889 30.8745C59.3001 33.906 59.3213 36.9216 58.7014 39.9267C56.8785 48.7469 48.7553 53.1386 40.4466 49.7486C38.5867 48.9894 38.7298 48.6309 39.3656 46.791C40.542 43.3852 42.6827 42.1884 46.2277 42.3888C48.7447 42.5311 51.1186 41.3713 53.3866 40.2483C54.0701 39.9109 55.0027 39.5946 54.3986 38.5191C53.8529 37.549 53.1587 38.1447 52.5387 38.4558C49.6561 39.9109 46.6092 40.6912 43.3716 40.6964C42.6351 40.6964 41.8296 40.8071 42.0151 39.6104C42.1529 38.7194 42.386 38.2871 43.5094 38.3503C46.9855 38.5401 48.7818 37.2907 48.8719 34.8391C48.8931 34.3383 49.052 33.6898 48.3102 33.5686C47.616 33.4526 47.1868 33.79 47.102 34.5333C46.8795 36.4577 45.523 36.7898 43.9333 36.6527C42.1529 36.5051 42.439 35.1449 42.4549 33.9798C42.4655 33.3893 42.5079 32.8041 42.5344 32.2136C41.872 29.4458 42.2323 26.641 42.3436 23.8679C42.4125 22.0754 41.7872 21.6642 40.24 22.1281C40.24 22.1439 40.24 22.1597 40.24 22.1756C40.2241 22.1808 40.2135 22.1861 40.1976 22.1967C39.9538 28.0856 41.0507 34.0167 39.9432 39.8634C38.5019 47.4605 34.3582 50.8768 27.2205 50.7661C20.3637 50.6607 15.7802 46.5063 14.5137 39.2888C14.0103 36.4155 13.8726 33.5369 14.2064 30.6425C14.2912 29.9361 14.3389 29.2718 13.4433 29.1084C12.3677 28.9133 12.2776 29.7094 12.214 30.4527C12.1292 31.5019 12.0497 32.551 12.0179 33.6002C11.9914 34.8022 11.292 34.76 10.5978 34.2592C8.87038 33.0097 9.06644 31.1329 9.32609 29.3825C9.52215 28.0592 9.7606 26.5198 11.7424 26.6199C12.4577 26.6568 12.8393 26.2983 12.8923 25.5708C12.9717 24.4215 11.8643 24.8327 11.2284 24.3108C13.242 22.6501 15.4569 21.3795 17.6613 20.1194C22.1601 17.5519 26.8231 15.3957 32.0743 14.879C34.586 14.6312 34.7238 14.7525 34.4588 17.2093C34.3264 18.4535 34.0879 19.6819 33.9395 20.9208C33.8654 21.5271 33.5209 22.339 34.5436 22.4761C35.4444 22.5973 35.826 22.0016 35.9584 21.1844C36.483 17.9315 36.7639 14.6576 36.6738 11.3572C36.642 10.1816 36.6685 9.00587 36.6685 7.55605C37.8342 9.14295 37.9826 10.8247 38.1469 12.4591C38.4224 15.2111 38.3588 17.9843 38.1575 20.7416C38.0303 22.5024 38.6927 22.8873 40.187 22.1861C40.187 22.1703 40.187 22.1492 40.187 22.1334C40.2029 22.1281 40.2135 22.1281 40.2294 22.1228C40.1393 18.2004 40.701 14.2463 39.8213 10.3555C39.5458 9.14822 39.1802 7.96727 38.7245 6.31184C40.8122 8.19397 41.3792 10.3503 41.8084 12.5435C42.3383 15.2691 42.492 18.037 42.4284 20.8048C42.4072 21.8171 42.651 22.4708 43.7637 22.5446C44.7228 22.1018 44.4685 21.2371 44.4738 20.4832C44.5268 15.6171 43.981 10.8617 41.8296 6.40673C41.8084 6.39619 41.7925 6.38565 41.7713 6.38037L41.8031 6.34874C41.8137 6.36983 41.819 6.39092 41.8296 6.40673C43.6154 7.07629 44.2247 8.72118 44.8818 10.2395Z" fill="#4B4544"/>
<path d="M181.599 42.7013C180.852 41.9684 180.592 41.4887 181.058 40.3973C182.357 37.3501 180.989 34.5822 177.837 33.4909C175.192 32.5736 172.474 32.8108 169.782 33.1377C168.532 33.2906 167.875 34.1446 167.901 35.5048C167.949 38.0724 167.917 40.6399 167.917 43.2074C167.917 45.8382 167.928 48.4742 167.912 51.105C167.901 52.2965 168.33 53.3403 169.57 53.4036C172.728 53.5776 175.929 53.9308 179.034 52.9924C183.861 51.532 185.192 46.2283 181.599 42.7013ZM172.066 37.93C172.124 36.5013 173.258 37.0865 174.17 36.8809C174.853 37.0285 175.712 37.1392 176.517 37.4081C177.084 37.5979 177.593 38.0196 177.333 38.763C177.105 39.4273 176.713 39.9598 175.897 39.8385C174.853 39.6803 173.82 39.4695 172.776 39.306C171.897 39.1637 172.045 38.4941 172.066 37.93ZM179.262 47.7888C179.045 48.8274 178.17 49.0067 177.317 49.149C176.734 49.2439 176.141 49.2966 175.553 49.3441C172.087 49.6024 172.087 49.6024 172.087 46.2388C172.087 43.0439 172.124 43.0281 175.251 43.8189C176.411 44.1142 177.519 44.5043 178.425 45.3109C179.161 45.9752 179.469 46.8082 179.262 47.7888Z" fill="#1E1D20"/>
<path d="M244.662 42.7595C243.888 41.9845 243.554 41.4678 244.068 40.2816C245.329 37.3714 243.914 34.5824 240.894 33.5069C238.255 32.5685 235.537 32.8163 232.845 33.1168C231.605 33.2539 230.874 34.05 230.895 35.426C230.932 38.0568 230.906 40.6875 230.906 43.3183C230.906 45.9491 230.911 48.5799 230.906 51.2106C230.9 52.4232 231.404 53.3775 232.654 53.4249C235.812 53.5409 239.008 53.9258 242.113 52.961C246.786 51.5059 248.116 46.2179 244.662 42.7595ZM235.023 37.9091C235.198 36.4962 236.268 37.1025 237.127 36.9074C237.794 37.034 238.6 37.0972 239.341 37.3503C239.956 37.5559 240.624 37.925 240.311 38.7843C240.046 39.5119 239.606 40.0496 238.674 39.7965C238.038 39.6226 237.391 39.438 236.74 39.3906C235.759 39.3062 234.848 39.3273 235.023 37.9091ZM242.235 47.6836C241.917 49.4708 240.248 49.0438 239.034 49.3021C238.78 49.3548 238.51 49.3548 238.245 49.3707C235.044 49.5763 235.044 49.5763 235.044 46.3498C235.044 42.9914 235.044 42.9862 238.303 43.8455C238.748 43.9615 239.198 44.0722 239.622 44.2567C241.138 44.9105 242.584 45.7171 242.235 47.6836Z" fill="#1E1D20"/>
<path d="M96.8259 14.2212C94.8653 12.9085 92.6397 12.3127 90.34 11.9226C89.6035 11.7961 88.4324 12.1704 88.4907 10.7522C88.5543 9.14948 89.8048 9.81377 90.5785 9.76104C92.0251 9.66087 93.4875 9.70832 94.9448 9.72414C96.3437 9.73996 97.3346 9.15475 97.3611 7.7102C97.3876 6.16548 96.3755 5.5381 94.8865 5.54864C92.2423 5.56446 89.5929 5.52755 86.9487 5.55919C84.8821 5.58555 84.2939 6.21293 84.2727 8.33231C84.2515 10.8998 84.2674 13.4673 84.2674 16.0348C84.2674 18.6023 84.2833 21.1699 84.2621 23.7374C84.2515 25.0238 84.7443 26.0729 86.0691 26.1362C88.9676 26.268 91.882 26.5052 94.7699 25.8831C97.6366 25.2663 99.5495 23.6846 100.037 20.7165C100.498 17.8273 99.1362 15.766 96.8259 14.2212ZM94.0545 21.7182C93.2915 21.8974 92.4967 21.9923 91.7124 22.0345C88.4536 22.2137 88.4536 22.1979 88.4536 18.9239C88.4536 15.5656 88.549 15.4813 91.8714 16.4302C93.1378 16.7887 94.4043 17.2158 95.2468 18.3282C96.3755 19.7938 95.8509 21.2964 94.0545 21.7182Z" fill="#1E1D20"/>
<path d="M195.905 16.0193C195.905 13.3886 195.879 10.7525 195.916 8.12173C195.937 6.37139 195.063 5.56476 193.372 5.58585C191.656 5.60167 189.923 5.54895 188.222 5.75456C182.584 6.4452 180.539 11.3535 184.078 15.7663C184.841 16.7152 184.836 17.1739 184.015 18.0122C182.526 19.5411 181.408 21.3283 181.084 23.5004C180.878 24.8817 181.445 25.8518 182.812 26.1786C184.189 26.5055 184.942 25.7305 185.196 24.4547C185.535 22.7676 186.579 21.5339 187.623 20.237C188.609 19.0086 189.658 19.3935 190.818 19.6887C192.122 20.0208 191.55 21.0384 191.634 21.7975C191.709 22.446 191.661 23.1103 191.65 23.7693C191.629 25.2402 192.217 26.2366 193.807 26.2314C195.423 26.2261 195.921 25.1875 195.905 23.7324C195.884 21.1543 195.9 18.5868 195.905 16.0193ZM191.332 15.2021C190.394 15.6766 189.356 14.8067 188.497 14.2374C187.915 13.8525 187.353 13.3253 186.998 12.7295C186.129 11.2744 186.675 10.2464 188.36 9.95642C191.656 9.3923 191.656 9.3923 191.656 12.777C191.486 13.5256 192.148 14.7857 191.332 15.2021Z" fill="#1E1D20"/>
<path d="M205.22 50.3351C204.187 46.671 203.164 42.9963 202.094 39.3428C201.654 37.8349 201.251 36.2955 200.329 34.9722C198.326 32.0936 194.866 32.1411 193.017 35.1093C192.572 35.8263 192.195 36.6224 191.952 37.429C190.622 41.8945 189.323 46.3757 188.052 50.8623C187.691 52.1223 188.136 53.1082 189.466 53.4509C190.733 53.783 191.893 53.3244 192.063 52.0221C192.36 49.7288 193.695 49.3597 195.624 49.5917C196.276 49.6708 196.949 49.6655 197.606 49.5917C199.561 49.3703 201.082 49.5706 201.378 52.0485C201.522 53.2347 202.634 53.667 203.842 53.4351C204.892 53.2347 205.406 52.5441 205.464 51.4C205.4 51.0995 205.326 50.7147 205.22 50.3351ZM195.237 45.4057C194.447 45.5955 193.955 45.237 194.225 44.3038C194.919 41.9366 195.422 39.5062 196.721 36.8543C198.03 39.6011 198.533 42.1053 199.259 44.5305C199.28 44.5938 199.317 44.6834 199.291 44.7203C198.183 46.2703 196.583 45.0788 195.237 45.4057Z" fill="#1E1D20"/>
<path d="M122.501 51.0526C122.299 50.1563 121.976 49.2864 121.722 48.4007C120.636 44.6101 119.629 40.7931 118.442 37.0341C117.552 34.2188 115.92 32.9113 112.878 32.8955C111.087 32.9377 109.911 34.804 109.238 36.9234C107.844 41.3045 106.694 45.7647 105.359 50.1669C104.93 51.5851 104.765 52.8557 106.434 53.404C108.141 53.9628 109.147 52.998 109.375 51.4058C109.614 49.7451 110.541 49.4024 111.988 49.5922C112.443 49.6502 112.91 49.5922 113.376 49.6028C115.623 49.6449 118.24 48.8172 118.686 52.4497C118.818 53.5463 120.159 53.6939 121.176 53.3723C122.257 53.0296 122.755 52.1861 122.501 51.0526ZM112.671 45.3904C112.078 45.5644 110.976 45.6645 111.294 44.4519C111.924 42.0215 112.549 39.5753 113.763 36.8601C115.209 39.5647 116.153 42.1375 116.227 44.589C116.275 46.4501 113.901 45.0371 112.671 45.3904Z" fill="#1E1D20"/>
<path d="M157.76 36.3063C157.013 34.3714 155.72 32.911 153.372 32.9005C150.977 32.8847 149.912 34.5085 149.059 36.3748C148.842 36.8493 148.662 37.3502 148.513 37.851C147.289 42.0792 146.076 46.3074 144.862 50.5409C144.497 51.822 144.608 52.9608 146.07 53.4195C147.543 53.8782 148.704 53.2086 148.889 51.7693C149.154 49.6816 150.352 49.4022 152.053 49.5972C152.577 49.6552 153.113 49.6341 153.637 49.6025C155.773 49.4707 157.818 49.2914 158.205 52.3071C158.343 53.3773 159.556 53.6884 160.632 53.4195C161.628 53.1717 162.206 52.5074 162.184 51.1841C160.595 46.4182 159.652 41.2199 157.76 36.3063ZM155.82 45.2056C155.651 45.5061 151.258 45.543 150.977 45.2794C150.68 45 150.813 44.6942 150.903 44.3779C151.608 42.0001 152.143 39.5697 153.399 36.8335C154.729 39.5486 155.275 42.0212 155.921 44.4569C155.985 44.6889 155.932 44.9947 155.82 45.2056Z" fill="#1F1D20"/>
<path d="M140.177 23.6476C138.672 18.813 137.687 13.8309 135.891 9.08604C135.154 7.14063 133.882 5.64863 131.561 5.58537C129.182 5.5221 127.958 7.0721 127.195 8.99114C125.293 13.7677 124.339 18.8341 122.855 23.7425C122.426 25.1554 123.412 26.2151 124.858 26.2467C126.04 26.2731 126.803 25.6088 126.951 24.5491C127.232 22.5404 128.361 21.9921 130.21 22.2505C130.925 22.3506 131.673 22.3348 132.388 22.2557C134.354 22.0238 135.832 22.261 136.171 24.7125C136.346 25.9726 137.528 26.4892 138.794 26.1149C139.965 25.7511 140.548 24.8443 140.177 23.6476ZM134.131 17.5267C132.791 18.7076 131.18 17.9062 129.701 18.0644C128.785 18.1593 128.912 17.4107 129.081 16.8149C129.744 14.4952 130.268 12.1333 131.498 9.56053C132.865 12.2335 133.315 14.7483 134.057 17.1576C134.099 17.2789 134.184 17.4845 134.131 17.5267Z" fill="#1E1D20"/>
<path d="M175.726 15.7184C174.242 13.8257 172.218 12.5288 169.908 12.2336C167.56 11.9331 166.893 10.8945 167.243 8.79617C167.274 8.60637 167.237 8.40076 167.243 8.20569C167.274 6.78223 166.803 5.65927 165.202 5.61182C163.496 5.56437 162.961 6.67151 162.977 8.21096C163.003 10.7099 162.982 13.2089 162.987 15.7079C162.987 18.4019 162.977 21.1012 162.993 23.7953C162.998 25.1397 163.539 26.173 165.028 26.1993C167.137 26.2415 169.283 26.347 171.36 26.0517C176.706 25.2978 178.958 19.8412 175.726 15.7184ZM172.753 20.574C172.388 22.0977 170.968 21.9184 169.844 22.0238C167.253 22.2716 167.248 22.2295 167.248 18.887C167.428 18.1014 166.723 16.7518 167.592 16.2773C168.636 15.7079 169.881 16.4407 170.92 17.0154C172.303 17.7851 173.146 18.9344 172.753 20.574Z" fill="#1F1E21"/>
<path d="M265.269 43.2547C263.944 41.4147 262.069 40.3603 259.938 39.6802C256.817 38.6785 256.801 38.668 256.669 35.4045C256.611 33.9653 256.107 32.9214 254.502 32.9214C252.886 32.9214 252.382 33.9705 252.393 35.4204C252.414 38.0511 252.398 40.6872 252.398 43.318C252.398 45.8855 252.409 48.453 252.393 51.0152C252.382 52.7234 253.188 53.5827 254.936 53.53C256.918 53.472 258.921 53.588 260.876 53.3402C265.99 52.6917 268.252 47.4038 265.269 43.2547ZM262.148 47.8572C261.804 49.423 260.373 49.1805 259.26 49.2965C256.669 49.5707 256.664 49.5285 256.664 46.186C256.854 45.4004 256.128 44.0719 256.992 43.5816C258.041 42.9911 259.265 43.7608 260.309 44.3197C261.708 45.0736 262.508 46.2282 262.148 47.8572Z" fill="#1F1E21"/>
<path d="M114.711 5.83358C112.746 5.4909 110.759 5.54889 108.771 5.56998C107.033 5.58579 106.26 6.48205 106.276 8.16912C106.292 10.7366 106.281 13.3041 106.281 15.8716C106.281 18.5024 106.276 21.1385 106.281 23.7692C106.286 25.1927 106.774 26.2577 108.427 26.226C110.07 26.1944 110.525 25.1189 110.525 23.7007C110.525 23.1102 110.594 22.5039 110.515 21.924C110.308 20.432 110.827 19.7414 112.401 19.3723C115.268 18.7028 117.61 17.0948 119.014 14.4218C121.107 10.4519 119.152 6.60331 114.711 5.83358ZM115.448 12.313C115.22 13.1143 114.616 13.6732 113.954 14.095C113.021 14.6854 111.945 15.6555 110.923 15.1968C109.927 14.754 110.827 13.3885 110.441 12.5608C110.764 11.6329 109.969 10.357 111.002 9.9669C112.21 9.5135 113.641 9.72966 114.87 10.2411C115.766 10.6154 115.676 11.5169 115.448 12.313Z" fill="#1F1E21"/>
<path d="M137.698 33.3538C135.499 32.6948 133.236 32.9426 130.995 32.8951C129.14 32.8529 128.372 33.7808 128.393 35.5733C128.43 38.1408 128.404 40.7084 128.404 43.2759C128.409 43.2759 128.414 43.2759 128.42 43.2759C128.42 46.0384 128.393 48.8063 128.43 51.5689C128.446 52.8184 129.177 53.4985 130.444 53.5354C131.71 53.5723 132.457 52.8974 132.622 51.7007C132.738 50.8624 132.743 49.982 132.648 49.1384C132.489 47.7466 132.913 47.0718 134.407 46.7133C137.56 45.9488 140.093 44.209 141.397 41.1143C142.875 37.5978 141.344 34.4451 137.698 33.3538ZM137.618 39.3165C137.465 40.3129 136.765 40.9509 135.986 41.4412C135.059 42.0264 133.983 42.9754 132.961 42.464C132.171 42.0686 132.855 40.7558 132.611 39.9492C132.828 38.9949 132.161 37.6664 133.008 37.3078C134.169 36.8123 135.605 37.0442 136.866 37.4976C137.73 37.8087 137.735 38.5679 137.618 39.3165Z" fill="#1F1E21"/>
<path d="M30.5734 42.6589C26.4455 42.6694 23.0754 41.7995 19.8908 40.2179C19.2814 39.9174 18.3859 39.6485 18.9264 38.6468C19.398 37.7664 20.0762 38.0353 20.7863 38.3938C25.3327 40.6818 30.0594 41.3936 35.0192 39.9596C35.7398 39.7487 36.3757 39.7381 36.6035 40.5869C36.8473 41.4779 36.1902 41.6941 35.512 41.8944C33.7156 42.4216 31.8769 42.6325 30.5734 42.6589Z" fill="#4F4948"/>
<path d="M35.7787 26.189C36.8173 26.1785 37.7393 26.2206 38.6189 26.5844C39.1117 26.79 39.329 27.1433 39.2813 27.6652C39.223 28.2557 38.8521 28.4982 38.3222 28.3611C37.4055 28.1239 37.2518 28.572 37.0716 29.3417C36.8491 30.3118 36.0013 30.6439 35.0634 30.5438C34.2367 30.4541 33.5479 30.2433 33.6909 29.0834C33.7916 28.2346 33.1452 28.6194 32.7742 28.7934C32.1331 29.0939 31.5767 29.0518 31.2746 28.3822C30.9302 27.6283 31.5555 27.3331 32.0801 27.0536C33.2617 26.421 34.5282 26.0888 35.7787 26.189Z" fill="#4F4948"/>
<path d="M21.2793 30.0167C20.9561 29.9798 20.564 30.0483 20.4527 29.906C19.5466 28.7303 18.8365 27.4017 17.0137 27.3384C16.6905 27.3279 16.7223 26.4844 17.3634 26.1417C18.7994 25.3772 23.2876 25.7041 24.6759 26.69C25.4337 27.2277 25.3383 28.182 24.7448 28.1925C23.4413 28.2189 22.9379 29.1099 22.1642 29.7583C21.9311 29.9429 21.5443 29.9429 21.2793 30.0167Z" fill="#4F4948"/>
<path d="M29.0534 38.4202C26.298 38.4465 24.4169 36.8965 24.4698 34.6454C24.4804 34.1181 24.4116 33.5488 25.2011 33.5171C25.8158 33.4908 26.2185 33.7227 26.2821 34.3765C26.4357 35.937 27.2624 36.712 28.8785 36.6909C30.4205 36.6698 31.3902 36.1163 31.4962 34.4397C31.5439 33.7017 32.1374 33.475 32.7838 33.5646C33.5204 33.6648 33.425 34.2816 33.4038 34.7982C33.3084 36.9545 31.5704 38.3938 29.0534 38.4202Z" fill="#4F4948"/>
<path d="M30.6744 45.6851C30.4466 46.2809 30.1181 46.8028 29.3709 46.5498C28.2263 46.1544 27.0394 46.0753 25.8524 46.012C25.1742 45.9751 24.9092 45.6061 24.9516 44.9839C24.9887 44.4884 25.1742 44.0561 25.7676 44.0666C27.2302 44.0877 28.6768 44.2458 30.0439 44.7994C30.4148 44.947 30.738 45.1948 30.6744 45.6851Z" fill="#4F4948"/>
<path d="M52.8024 25.7143C53.8939 25.6722 54.8636 25.7776 55.8174 26.0781C56.3208 26.2363 56.6335 26.5052 56.5487 27.0587C56.4692 27.5912 56.093 27.9128 55.5896 27.8284C54.6888 27.6756 54.1854 27.7546 53.9787 28.8618C53.8092 29.8002 52.8554 30.1165 51.9333 29.9636C51.0643 29.816 50.3437 29.6473 50.8524 28.2977C51.1226 27.5859 50.19 27.9128 49.7873 28.1448C49.1143 28.5244 48.5155 28.6193 48.1923 27.7757C47.8956 26.9902 48.5632 26.7582 49.0878 26.5157C50.296 25.9516 51.5518 25.6194 52.8024 25.7143Z" fill="#4F4948"/>
<path d="M48.5593 45.0158C48.4109 46.3075 47.2876 46.1757 46.5881 46.0228C45.2952 45.7433 43.271 47.81 42.9054 45.7064C42.6086 44.0036 45.0779 44.4622 46.3444 44.1037C47.1339 43.8823 48.2626 43.6398 48.5593 45.0158Z" fill="#4F4948"/>
</svg>
