<svg width="208" height="65" viewBox="0 0 208 65" fill="none" xmlns="http://www.w3.org/2000/svg">
<path d="M13.8906 58.8496C13.9445 59.4708 13.9615 60.0436 14.0522 60.605C14.1598 61.2662 14.5509 61.7763 15.1658 62.0214C15.7636 62.2579 16.3927 62.503 17.0218 62.56C18.1354 62.6626 19.2603 62.6369 20.3796 62.6455C20.7451 62.6483 20.9831 62.7709 21.1871 63.0986C21.5357 63.6628 22.0004 64.0077 22.7428 64.0077C32.7822 63.9877 42.8245 63.9934 52.8639 64.002C53.3541 64.002 53.731 63.831 54.054 63.5032C54.2155 63.3408 54.36 63.1584 54.4847 62.9675C54.6406 62.731 54.8276 62.6341 55.1166 62.6426C55.9695 62.6597 56.8253 62.6654 57.6782 62.6398C58.5736 62.6113 59.4463 62.4574 60.2822 62.0983C61.053 61.7677 61.4497 61.175 61.5375 60.36C61.5715 60.0408 61.58 59.7216 61.5885 59.3996C61.6055 58.8553 61.6027 58.8524 61.0587 58.8524C45.5136 58.8524 29.9685 58.8524 14.4234 58.8524C14.2788 58.8496 14.1287 58.8496 13.8906 58.8496Z" fill="#EA1D19"/>
<path d="M36.7947 0.00488281C36.9449 1.15903 37.3472 2.13365 38.0415 2.98573C38.8122 3.929 39.804 4.6101 40.7872 5.29689C42.3684 6.40545 43.703 7.72489 44.5842 9.4775C45.1028 10.5091 45.3465 11.5607 45.0433 12.7063C44.9923 12.9029 44.9611 13.1081 44.9328 13.3104C44.9214 13.3845 44.9413 13.4615 44.9526 13.6154C45.1935 13.2734 45.3776 12.9998 45.576 12.7348C46.1625 11.9483 46.3014 11.0677 46.1767 10.113C46.0237 8.95029 45.5958 7.89303 44.8874 6.98965C43.9892 5.84405 43.0088 4.76684 42.0538 3.66968C41.1669 2.65231 40.314 1.6207 40.0958 0.215766C40.0817 0.133122 39.8805 0.0276809 39.7643 0.0219814C39.1154 0.00203305 38.4665 0.0105823 37.8148 0.0105823C37.4889 0.00488281 37.1631 0.00488281 36.7947 0.00488281Z" fill="#EA1D19"/>
<path d="M28.583 0.0334896C28.6652 0.788677 28.9145 1.40992 29.2489 1.99982C29.861 3.07418 30.7479 3.90061 31.6773 4.6843C32.7767 5.61617 33.9215 6.4996 34.9728 7.48277C36.6843 9.08433 37.3473 11.0479 36.7296 13.3733C36.7183 13.4132 36.7296 13.4559 36.7296 13.5813C37.5258 12.829 37.9367 11.9769 37.9764 10.9595C38.0387 9.36931 37.421 7.99002 36.5086 6.76178C35.7803 5.78146 34.9076 4.91228 34.0859 4.00321C33.0884 2.89465 32.1193 1.77469 31.8927 0.213024C31.8813 0.133231 31.7028 0.0249403 31.6008 0.0192408C31.1163 0.00499198 30.6345 0.0249403 30.15 0.0277901C29.64 0.0363394 29.1356 0.0334896 28.583 0.0334896Z" fill="#EA1D19"/>
<path d="M63.2944 18.3831C63.1952 18.0497 63.045 17.9329 62.6823 17.9329C46.1427 17.9443 29.6001 17.9414 13.0604 17.9414C12.9471 17.9414 12.8196 17.9129 12.7204 17.95C12.5986 17.9956 12.4314 18.0782 12.4002 18.1808C11.7768 20.3181 11.0713 22.4355 10.8162 24.664C10.7851 24.9461 10.666 24.986 10.4195 24.9689C9.87263 24.9347 9.32291 24.9006 8.77886 24.9234C6.52049 25.0145 4.50864 25.7384 2.88215 27.3656C1.49369 28.7534 0.669116 30.4576 0.295081 32.3726C-0.421818 36.0374 0.133566 39.4771 2.33527 42.5349C3.94192 44.7663 6.16629 45.8919 8.93755 45.815C10.6774 45.7665 12.2925 45.2336 13.8312 44.4528C14.1174 44.3074 14.259 44.3616 14.4149 44.6152C14.8909 45.3875 15.3556 46.1683 15.8714 46.9178C18.1524 50.2406 21.0427 52.9194 24.3891 55.1422C26.163 56.322 28.019 56.9433 30.1668 56.8663C32.7766 56.7751 35.392 56.8435 38.0017 56.8435C38.0017 56.8549 38.0017 56.8663 38.0017 56.8806C41.0337 56.8806 44.0685 56.892 47.1004 56.8692C47.5736 56.8663 48.095 56.8151 48.5087 56.6099C49.611 56.057 50.7019 55.4643 51.7277 54.7832C53.4817 53.6148 55.1648 52.3295 56.5901 50.765C59.5569 47.5134 61.5857 43.7033 62.9544 39.5312C63.7761 37.0291 64.3032 34.4644 64.561 31.8369C65.0087 27.2659 64.6205 22.7832 63.2944 18.3831ZM12.2075 40.1867C10.8106 40.9362 9.34842 41.4178 7.7361 41.1499C6.20313 40.8934 5.18587 39.9473 4.4973 38.6022C3.98159 37.5905 3.78324 36.5019 3.77474 35.1853C3.80874 33.7263 4.19128 32.2016 5.31338 30.9392C6.60266 29.4858 8.54651 29.2094 10.2637 29.6739C10.5499 29.7508 10.4904 29.9845 10.5074 30.1698C10.6037 31.2413 10.6632 32.3156 10.7851 33.3843C10.9976 35.248 11.4311 37.0633 12.0148 38.8444C12.1254 39.1836 12.216 39.5312 12.2925 39.8818C12.3152 39.9758 12.2755 40.1525 12.2075 40.1867ZM37.6419 23.9259C37.6419 23.8746 37.6532 23.8233 37.6589 23.772C37.7495 22.9998 37.9167 22.8487 38.9935 22.8715C39.7756 22.9114 40.7248 23.3702 41.6117 23.963C43.7228 25.3736 45.3124 27.2687 46.5819 29.4545C47.1089 30.3607 47.636 31.2669 48.1148 32.1988C48.3047 32.5664 48.3897 32.9939 48.469 33.4042C48.5115 33.6208 48.4719 33.8688 48.4067 34.0825C48.2027 34.7493 47.6133 34.9232 47.1656 34.4131C45.6439 32.6776 43.9211 31.1586 42.1898 29.6483C41.0082 28.6166 39.7784 27.6335 38.6421 26.5506C37.2622 25.2368 37.6362 25.7612 37.6419 23.9259ZM32.5754 51.429C31.9322 51.8337 31.2493 52.0075 30.5012 51.7368C29.2799 51.2951 28.0615 50.8505 26.8374 50.4145C26.5993 50.329 26.4945 50.1836 26.5257 49.9243C26.6192 49.1378 26.6419 48.337 26.8005 47.5619C27.2369 45.4331 27.4126 43.2787 27.5089 41.1157C27.5288 40.654 27.5769 40.1952 27.5826 39.7336C27.5883 39.2064 27.815 38.8102 28.1975 38.4654C28.6594 38.0465 29.1099 37.6133 29.5491 37.1716C30.1527 36.5618 30.7392 36.5162 31.3995 37.0833C32.5017 38.0294 33.3008 39.2149 33.9922 40.4774C34.9301 42.1929 35.562 44.0054 35.5903 45.6582C35.5875 48.3655 34.5674 50.1723 32.5754 51.429ZM49.7923 49.8303C49.5118 50.2093 49.2624 50.614 48.9961 51.0015C48.7722 51.3264 48.6107 51.3435 48.3245 51.0813C44.757 47.7955 41.1895 44.5069 37.6192 41.2211C34.0205 37.9097 30.4219 34.6011 26.8204 31.2926C26.4917 30.9905 26.1573 30.6941 25.8314 30.3892C25.4744 30.0558 25.2364 29.654 25.2081 29.1524C25.1089 27.414 25.1996 25.6956 25.7691 24.0314C25.8031 23.9345 25.8541 23.8461 25.8995 23.7549C26.2735 23.0226 26.2735 23.0226 27.4579 23.0938C29.1723 23.165 31.0509 23.8832 32.8304 24.9006C35.8454 26.6275 38.3304 28.99 40.62 31.5718C43.2241 34.5071 45.4796 37.696 47.4036 41.1186C48.1913 42.5235 48.9422 43.9512 49.6138 45.4131C49.9538 46.1569 50.1267 46.9891 50.291 47.7984C50.4384 48.5308 50.2457 49.2204 49.7923 49.8303Z" fill="#EA1D19"/>
<path d="M176.947 18.5484C177.117 18.2236 177.074 17.9699 177.077 17.722C177.083 16.8101 177.077 15.8981 177.08 14.9862C177.08 14.7611 177.046 14.5303 177.156 14.2937C177.239 14.2738 177.321 14.2339 177.406 14.2339C179.423 14.231 181.441 14.231 183.458 14.2339C183.523 14.2339 183.589 14.2567 183.645 14.2681C183.827 14.4134 183.776 14.6072 183.778 14.781C183.781 15.7842 183.778 16.7873 183.778 17.7904C183.778 18.0127 183.798 18.2378 183.81 18.4914C183.977 18.5228 184.104 18.5627 184.232 18.5655C185.071 18.5826 185.907 18.6054 186.742 18.6938C187.559 18.7821 188.358 18.9217 189.137 19.1725C190.936 19.751 192.092 20.9679 192.608 22.7974C192.843 23.6353 192.965 24.493 192.985 25.3594C193.013 26.4993 193.016 27.6392 192.982 28.7791C192.954 29.711 192.86 30.64 192.611 31.549C192.16 33.1991 191.154 34.3504 189.587 35.0115C188.7 35.3877 187.782 35.61 186.822 35.6556C185.986 35.6955 185.147 35.7154 184.308 35.7468C184.175 35.7524 184.042 35.7695 183.937 35.7809C183.742 35.9405 183.778 36.1343 183.776 36.3082C183.773 37.2885 183.776 38.2688 183.773 39.2491C183.773 39.4742 183.761 39.6994 183.753 39.953C183.623 39.9815 183.518 40.0242 183.41 40.0242C181.438 40.0299 179.466 40.0299 177.494 40.0271C177.386 40.0271 177.278 40.0043 177.173 39.99C177.046 39.745 177.086 39.5141 177.086 39.2919C177.08 38.3571 177.086 37.4224 177.08 36.4877C177.08 36.2654 177.128 36.0289 176.981 35.8208C176.774 35.6983 176.541 35.7496 176.32 35.7411C175.459 35.7097 174.6 35.6955 173.739 35.647C172.917 35.6014 172.13 35.3848 171.381 35.0457C169.911 34.376 168.97 33.2247 168.457 31.7115C168.185 30.9107 168.018 30.0814 168.01 29.2322C167.995 27.8187 167.99 26.4052 168.018 24.9946C168.032 24.1739 168.185 23.3645 168.423 22.5751C168.962 20.794 170.172 19.6912 171.903 19.1298C172.795 18.8391 173.722 18.7736 174.649 18.7137C175.417 18.671 176.182 18.6083 176.947 18.5484ZM183.838 31.6174C184.736 31.8027 185.379 31.5149 185.799 30.7511C186.045 30.3009 186.128 29.8164 186.128 29.3063C186.122 27.9184 186.128 26.5335 186.128 25.1456C186.128 24.9632 186.122 24.7809 186.102 24.6013C186.054 24.1653 185.909 23.7606 185.674 23.393C185.246 22.729 184.648 22.5352 183.835 22.8174C183.818 22.9342 183.787 23.0653 183.784 23.1992C183.719 24.9319 183.756 31.0446 183.838 31.6174ZM176.947 22.7661C176.21 22.5637 175.708 22.7917 175.329 23.3218C174.989 23.7948 174.799 24.3306 174.796 24.9148C174.787 26.4166 174.787 27.9184 174.796 29.4203C174.799 29.8791 174.895 30.3236 175.119 30.7312C175.476 31.3781 176.102 31.7029 176.864 31.6374C176.89 31.6003 176.935 31.5633 176.935 31.5262C176.95 28.8418 176.958 26.1573 176.967 23.4728C176.969 23.2505 176.955 23.0254 176.947 22.7661Z" fill="#1A2026"/>
<path d="M97.5894 39.9642C97.5781 39.7647 97.561 39.608 97.561 39.4512C97.5639 38.2201 97.5724 36.9919 97.5809 35.7608C97.5809 35.7209 97.6177 35.6838 97.6631 35.5984C97.7877 35.587 97.9407 35.5699 98.0938 35.5585C98.2751 35.5442 98.4593 35.5499 98.635 35.5186C99.2442 35.416 99.5049 35.1823 99.6126 34.5582C99.6919 34.1136 99.7344 33.6548 99.7373 33.2017C99.7514 31.583 99.7429 29.9644 99.7429 28.3486C99.7429 23.9514 99.7429 19.5513 99.7429 15.1541C99.7429 14.8834 99.7514 14.6127 99.7571 14.3163C99.9243 14.2821 100.052 14.2479 100.18 14.2365C100.338 14.2223 100.497 14.2308 100.656 14.2308C105.187 14.2308 109.72 14.2308 114.251 14.2337C114.521 14.2337 114.793 14.1909 115.093 14.3021C115.116 14.4189 115.15 14.5471 115.161 14.6754C115.172 14.8122 115.164 14.949 115.164 15.0858C115.164 23.1306 115.164 31.1755 115.161 39.2204C115.161 39.4655 115.203 39.7191 115.099 39.9841C114.985 40.0012 114.878 40.024 114.767 40.0297C113.203 40.0867 109.063 40.0497 108.482 39.9699C108.465 39.853 108.434 39.7248 108.426 39.5966C108.414 39.3914 108.423 39.1862 108.423 38.981C108.423 32.8056 108.423 26.6301 108.423 20.4519C108.423 20.1583 108.414 19.8648 108.409 19.5371C108.23 19.4943 108.083 19.4259 107.938 19.4316C107.471 19.4487 106.992 19.3319 106.541 19.5171C106.436 19.805 106.479 20.0785 106.479 20.3493C106.476 25.0656 106.476 29.7848 106.479 34.5012C106.479 35.0939 106.479 35.6867 106.363 36.2709C106.292 36.6271 106.218 36.9862 106.108 37.331C105.736 38.4709 104.966 39.2176 103.846 39.6137C103.155 39.8588 102.438 39.9841 101.716 40.0069C100.426 40.0468 99.1337 40.024 97.8416 40.0269C97.7821 40.0269 97.7169 39.9955 97.5894 39.9642Z" fill="#1A2026"/>
<path d="M134.498 14.3021C135.076 14.2166 140.414 14.2052 141.103 14.2878C141.123 14.4246 141.165 14.5756 141.168 14.7238C141.174 15.7953 141.159 16.8669 141.174 17.9384C141.199 19.6938 141.244 21.4464 141.278 23.2019C141.287 23.635 141.273 24.0682 141.273 24.5014C141.273 24.6353 141.293 24.7664 141.301 24.8775C141.505 25.0628 141.712 25.02 141.905 24.9659C142.194 24.8889 142.466 24.755 142.641 24.5042C142.772 24.3218 142.891 24.1167 142.959 23.9058C143.041 23.6493 143.103 23.3729 143.106 23.105C143.132 21.6687 143.282 20.241 143.239 18.8018C143.217 18.0267 143.268 17.2544 143.387 16.485C143.511 15.6814 143.763 14.9404 144.302 14.2536C144.951 14.2052 145.628 14.2365 146.305 14.2308C146.985 14.2251 147.665 14.2194 148.345 14.2308C149.017 14.2422 149.694 14.1795 150.408 14.2793C150.366 14.399 150.354 14.4902 150.309 14.5585C149.975 15.0658 149.85 15.6472 149.762 16.2342C149.575 17.4568 149.606 18.685 149.686 19.9161C149.759 21.0532 149.805 22.1902 149.635 23.3273C149.394 24.9374 148.549 26.0459 147.025 26.6159C146.793 26.7042 146.552 26.7726 146.319 26.861C146.246 26.8895 146.183 26.955 146.067 27.0348C146.18 27.1118 146.24 27.1745 146.317 27.203C146.614 27.3169 146.917 27.4053 147.212 27.5278C148.617 28.1063 149.382 29.1835 149.62 30.674C149.81 31.8538 149.768 33.0364 149.686 34.2191C149.603 35.3818 149.618 36.5416 149.782 37.6986C149.859 38.2401 150.006 38.7673 150.218 39.2746C150.286 39.4398 150.352 39.608 150.408 39.7533C150.312 39.9414 150.165 39.9072 150.037 39.9101C149.289 39.9158 148.541 39.9072 147.793 39.9158C147.203 39.9243 146.614 39.9699 146.027 39.967C145.554 39.9642 145.078 39.9186 144.605 39.8844C144.336 39.8645 144.149 39.702 143.993 39.494C143.772 39.1976 143.642 38.8556 143.554 38.4994C143.392 37.8354 143.273 37.16 143.268 36.4732C143.256 35.2649 143.259 34.0566 143.259 32.8483C143.259 32.324 143.268 31.7996 143.262 31.2753C143.256 30.8621 143.168 30.4631 143.004 30.0812C142.769 29.5341 142.335 29.232 141.777 29.098C141.48 29.0268 141.295 29.1607 141.259 29.4714C141.242 29.6053 141.25 29.7449 141.261 29.8789C141.324 30.5856 141.335 31.2895 141.23 31.9934C141.193 32.2413 141.196 32.495 141.196 32.7429C141.188 34.8175 141.182 36.8922 141.174 38.9668C141.174 39.2375 141.174 39.5082 141.174 39.8103C141.012 39.8474 140.887 39.9015 140.763 39.9015C138.813 39.9072 136.864 39.9072 134.914 39.9044C134.784 39.9044 134.656 39.8616 134.503 39.8331C134.481 39.702 134.447 39.5937 134.441 39.4854C134.43 39.2803 134.435 39.0751 134.435 38.8699C134.435 30.9817 134.435 23.0964 134.438 15.2083C134.432 14.9262 134.39 14.6269 134.498 14.3021Z" fill="#1A2026"/>
<path d="M168.171 39.9757C168.066 39.9956 167.981 40.0298 167.896 40.0298C165.836 40.0327 163.779 40.0327 161.693 40.0327C161.659 39.8902 161.62 39.7876 161.611 39.6821C161.515 38.4339 161.424 37.1858 161.334 35.9376C161.328 35.8692 161.325 35.8008 161.314 35.7324C161.283 35.5357 161.198 35.4246 161.016 35.4189C160.387 35.399 159.755 35.3619 159.101 35.4474C158.917 35.9347 158.973 36.442 158.897 36.9293C158.82 37.4223 158.8 37.9267 158.766 38.4254C158.732 38.9213 158.713 39.4171 158.684 39.9386C158.545 39.9757 158.443 40.0241 158.338 40.0241C156.344 40.027 154.352 40.027 152.357 40.0241C152.292 40.0241 152.229 39.9956 152.119 39.9671C152.107 39.8446 152.071 39.7135 152.085 39.5881C152.133 39.0894 152.187 38.5907 152.252 38.0948C152.456 36.5161 152.677 34.9373 152.875 33.3557C153.04 32.0448 153.176 30.7339 153.334 29.423C153.49 28.1121 153.66 26.8041 153.822 25.4932C153.969 24.2963 154.114 23.0994 154.269 21.9025C154.465 20.3892 154.677 18.8789 154.876 17.3685C154.998 16.4423 155.108 15.5162 155.224 14.5928C155.236 14.5045 155.253 14.4161 155.273 14.2993C155.409 14.2765 155.536 14.2395 155.666 14.2395C158.497 14.2366 161.331 14.2366 164.162 14.2395C164.272 14.2395 164.383 14.2594 164.51 14.2708C164.621 14.5444 164.649 14.8151 164.686 15.0801C165 17.3343 165.312 19.5885 165.621 21.8426C165.867 23.6465 166.105 25.4504 166.352 27.2543C166.644 29.3746 166.938 31.4919 167.244 33.6093C167.531 35.5927 167.828 37.5705 168.12 39.5539C168.137 39.685 168.151 39.8189 168.171 39.9757ZM161.008 30.694C161.028 30.5772 161.059 30.4888 161.053 30.4062C160.784 27.5564 160.509 24.7066 160.231 21.8569C160.228 21.8227 160.178 21.7913 160.141 21.7457C160.013 21.76 159.956 21.8512 159.939 21.9709C159.812 22.8714 159.662 23.7662 159.565 24.6696C159.373 26.5219 159.211 28.38 159.041 30.2352C159.027 30.3834 159.067 30.5373 159.087 30.7168C159.75 30.7652 160.37 30.7994 161.008 30.694Z" fill="#1A2026"/>
<path d="M116.959 39.9957C116.925 39.8389 116.897 39.7534 116.889 39.6651C116.877 39.5511 116.88 39.4371 116.88 39.3231C116.88 31.1899 116.88 23.0567 116.88 14.9234C116.88 14.855 116.877 14.7866 116.883 14.7182C116.9 14.3221 116.971 14.2395 117.37 14.2366C118.141 14.2281 118.912 14.2338 119.68 14.2309C120.722 14.2309 121.762 14.2309 122.805 14.2309C122.987 14.2309 123.168 14.2281 123.349 14.2423C123.599 14.2623 123.706 14.3763 123.726 14.6384C123.74 14.8208 123.735 15.0032 123.735 15.1856C123.735 17.531 123.735 19.8792 123.735 22.2245C123.735 22.4725 123.746 22.7204 123.752 22.9256C123.941 23.1136 124.128 23.0823 124.307 23.0851C125.191 23.0937 126.075 23.0794 126.956 23.1051C127.84 23.1307 128.713 23.2362 129.569 23.4841C130.94 23.8831 131.836 24.7608 132.255 26.1315C132.462 26.8098 132.581 27.508 132.587 28.2147C132.601 30.2181 132.618 32.2243 132.584 34.2277C132.57 35.0656 132.437 35.9034 132.335 36.7384C132.301 37.0062 132.21 37.2713 132.119 37.5249C131.788 38.4568 131.159 39.1179 130.249 39.4798C129.83 39.6451 129.39 39.7848 128.948 39.856C128.348 39.9529 127.733 40.0127 127.124 40.0156C123.93 40.0327 120.737 40.027 117.54 40.027C117.365 40.0327 117.186 40.0099 116.959 39.9957ZM123.797 35.5044C124.211 35.5928 124.536 35.4674 124.868 35.4161C125.367 35.3391 125.619 35.02 125.695 34.5498C125.749 34.2135 125.78 33.8715 125.783 33.5295C125.792 32.1616 125.792 30.7966 125.783 29.4287C125.78 29.0184 125.752 28.6108 125.718 28.2005C125.69 27.8386 125.542 27.5137 125.194 27.3826C124.752 27.2173 124.287 27.1119 123.814 27.28C123.788 27.3626 123.749 27.4253 123.749 27.488C123.743 30.0614 123.743 32.6347 123.743 35.208C123.743 35.2992 123.774 35.3876 123.797 35.5044Z" fill="#1A2026"/>
<path d="M87.8363 18.7536C87.8902 18.9901 87.9072 19.144 87.961 19.2865C88.1395 19.7539 88.3407 20.2127 88.5164 20.6829C88.8791 21.649 89.1001 22.6464 89.1086 23.6837C89.1086 23.8148 89.0888 23.9487 89.0746 24.114C88.9216 24.134 88.7941 24.1653 88.6638 24.1653C86.0342 24.1682 83.4074 24.1682 80.7779 24.1653C80.6249 24.1653 80.4747 24.1311 80.3358 24.1169C80.2338 23.8547 80.2848 23.6296 80.3415 23.413C80.452 22.9941 80.5512 22.5723 80.6985 22.1676C81.5401 19.8394 82.7926 17.779 84.6627 16.129C85.578 15.3225 86.6037 14.7155 87.7967 14.4191C89.1086 14.0942 90.4036 14.1626 91.6844 14.5616C92.5656 14.8352 93.3335 15.3111 93.9711 15.9836C96.1728 18.3091 97.6122 21.0192 98.0344 24.228C98.2413 25.7897 98.2951 27.3656 98.1818 28.9358C98.0571 30.6286 97.5839 32.2472 96.918 33.8061C96.3598 35.1113 95.6486 36.3253 94.7248 37.4053C94.0532 38.189 93.2797 38.8502 92.3559 39.3204C91.7042 39.6509 91.0213 39.8704 90.2817 39.9217C89.6725 39.9644 89.069 40.0385 88.4541 39.9416C87.978 39.8675 87.5303 39.7307 87.0883 39.5483C85.6091 38.9385 84.3879 37.9838 83.3734 36.7499C82.6934 35.9234 82.0813 35.0429 81.5713 34.1024C81.0471 33.1392 80.7014 32.1019 80.4293 31.0389C80.3897 30.8851 80.384 30.7255 80.3557 30.5345C80.4747 30.506 80.5795 30.4604 80.6815 30.4604C82.6084 30.4576 84.5324 30.4576 86.4592 30.4604C86.5896 30.4604 86.7199 30.4889 86.8729 30.5089C86.9296 30.811 86.9069 31.0817 86.8616 31.3467C86.7341 32.0991 86.9041 32.7973 87.2555 33.4555C87.5246 33.9571 87.8307 34.4387 88.2302 34.8491C88.3832 35.0058 88.5277 35.1968 88.8309 35.1597C88.8394 35.0058 88.8763 34.8462 88.8536 34.698C88.6411 33.2133 89.1256 31.9081 89.8964 30.6884C90.1882 30.2296 90.5424 29.8107 90.8711 29.3775C91.0213 29.1809 91.2253 29.0185 91.2565 28.7506C91.2026 28.5825 91.0638 28.5739 90.925 28.5711C90.1316 28.5682 89.3382 28.5711 88.5447 28.5625C88.3464 28.5597 88.1367 28.6138 87.9214 28.4542C88.0772 28.0581 88.3577 27.7218 88.5391 27.3343C88.7119 26.9638 88.8536 26.5791 89.0265 26.1659C89.1596 26.1516 89.3126 26.1174 89.4657 26.1174C90.1684 26.1203 90.8711 26.1345 91.5739 26.1402C92.3588 26.1459 92.4409 26.0604 92.4126 25.2881C92.3729 24.2166 92.0357 23.2334 91.503 22.3158C91.1006 21.6205 90.5963 21.0078 90.038 20.4378C89.6243 20.0161 89.1908 19.6142 88.7601 19.2124C88.4342 18.9104 88.3974 18.9018 87.8363 18.7536Z" fill="#1A2026"/>
<path d="M195.372 14.248C199.132 14.248 202.798 14.248 206.493 14.248C206.525 14.3592 206.581 14.4618 206.581 14.5672C206.587 16.0263 206.584 17.4854 206.584 18.9416C206.584 19.01 206.581 19.0784 206.57 19.1468C206.547 19.3007 206.457 19.3947 206.304 19.409C206.122 19.4261 205.941 19.4289 205.762 19.4318C204.788 19.4346 203.813 19.4318 202.838 19.4346C202.614 19.4346 202.385 19.4004 202.155 19.5286C202.138 19.6056 202.099 19.6939 202.099 19.7794C202.096 21.2129 202.096 22.6463 202.096 24.0256C202.277 24.2422 202.467 24.2108 202.643 24.2108C203.595 24.2137 204.547 24.208 205.499 24.2165C205.72 24.2194 205.952 24.1595 206.185 24.3219C206.202 24.4359 206.233 24.567 206.236 24.6981C206.289 26.294 206.258 28.4627 206.176 28.9956C206.032 29.1494 205.842 29.1095 205.666 29.1095C204.737 29.1152 203.807 29.1095 202.878 29.1152C202.654 29.1152 202.433 29.1352 202.181 29.1466C202.15 29.2834 202.104 29.3888 202.104 29.4943C202.101 31.1129 202.101 32.7316 202.104 34.3474C202.104 34.4358 202.13 34.5241 202.138 34.5953C202.3 34.7692 202.49 34.7236 202.665 34.7236C203.821 34.7264 204.977 34.7264 206.131 34.7264C206.377 34.7264 206.627 34.7264 206.896 34.7264C206.936 34.8632 206.992 34.9658 206.992 35.0713C206.995 36.5759 206.992 38.0778 206.989 39.5824C206.989 39.648 206.964 39.7135 206.944 39.819C206.833 39.8532 206.712 39.9045 206.587 39.9244C206.476 39.9444 206.36 39.933 206.247 39.933C202.849 39.9301 199.449 39.9273 196.052 39.9216C195.851 39.9216 195.652 39.8988 195.493 39.8902C195.306 39.6993 195.349 39.5083 195.349 39.3317C195.34 38.0778 195.329 36.8239 195.329 35.5728C195.332 28.7134 195.335 21.8541 195.34 14.9947C195.346 14.7638 195.36 14.5416 195.372 14.248Z" fill="#1A2026"/>
<path d="M164.337 44.0508C164.972 43.9454 168.517 43.9454 169.109 44.0423C169.132 44.162 169.174 44.2903 169.174 44.4186C169.183 45.0797 169.177 45.7409 169.18 46.3991C169.18 46.6214 169.197 46.8437 169.208 47.0717C169.526 47.2113 169.823 47.1686 170.109 47.1714C170.905 47.1771 171.69 47.2568 172.47 47.4221C172.58 47.4449 172.691 47.4707 172.798 47.502C174.479 47.9808 175.561 49.2803 175.737 51.0357C175.895 52.6031 175.898 54.1732 175.737 55.7434C175.64 56.6781 175.278 57.4961 174.666 58.2086C174.269 58.6674 173.776 58.978 173.212 59.1832C172.526 59.4311 171.818 59.5764 171.09 59.6077C170.636 59.6277 170.183 59.6249 169.732 59.6392C169.579 59.6449 169.423 59.6676 169.242 59.6846C169.219 59.8642 169.185 60.0152 169.183 60.1691C169.177 60.8303 169.183 61.4914 169.177 62.1497C169.177 62.3264 169.154 62.5032 169.143 62.6798C169.047 62.7112 168.984 62.7511 168.925 62.7511C167.497 62.7568 166.071 62.7568 164.643 62.7568C164.558 62.7568 164.473 62.7311 164.349 62.7083C164.334 62.5602 164.315 62.429 164.315 62.2979C164.312 61.6139 164.315 60.93 164.309 60.2489C164.309 60.0722 164.281 59.8956 164.266 59.7275C164.023 59.5936 163.79 59.642 163.569 59.6392C162.867 59.6249 162.164 59.6335 161.472 59.4796C161.206 59.4197 160.94 59.3712 160.679 59.2942C159.242 58.8839 158.384 57.8921 157.967 56.4901C157.865 56.1452 157.817 55.7749 157.794 55.4158C157.709 54.0736 157.715 52.7284 157.792 51.3861C157.831 50.6708 158.015 49.9984 158.355 49.3658C158.832 48.4795 159.546 47.8896 160.498 47.5875C161.37 47.3111 162.269 47.2169 163.175 47.1827C163.513 47.1713 163.853 47.1685 164.215 47.1599C164.249 47.0032 164.3 46.8751 164.3 46.7497C164.309 46.0885 164.303 45.4273 164.306 44.769C164.315 44.5382 164.326 44.313 164.337 44.0508ZM169.239 50.0866C169.217 50.232 169.183 50.3403 169.183 50.4486C169.18 52.4291 169.18 54.4097 169.185 56.3903C169.185 56.4958 169.236 56.5985 169.259 56.6896C170.081 56.7609 170.458 56.567 170.73 55.8688C170.86 55.5354 170.951 55.1679 170.962 54.8117C170.993 53.857 170.99 52.8995 170.962 51.9448C170.951 51.6114 170.863 51.2665 170.741 50.9531C170.472 50.2577 170.089 50.0439 169.239 50.0866ZM164.235 56.6925C164.34 56.057 164.368 53.4552 164.309 50.5171C164.306 50.386 164.283 50.2549 164.272 50.1523C164.19 50.1095 164.153 50.0753 164.113 50.0696C163.538 49.9955 163.167 50.2947 162.903 50.7649C162.663 51.1924 162.589 51.6655 162.58 52.1471C162.566 52.9878 162.566 53.8313 162.58 54.672C162.589 55.1508 162.671 55.6237 162.912 56.0512C163.198 56.5471 163.595 56.8293 164.235 56.6925Z" fill="#1A2026"/>
<path d="M201.709 44.0366C201.712 46.2623 201.712 48.4253 201.715 50.5939C202.166 50.7763 202.588 50.6937 202.976 50.6794C203.197 50.4913 203.132 50.2719 203.135 50.0781C203.14 48.6418 203.138 47.2056 203.138 45.7693C203.138 45.3361 203.135 44.9029 203.14 44.4698C203.143 44.3358 203.166 44.2048 203.183 44.0509C203.713 43.9084 204.231 43.991 204.744 43.9739C205.266 43.9597 205.787 43.9682 206.308 43.9682C206.827 43.9682 207.348 43.9682 207.895 43.9682C207.935 44.1278 207.986 44.2504 207.992 44.3786C208.006 44.6294 207.997 44.8802 207.997 45.1309C207.997 50.7165 207.997 56.302 207.994 61.8875C207.994 62.1554 208.023 62.429 207.943 62.714C207.836 62.7339 207.751 62.7596 207.666 62.7596C206.195 62.7624 204.722 62.7624 203.296 62.7624C203.075 62.5943 203.126 62.3977 203.123 62.2238C203.118 61.1751 203.121 60.1264 203.123 59.0777C203.123 57.9378 203.126 56.7979 203.126 55.658C203.126 55.4328 203.112 55.2077 203.104 54.9683C202.664 54.7859 202.245 54.8629 201.828 54.8914C201.658 55.1108 201.721 55.3473 201.721 55.5668C201.718 57.687 201.721 59.8072 201.721 61.9274C201.721 62.1754 201.707 62.4205 201.701 62.6883C201.585 62.7197 201.503 62.7596 201.42 62.7596C199.992 62.7624 198.564 62.7624 197.136 62.7624C197.071 62.7624 197.006 62.7368 196.907 62.7168C196.884 62.5943 196.85 62.466 196.841 62.3378C196.83 62.1554 196.839 61.973 196.839 61.7907C196.841 56.1367 196.847 50.4828 196.853 44.8289C196.853 44.5809 196.867 44.3358 196.878 44.0537C197.011 44.0252 197.116 43.9853 197.221 43.9825C198.581 43.9768 199.941 43.9768 201.301 43.9796C201.406 43.9768 201.514 44.0081 201.709 44.0366Z" fill="#1A2026"/>
<path d="M139.866 62.714C139.382 62.2295 139.251 61.6083 139.175 60.9699C139.135 60.6308 139.138 60.2888 139.138 59.9468C139.132 58.8525 139.141 57.7582 139.132 56.6668C139.13 56.4188 139.113 56.1624 139.059 55.923C138.903 55.2504 138.5 54.9284 137.761 54.8429C137.582 54.9712 137.636 55.1678 137.633 55.3416C137.625 56.6183 137.622 57.895 137.619 59.1689C137.616 60.1492 137.616 61.1295 137.608 62.1098C137.605 62.3093 137.653 62.523 137.52 62.7026C136.953 62.7795 133.428 62.7795 132.805 62.694C132.788 62.5772 132.76 62.4489 132.754 62.3207C132.745 62.1611 132.751 62.0015 132.751 61.8419C132.751 56.1909 132.751 50.5398 132.751 44.8887C132.751 44.618 132.762 44.3501 132.768 44.0623C132.884 44.0281 132.966 43.9825 133.049 43.9825C134.454 43.9768 135.857 43.9768 137.262 43.9768C137.35 43.9768 137.435 44.011 137.512 44.0252C137.659 44.276 137.605 44.5325 137.605 44.7775C137.616 46.875 137.619 48.9696 137.628 51.067C137.628 51.3149 137.602 51.5657 137.682 51.8507C137.939 51.8963 138.166 51.8279 138.381 51.7025C138.605 51.5742 138.764 51.3833 138.866 51.1468C138.996 50.8504 139.022 50.5341 139.03 50.212C139.062 48.9582 139.09 47.7071 139.144 46.4532C139.164 46.0001 139.22 45.5441 139.319 45.1024C139.387 44.7975 139.546 44.5125 139.685 44.2275C139.77 44.0509 139.931 43.9711 140.133 43.9711C140.269 43.9711 140.405 43.9654 140.541 43.9654C141.561 43.9654 142.581 43.9625 143.601 43.9654C143.799 43.9654 143.998 43.9853 144.244 43.9996C144.134 44.2959 144.023 44.541 143.949 44.7946C143.788 45.3447 143.754 45.9146 143.754 46.4874C143.76 47.6273 143.768 48.7672 143.762 49.9043C143.76 50.2206 143.731 50.5398 143.677 50.8532C143.502 51.8849 142.881 52.566 141.943 52.9678C141.736 53.0561 141.513 53.1074 141.3 53.1787C141.173 53.2214 141.048 53.267 140.912 53.3126C140.954 53.4836 141.088 53.4323 141.173 53.4636C141.365 53.5292 141.564 53.5748 141.756 53.646C142.992 54.102 143.641 55.0082 143.754 56.3134C143.771 56.5186 143.765 56.7238 143.765 56.9289C143.762 57.8181 143.762 58.7072 143.751 59.5963C143.74 60.6507 143.794 61.6909 144.27 62.6456C144.233 62.6826 144.222 62.6997 144.205 62.7111C144.185 62.7225 144.165 62.7368 144.142 62.7368C142.805 62.7425 141.47 62.7453 140.133 62.7482C140.045 62.7539 139.957 62.7282 139.866 62.714Z" fill="#1A2026"/>
<path d="M156.536 53.3666C156.5 55.0052 156.474 56.6467 156.417 58.2853C156.4 58.7584 156.344 59.2457 156.222 59.7017C155.893 60.9242 155.159 61.8475 154.046 62.4545C153.422 62.7936 152.751 62.996 152.051 63.09C150.776 63.261 149.518 63.1869 148.308 62.7167C146.777 62.1183 145.828 60.9897 145.48 59.3853C145.361 58.8325 145.321 58.254 145.318 57.6869C145.301 54.8172 145.304 51.9474 145.315 49.0777C145.318 48.579 145.361 48.0746 145.44 47.5816C145.672 46.1168 146.446 45.0168 147.735 44.2958C148.316 43.971 148.942 43.7772 149.597 43.6803C150.798 43.5036 151.991 43.5406 153.156 43.914C155.103 44.5409 156.296 46.0883 156.409 48.1744C156.474 49.3798 156.485 50.5881 156.511 51.7936C156.522 52.3179 156.514 52.8423 156.514 53.3638C156.519 53.3666 156.528 53.3666 156.536 53.3666ZM150.147 53.378C150.147 54.7687 150.144 56.1565 150.147 57.5472C150.147 58.026 150.152 58.5048 150.175 58.9807C150.183 59.183 150.22 59.3882 150.28 59.582C150.368 59.8612 150.623 60.0123 150.912 59.9923C151.249 59.9695 151.484 59.7643 151.529 59.3768C151.592 58.8125 151.643 58.2426 151.646 57.6755C151.657 54.7146 151.651 51.7537 151.651 48.7928C151.651 48.5648 151.657 48.3368 151.637 48.1088C151.612 47.8153 151.578 47.5189 151.518 47.2311C151.461 46.9604 151.277 46.7979 151 46.7637C150.719 46.7267 150.427 46.8635 150.325 47.1171C150.249 47.3023 150.2 47.5104 150.183 47.7098C150.155 48.0718 150.152 48.4365 150.149 48.8013C150.144 50.3259 150.147 51.8534 150.147 53.378Z" fill="#1A2026"/>
<path d="M92.9537 55.2675C92.9849 55.3815 93.0132 55.4471 93.0161 55.5098C93.0416 56.8093 92.9849 58.1059 92.7809 59.3911C92.6279 60.3544 92.166 61.1352 91.4321 61.7707C90.4857 62.5857 89.3806 63.016 88.1564 63.13C87.1137 63.2269 86.0738 63.1728 85.0565 62.8878C84.861 62.8337 84.6655 62.7738 84.4756 62.6997C82.9596 62.1041 82.0302 61.0298 81.7695 59.3911C81.6222 58.465 81.5372 57.5359 81.5315 56.6012C81.5145 54.3214 81.5173 52.0444 81.5315 49.7646C81.5343 49.1035 81.5768 48.4423 81.6448 47.7869C81.7809 46.496 82.3872 45.4586 83.4215 44.6835C84.2234 44.0822 85.1415 43.7602 86.1219 43.6462C87.2752 43.5123 88.4313 43.5493 89.5562 43.8941C90.3695 44.1449 91.0977 44.5496 91.7098 45.1537C92.1717 45.6125 92.506 46.1454 92.6619 46.7809C92.744 47.1115 92.8319 47.4449 92.8716 47.7812C93.0387 49.1633 93.0557 50.554 93.0104 51.9447C93.0104 51.9846 92.9764 52.0245 92.9509 52.0786C92.8971 52.1014 92.8376 52.147 92.7752 52.1499C91.3471 52.1556 89.9189 52.1584 88.4936 52.1584C88.4086 52.1584 88.3208 52.1214 88.2471 52.1043C88.1111 51.8735 88.165 51.6398 88.1621 51.4175C88.1536 50.3688 88.1621 49.3201 88.1479 48.2714C88.1423 47.955 88.1083 47.633 88.0459 47.3224C87.9638 46.9177 87.7314 46.7553 87.3205 46.7524C86.8842 46.7496 86.6121 46.9348 86.5243 47.3423C86.462 47.6302 86.4308 47.9265 86.4025 48.2201C86.3826 48.4224 86.3911 48.6304 86.3911 48.8356C86.3911 51.8678 86.3855 54.8971 86.394 57.9292C86.3968 58.4051 86.4393 58.8867 86.513 59.3541C86.5866 59.8215 86.9437 60.0551 87.397 59.9867C87.7172 59.9383 87.9553 59.7702 88.0148 59.4396C88.0771 59.1062 88.1309 58.7642 88.1394 58.4251C88.1593 57.6499 88.1536 56.8748 88.1564 56.0997C88.1564 55.8489 88.1564 55.601 88.1564 55.3217C88.3095 55.2875 88.437 55.239 88.5617 55.239C89.9218 55.2333 91.2819 55.2362 92.642 55.2362C92.7299 55.2362 92.8177 55.2533 92.9537 55.2675Z" fill="#1A2026"/>
<path d="M120.346 44.0253C120.354 44.3274 120.368 44.5752 120.371 44.8231C120.374 46.4418 120.371 48.0605 120.374 49.6791C120.374 49.9014 120.32 50.1323 120.473 50.3802C120.632 50.3917 120.805 50.4144 120.983 50.4201C121.595 50.4343 122.21 50.4144 122.819 50.46C123.426 50.5084 124.038 50.5797 124.633 50.7136C125.619 50.9387 126.273 51.5657 126.551 52.546C126.667 52.9592 126.769 53.3924 126.775 53.8199C126.798 55.6893 126.801 57.5587 126.769 59.4253C126.761 59.8955 126.648 60.3772 126.514 60.8303C126.245 61.7308 125.639 62.3207 124.712 62.4974C124.092 62.6171 123.457 62.6883 122.828 62.7254C122.128 62.7681 121.422 62.7539 120.72 62.7567C119.269 62.7596 117.818 62.7567 116.367 62.7567C116.118 62.7567 115.871 62.7567 115.594 62.7567C115.56 62.6 115.52 62.4746 115.509 62.3463C115.495 62.164 115.503 61.9816 115.503 61.7992C115.503 56.1681 115.503 50.537 115.503 44.9059C115.503 44.6352 115.512 44.3643 115.517 44.0594C115.673 44.0252 115.798 43.974 115.922 43.974C117.26 43.9683 118.597 43.9683 119.935 43.9712C120.045 43.974 120.156 43.9997 120.346 44.0253ZM120.382 59.4283C120.714 59.5651 120.961 59.5023 121.204 59.4652C121.581 59.4082 121.822 59.1831 121.876 58.7984C121.924 58.4621 121.966 58.1201 121.972 57.781C121.983 56.872 121.983 55.96 121.972 55.0482C121.966 54.7091 121.921 54.367 121.879 54.0307C121.853 53.8199 121.757 53.6432 121.556 53.5377C121.315 53.4123 120.833 53.361 120.411 53.4294C120.399 53.552 120.374 53.6831 120.374 53.8142C120.374 55.6779 120.36 57.5417 120.382 59.4283Z" fill="#1A2026"/>
<path d="M194.907 54.8031C193.887 54.9399 192.935 54.7774 191.966 54.9057C191.858 55.373 191.923 55.8262 191.909 56.2736C191.898 56.7067 191.903 57.1399 191.906 57.5731C191.909 58.0262 191.886 58.4793 191.932 58.958C192.122 58.9837 192.272 59.0207 192.425 59.0207C193.173 59.0264 193.921 59.0236 194.666 59.0236C194.89 59.0236 195.117 59.0321 195.369 59.0378C195.403 59.1889 195.46 59.3143 195.46 59.4397C195.468 60.42 195.465 61.4003 195.465 62.3778C195.465 62.4661 195.445 62.5544 195.437 62.6371C195.236 62.828 194.998 62.7596 194.779 62.7596C193.125 62.7653 191.473 62.7625 189.818 62.7625C189.092 62.7625 188.367 62.7625 187.644 62.7596C187.469 62.7596 187.29 62.7397 187.103 62.7254C186.987 62.4633 187.03 62.2096 187.03 61.9674C187.027 59.3713 187.027 56.7723 187.027 54.1761C187.027 51.0557 187.03 47.9323 187.032 44.8118C187.032 44.5667 187.049 44.3188 187.058 44.0623C187.321 43.9284 187.574 43.9711 187.814 43.9711C189.809 43.9683 191.801 43.9711 193.796 43.9711C194.068 43.9711 194.34 43.9683 194.612 43.974C194.745 43.9768 194.876 43.9996 195.026 44.0139C195.057 44.1165 195.1 44.1991 195.105 44.2846C195.179 45.3333 195.156 47.123 195.063 47.6587C194.944 47.673 194.816 47.6986 194.686 47.6986C193.961 47.7043 193.235 47.6986 192.513 47.7043C192.337 47.7043 192.161 47.7243 191.997 47.7357C191.886 48.2657 191.864 50.329 191.954 51.2067C192.068 51.2323 192.192 51.2836 192.32 51.2865C192.955 51.295 193.589 51.2893 194.224 51.295C194.425 51.2979 194.624 51.315 194.856 51.3264C194.981 51.7253 194.91 52.1101 194.924 52.4891C194.935 52.8539 194.93 53.2186 194.927 53.5834C194.915 53.9653 194.91 54.35 194.907 54.8031Z" fill="#1A2026"/>
<path d="M185.215 44.0052C185.309 44.7034 185.306 47.063 185.215 47.6586C185.096 47.6728 184.969 47.7042 184.838 47.7042C184.135 47.7099 183.433 47.7042 182.73 47.707C182.532 47.707 182.33 47.7241 182.135 47.7327C182.098 47.8295 182.056 47.8894 182.056 47.9521C182.053 48.978 182.053 50.0039 182.056 51.027C182.056 51.0897 182.098 51.1524 182.126 51.2322C182.594 51.3405 183.067 51.2721 183.54 51.2835C184.014 51.2949 184.49 51.2863 184.983 51.2863C185.025 51.4231 185.088 51.5257 185.088 51.6283C185.093 52.6086 185.09 53.5889 185.088 54.5692C185.088 54.6319 185.051 54.6946 185.017 54.8029C184.538 54.9055 184.042 54.8286 183.552 54.8514C183.081 54.8742 182.605 54.8029 182.107 54.9112C182.084 55.0565 182.05 55.1876 182.044 55.3187C181.988 57.1967 182.016 58.4107 182.132 58.9664C182.268 58.9835 182.418 59.0206 182.571 59.0206C183.342 59.0263 184.113 59.0206 184.884 59.0234C185.107 59.0234 185.337 58.9835 185.578 59.1032C185.714 59.4851 185.626 59.8954 185.64 60.3001C185.654 60.6877 185.649 61.0753 185.643 61.4628C185.634 61.8675 185.683 62.275 185.6 62.7053C185.464 62.7253 185.36 62.7509 185.252 62.7566C183.611 62.8193 177.865 62.7766 177.264 62.6911C177.247 62.5771 177.219 62.4488 177.207 62.3206C177.196 62.1838 177.204 62.047 177.204 61.9102C177.204 56.2364 177.204 50.5596 177.207 44.8857C177.207 44.615 177.221 44.3471 177.227 44.085C177.491 43.9168 177.749 43.971 177.989 43.971C179.576 43.9653 181.163 43.9681 182.747 43.9681C183.359 43.9681 183.971 43.9653 184.583 43.971C184.782 43.9738 184.983 43.9909 185.215 44.0052Z" fill="#1A2026"/>
<path d="M103.163 59.0491C103.188 59.2315 103.211 59.3199 103.211 59.4082C103.208 60.4569 103.205 61.5028 103.197 62.5515C103.197 62.5914 103.163 62.6313 103.151 62.6541C103.126 62.6826 103.114 62.7054 103.095 62.7168C103.075 62.7282 103.052 62.7367 103.029 62.7367C102.871 62.7453 102.715 62.7595 102.556 62.7567C100.04 62.7538 97.5271 62.7481 95.0109 62.7424C94.9684 62.7424 94.9287 62.7139 94.8381 62.6797C94.8211 62.5771 94.7927 62.4489 94.7842 62.3207C94.7729 62.1839 94.7814 62.0471 94.7814 61.9103C94.7814 56.2364 94.7814 50.5625 94.7814 44.8887C94.7814 44.6179 94.7927 44.3501 94.8012 44.1107C95.0421 43.914 95.2773 43.9739 95.4955 43.971C96.7422 43.9653 97.989 43.9682 99.233 43.9682C100.185 43.9682 101.137 43.9653 102.089 43.9682C102.313 43.9682 102.534 43.9853 102.78 43.9938C102.922 44.6293 102.842 45.242 102.851 45.849C102.859 46.4361 102.876 47.026 102.831 47.6472C102.667 47.6672 102.536 47.6957 102.406 47.6957C101.681 47.7014 100.955 47.6957 100.23 47.7014C100.051 47.7014 99.8762 47.7213 99.7033 47.7327C99.6693 47.8211 99.6268 47.8838 99.624 47.9465C99.6183 48.9496 99.6155 49.9527 99.6183 50.953C99.6183 51.0384 99.6552 51.1268 99.6807 51.2465C100.649 51.3719 101.621 51.2123 102.604 51.3462C102.715 51.748 102.653 52.1356 102.664 52.5146C102.675 52.8794 102.672 53.2442 102.664 53.6089C102.655 53.9908 102.704 54.3784 102.616 54.7887C101.638 54.9455 100.666 54.7574 99.692 54.8999C99.6637 55.0053 99.624 55.088 99.6183 55.1735C99.556 56.2421 99.5957 58.4535 99.692 58.9636C99.828 58.9836 99.9754 59.0235 100.125 59.0263C100.896 59.032 101.667 59.0292 102.437 59.0292C102.667 59.032 102.891 59.0434 103.163 59.0491Z" fill="#1A2026"/>
<path d="M106.592 47.7071C105.66 47.7071 104.779 47.7071 103.881 47.7071C103.841 47.596 103.79 47.5162 103.79 47.4364C103.787 46.3649 103.79 45.2962 103.793 44.2247C103.793 44.1819 103.816 44.1392 103.844 44.0509C103.949 44.0281 104.071 43.991 104.198 43.9768C104.331 43.9625 104.47 43.9711 104.606 43.9711C107.596 43.9711 110.588 43.9682 113.577 43.9739C113.821 43.9739 114.073 43.9283 114.297 44.0395C114.405 44.5353 114.43 46.6812 114.339 47.6302C114.226 47.653 114.101 47.6986 113.974 47.7014C113.362 47.7099 112.75 47.7043 112.138 47.7071C111.962 47.7071 111.784 47.7242 111.568 47.7356C111.551 47.9664 111.526 48.1659 111.526 48.3625C111.523 49.6164 111.523 50.8703 111.523 52.1214C111.523 55.3787 111.523 58.6388 111.523 61.8961C111.523 62.144 111.523 62.3919 111.523 62.657C111.407 62.694 111.325 62.7453 111.245 62.7453C109.794 62.7482 108.346 62.7482 106.896 62.7453C106.853 62.7453 106.808 62.7225 106.726 62.6997C106.706 62.5886 106.666 62.4632 106.658 62.3349C106.646 62.1526 106.655 61.9702 106.655 61.7878C106.655 57.3906 106.655 52.9906 106.655 48.5934C106.655 48.3283 106.683 48.0548 106.592 47.7071Z" fill="#1A2026"/>
</svg>
