<svg width="215" height="72" viewBox="0 0 215 72" fill="none" xmlns="http://www.w3.org/2000/svg">
<path fill-rule="evenodd" clip-rule="evenodd" d="M58.5835 58.8443C60.2238 58.8443 61.3086 60.0442 61.3086 61.867C61.3086 63.6897 60.2172 64.8832 58.5835 64.8832C56.9497 64.8832 55.8584 63.6832 55.8584 61.867C55.8584 60.0507 56.9367 58.8443 58.5835 58.8443ZM58.5835 64.2734C59.9624 64.2734 60.544 62.9761 60.544 61.867C60.544 60.7578 59.9558 59.4475 58.5835 59.4475C57.2111 59.4475 56.623 60.7448 56.623 61.867C56.623 62.9891 57.2046 64.2734 58.5835 64.2734ZM67.6867 56.6324C66.9744 56.7426 66.5692 56.7686 65.9026 56.827C64.8113 56.9178 63.171 57.054 63.171 60.1675V60.4399H63.2037C63.3511 59.9767 63.6435 59.5722 64.0383 59.2852C64.4332 58.9982 64.91 58.8438 65.3994 58.8443C66.8829 58.8443 68.1899 59.8172 68.1899 61.9124C68.2251 62.2969 68.1781 62.6846 68.0507 63.0496C67.9239 63.4146 67.72 63.7487 67.4534 64.0296C67.1861 64.3105 66.862 64.5319 66.5025 64.6791C66.1425 64.8262 65.7556 64.8955 65.3668 64.8832C62.9554 64.8832 62.4914 62.6907 62.4914 60.4659C62.4914 56.827 64.1709 56.321 65.9222 56.1718C66.5071 56.1319 67.09 56.0604 67.6671 55.9578V56.6064L67.6867 56.6324ZM65.4125 64.2734C66.4777 64.2734 67.4318 63.5015 67.4318 61.9124C67.4318 60.3232 66.4712 59.4475 65.4125 59.4475C64.3538 59.4475 63.3867 60.2583 63.3867 61.9124C63.3867 63.5664 64.3408 64.2734 65.4125 64.2734ZM69.5949 66.5567C69.7602 66.6008 69.9282 66.6358 70.0981 66.6605C70.6078 66.6605 70.8496 66.3556 71.0456 65.7459L71.294 64.987L69.1701 58.9351H69.9412L71.49 63.3978L71.673 63.9751L71.856 63.4107L73.3525 58.9351H74.0975L71.5815 66.1156C71.3397 66.7642 70.9738 67.3026 70.1569 67.3026C69.936 67.2935 69.7164 67.2585 69.5034 67.1988L69.5753 66.5502L69.5949 66.5567ZM75.7573 60.7188C75.7573 61.2767 75.8946 61.7697 77.3192 61.7697C77.7825 61.7697 78.2439 61.724 78.6981 61.6334V58.961H79.4234V64.7988H78.6981V62.2043C78.2086 62.2949 77.7126 62.3405 77.2146 62.3405C75.4241 62.3405 75.032 61.6918 75.032 60.7967V58.9286H75.7573V60.6864V60.7188ZM81.678 62.1005C81.678 62.8205 81.9525 64.2994 83.6385 64.2994C84.2469 64.3192 84.8507 64.19 85.3964 63.9232V64.5718C84.8357 64.8017 84.2319 64.9124 83.6254 64.8961C81.9459 64.8961 80.9265 63.787 80.9265 61.7761C80.9265 59.9405 81.9917 58.8572 83.4882 58.8572C85.6839 58.8572 85.8473 60.8421 85.8473 61.8605V62.0875L81.678 62.1005ZM85.0827 61.4972C85.0827 61.0237 85.0108 59.4734 83.4817 59.4734C83.2281 59.4849 82.9791 59.5467 82.7504 59.6554C82.521 59.7642 82.3165 59.9174 82.1479 60.1063C81.9799 60.295 81.8518 60.5154 81.7708 60.7544C81.6898 60.9933 81.6584 61.2459 81.678 61.4972H85.0827ZM87.3307 58.961V64.7988H88.0561V62.0615H91.2517V64.7988H91.9771V58.961H91.2517V61.4713H88.0561V58.961H87.3307ZM94.6564 58.961V63.2486V63.8972H94.6891L95.0812 63.2486L98.133 58.9675H98.9368V64.8053H98.2114V59.9015L97.8193 60.5502L94.7741 64.8378H93.9703V58.9999L94.6564 58.961ZM101.191 62.1005C101.191 62.8205 101.472 64.2994 103.152 64.2994C103.762 64.3199 104.368 64.1907 104.916 63.9232V64.5718C104.355 64.8006 103.752 64.9111 103.145 64.8961C101.466 64.8961 100.44 63.787 100.44 61.7761C100.44 59.9405 101.512 58.8572 103.008 58.8572C105.204 58.8572 105.361 60.8421 105.361 61.8605V62.0875L101.191 62.1005ZM104.596 61.4972C104.596 61.0237 104.524 59.4734 103.002 59.4734C102.747 59.4849 102.498 59.5467 102.269 59.6554C102.04 59.764 101.834 59.9172 101.666 60.1059C101.497 60.2946 101.368 60.5148 101.287 60.7539C101.205 60.9928 101.173 61.2456 101.191 61.4972H104.596Z" fill="#FB8746"/>
<path fill-rule="evenodd" clip-rule="evenodd" d="M110.184 61.4453H110.765C112.138 61.4453 112.151 60.6604 112.151 60.4334C112.151 59.7847 111.576 59.4474 110.752 59.4474C110.254 59.4474 109.762 59.5606 109.315 59.7782V59.1296C109.799 58.9278 110.318 58.822 110.844 58.8182C112.294 58.8182 112.902 59.5577 112.902 60.3945C112.917 60.6699 112.838 60.9423 112.68 61.1689C112.521 61.3954 112.292 61.5634 112.027 61.6463V61.6853C112.368 61.7366 112.678 61.9141 112.894 62.1823C113.109 62.4505 113.215 62.7895 113.19 63.1317C113.19 64.0463 112.477 64.8572 110.844 64.8572C110.233 64.8461 109.631 64.7137 109.073 64.468L109.158 63.8193C109.674 64.1145 110.261 64.2668 110.857 64.2604C111.595 64.2604 112.432 63.9555 112.432 63.1447C112.432 62.1977 111.674 62.0355 110.791 62.0355H110.21V61.4323L110.184 61.4453ZM115.131 59.2074C115.684 58.9653 116.283 58.8415 116.889 58.8442C118.797 58.8442 118.967 60.2258 118.967 61.0236V63.5145L119.006 64.8117H118.352V63.8258C118.169 64.1695 117.892 64.4541 117.551 64.646C117.211 64.838 116.822 64.9292 116.431 64.909C115.124 64.909 114.471 64.1566 114.471 63.2485C114.471 61.3026 116.66 61.2442 117.856 61.2442H118.235V60.9912C118.235 60.5826 118.235 59.428 116.875 59.428C116.261 59.4269 115.656 59.5809 115.118 59.8755V59.188L115.131 59.2074ZM117.588 61.802C116.51 61.802 115.248 61.9836 115.248 63.1642C115.248 63.3123 115.278 63.459 115.337 63.5951C115.396 63.7313 115.482 63.8541 115.59 63.9561C115.699 64.0581 115.827 64.1372 115.966 64.1883C116.107 64.2395 116.256 64.2619 116.405 64.2539C117.536 64.2539 118.248 63.5015 118.248 62.2236V61.802H117.588ZM123.796 67.2701V60.0636L123.75 58.935H124.443V60.1415H124.476C124.596 59.7563 124.84 59.4208 125.17 59.1865C125.5 58.9521 125.9 58.8319 126.305 58.8442C127.939 58.8442 128.841 60.0053 128.841 61.8539C128.841 64.0009 127.612 64.8831 126.305 64.8831C125.932 64.8758 125.569 64.765 125.256 64.5632C124.943 64.3615 124.693 64.0768 124.534 63.7415V64.2993V67.2896L123.796 67.2701ZM126.305 64.2539C126.959 64.2539 128.083 63.6961 128.083 61.8345C128.083 59.9728 126.992 59.428 126.305 59.428C125.619 59.428 124.521 59.9988 124.521 61.8345C124.521 63.6701 125.613 64.2539 126.305 64.2539ZM130.226 66.5372C130.394 66.5826 130.564 66.6169 130.736 66.6409C131.239 66.6409 131.481 66.3361 131.677 65.7263L131.925 64.9674L129.802 58.9155H130.573L132.122 63.3782L132.311 63.9555L132.501 63.3912L133.991 58.9155H134.742L132.22 66.0961C131.978 66.7447 131.612 67.2831 130.795 67.2831C130.573 67.2747 130.354 67.2403 130.141 67.1793L130.207 66.5307L130.226 66.5372ZM140.957 56.6128C140.238 56.7231 139.839 56.749 139.173 56.8074C138.081 56.8982 136.435 57.0344 136.435 60.148V60.4204H136.467C136.616 59.9577 136.908 59.5538 137.303 59.267C137.698 58.9801 138.174 58.8252 138.663 58.8247C140.146 58.8247 141.46 59.7977 141.46 61.8928C141.494 62.2755 141.446 62.661 141.32 63.0242C141.194 63.3874 140.992 63.72 140.727 64.0004C140.463 64.2808 140.142 64.5026 139.785 64.6513C139.428 64.8001 139.043 64.8724 138.656 64.8636C136.239 64.8636 135.781 62.6712 135.781 60.4463C135.781 56.8074 137.461 56.3015 139.205 56.1523C139.793 56.1123 140.377 56.0408 140.957 55.9382V56.5869V56.6128ZM138.676 64.2539C139.748 64.2539 140.702 63.482 140.702 61.8928C140.702 60.3036 139.735 59.428 138.676 59.428C137.617 59.428 136.657 60.2388 136.657 61.8928C136.657 63.5469 137.604 64.2539 138.676 64.2539ZM147.472 62.055V61.828C147.472 60.8096 147.309 58.8247 145.113 58.8247C143.623 58.8247 142.551 59.908 142.551 61.7436C142.551 63.7545 143.571 64.8636 145.25 64.8636C145.857 64.8797 146.461 64.7691 147.021 64.5393V63.8907C146.476 64.1587 145.872 64.288 145.263 64.2669C143.584 64.2669 143.303 62.788 143.303 62.068L147.472 62.055ZM143.309 61.4517C143.309 60.4658 143.917 59.428 145.113 59.428C146.642 59.428 146.727 60.9782 146.714 61.4517H143.309ZM151.942 58.9155V61.562L149.328 58.9155H148.446L151.145 61.6463L148.113 64.7663H149.145L151.916 61.828V64.7663H152.641V61.828H152.674L155.445 64.7663H156.484L153.445 61.6463L156.151 58.9155H155.262L152.648 61.562H152.615V58.9155H151.942ZM159.921 58.8247C161.568 58.8247 162.646 60.0247 162.646 61.8474C162.646 63.6701 161.555 64.8636 159.921 64.8636C158.287 64.8636 157.196 63.6636 157.196 61.8474C157.196 60.0312 158.281 58.8247 159.921 58.8247ZM159.921 64.2539C161.3 64.2539 161.882 62.9566 161.882 61.8474C161.882 60.7382 161.294 59.428 159.921 59.428C158.549 59.428 157.961 60.7253 157.961 61.8474C157.961 62.9696 158.549 64.2539 159.921 64.2539ZM167.11 63.242L167.338 64.0269H167.384L167.717 63.242L169.626 58.9155H170.58V64.7534H169.854V60.589L169.913 59.642H169.874L169.554 60.589L167.717 64.7534H167.097L165.299 60.589L164.947 59.642L164.999 60.589V64.7534H164.28V58.9155H165.299L167.188 63.242H167.11Z" fill="#222222"/>
<path fill-rule="evenodd" clip-rule="evenodd" d="M147.622 30.6152V48.1612H144.041V33.7482H139.369V37.2574C139.369 43.1471 139.467 48.3882 134.219 48.3882C133.641 48.3752 133.066 48.3079 132.5 48.1871L132.651 45.4044C132.966 45.4738 133.288 45.5151 133.611 45.5277C136.389 45.5277 136.01 40.5136 136.01 36.3558V30.6412L147.622 30.6152ZM153.504 35.1558V41.9666L153.406 44.3017H153.458L159.091 35.1558H162.927V48.1287H159.47V41.4412L159.575 39.0152H159.496L153.713 48.1612H150.053V35.1882L153.504 35.1558ZM168.685 35.1558V40.066H174.187V35.1558H177.624V48.1287H174.187V42.5633H168.685V48.1287H165.247V35.1558H168.685ZM189.061 35.1558V37.6596H183.375V48.1352H179.944V35.1623L189.061 35.1558ZM196.406 35.1558C200.17 35.1558 200.902 36.9525 200.902 38.3342C200.925 39.0287 200.691 39.7076 200.244 40.2429C199.797 40.7781 199.169 41.1328 198.477 41.2401V41.3179C198.888 41.3199 199.295 41.4049 199.671 41.5679C200.048 41.7308 200.388 41.9682 200.669 42.2656C200.95 42.563 201.167 42.9142 201.308 43.2977C201.448 43.6812 201.508 44.0891 201.483 44.4963C201.483 46.8314 199.562 48.1352 196.608 48.1352H189.988V35.1623L196.406 35.1558ZM193.452 40.2347H195.576C196.229 40.2347 197.536 40.2347 197.536 38.8271C197.536 37.4196 196.229 37.426 195.576 37.426H193.452V40.2347ZM193.452 45.8974H195.648C196.301 45.8974 197.922 45.8974 197.922 44.1914C197.922 42.5893 196.432 42.4855 195.622 42.4855H193.452V45.8974ZM204.13 35.8239C205.654 35.2197 207.286 34.9284 208.927 34.9677C214.233 34.9677 214.71 38.0033 214.71 39.9558V48.1547H211.351V46.2477H211.306C211.025 46.799 210.064 48.3558 207.215 48.3558C203.908 48.3558 202.568 46.4098 202.568 44.3925C202.568 42.6152 203.503 40.105 209.057 40.105C209.711 40.105 210.364 40.105 210.972 40.105H211.279V39.586C211.279 38.159 209.887 37.3612 208.326 37.3612C206.847 37.3506 205.395 37.7482 204.13 38.5093V35.8304V35.8239ZM210.665 42.265C208.77 42.265 206.019 42.265 206.019 44.3666C206.019 45.2942 206.6 46.0466 208.116 46.0466C209.528 46.0466 211.247 45.3979 211.247 42.5893V42.265H210.665Z" fill="#FB8746"/>
<path fill-rule="evenodd" clip-rule="evenodd" d="M43.2916 33.3526L42.5597 33.5926C40.6664 33.3908 38.8887 32.5903 37.4886 31.3093C36.6195 31.6466 32.6332 33.0218 27.7776 34.6693L28.2155 35.6747L21.955 41.1428L21.6806 40.4358L20.4258 37.1926C13.1459 39.6509 6.32342 41.9407 6.32342 41.9407C6.32342 41.9407 6.32342 42.1158 6.32342 42.4142C4.63086 43.9126 0.285123 49.2834 0.0367954 57.0477C-0.120044 61.7439 0.193625 67.7569 1.57903 69.2488C2.78146 70.5461 7.31674 70.1634 8.46035 69.7418C9.21279 69.4272 10.0076 69.2241 10.8195 69.1385C14.4594 68.8272 15.6488 69.5407 16.518 70.0661C16.807 70.2626 17.1213 70.4196 17.4525 70.5331C17.5 70.6414 17.5829 70.7303 17.6876 70.7861C21.9223 73.1277 25.2944 71.0066 29.5617 68.3147C33.2278 66.0055 37.7958 63.1255 44.4483 62.0358C45.3536 61.9091 46.2097 61.5488 46.9309 60.9912C47.6522 60.4335 48.2135 59.6978 48.5588 58.8574C49.7482 56.172 50.1142 50.4899 45.6835 38.5547L49.6502 37.2574L43.4093 33.3655L43.2721 33.4109L43.2916 33.3526ZM17.3217 69.6185C17.1649 69.5407 17.0015 69.4499 16.825 69.3396C15.884 68.7688 14.5901 67.9839 10.7607 68.3147C9.89478 68.4088 9.04726 68.6274 8.2447 68.9634C7.11415 69.3785 2.94482 69.612 2.04299 68.6585C1.14117 67.705 0.553022 62.7818 0.736003 57.1061C0.89396 52.0157 2.90713 47.155 6.40184 43.4261C6.76126 49.1277 8.36233 68.0747 12.8061 44.905C15.7054 52.3572 17.2241 60.268 17.2891 68.2563C17.2891 68.8207 17.2891 69.2618 17.3217 69.6055V69.6185ZM13.7406 45.4758L15.9625 48.3753L22.5693 46.1893C23.1714 47.0444 23.943 47.7684 24.8369 48.3169C26.2429 49.1754 27.8377 49.6829 29.4845 49.7959C31.1314 49.9089 32.7814 49.624 34.293 48.9655C36.7763 47.9212 37.7239 45.4823 38.4623 43.478C38.7564 42.6866 39.1158 41.532 39.4556 40.598L45.0365 38.7493C49.3888 50.425 49.0751 55.8931 47.9576 58.4358C47.6583 59.1788 47.1641 59.8286 46.5263 60.3179C45.8886 60.8073 45.1305 61.1182 44.3307 61.2185C37.554 62.3342 32.9338 65.2401 29.2219 67.5818C24.9938 70.2477 21.9289 72.1612 18.0471 70.0791C18.0326 70.0213 18.0217 69.9629 18.0144 69.9039C18.0144 69.5601 17.9687 68.9439 17.9622 68.2888C17.9622 66.8682 17.9034 64.7536 17.6224 62.0293C17.0207 56.3738 15.7168 50.8138 13.7406 45.4758ZM24.5886 45.5212L37.1815 41.3504C36.992 41.798 36.809 42.2715 36.6325 42.7385C35.9268 44.6261 35.5346 46.1699 33.5741 47.0001C32.3606 47.5776 31.019 47.839 29.6757 47.7596C28.3323 47.6801 27.0314 47.2625 25.8955 46.5461C25.4207 46.2569 24.982 45.9129 24.5886 45.5212ZM13.636 44.1266L23.0072 40.8185L43.3766 34.1439L47.8596 36.9591L16.1847 47.4477C15.9559 47.1623 14.3157 45.0218 13.636 44.1266Z" fill="#222222"/>
<path fill-rule="evenodd" clip-rule="evenodd" d="M18.6809 13.64L39.8803 24.226C39.2268 24.7384 36.8219 26.7427 36.5082 26.9957C36.0965 26.7881 31.6528 24.4595 31.6528 24.4595L24.0657 30.6865L25.9935 35.6422C25.6798 35.8951 23.4383 37.7373 22.811 38.2368L15.0474 16.6432C15.3807 16.3708 18.3803 13.9189 18.707 13.64H18.6809ZM19.1122 18.4984L23.0331 27.7287L28.8427 22.9481L18.7658 17.5319L19.1122 18.5114V18.4984ZM35.8286 0.945938L36.9526 5.93405L37.3186 7.88H37.3774C37.6226 7.21008 38.0485 6.61987 38.6086 6.17381C39.1686 5.72771 39.8414 5.44284 40.5534 5.35027C44.0234 4.64324 46.5263 6.81622 47.3367 10.3773C48.2646 14.4638 46.1734 17.0389 43.481 17.5968C42.6617 17.8108 41.7982 17.7916 40.9892 17.5416C40.1803 17.2915 39.4586 16.8207 38.9066 16.1827H38.8477L39.3183 18.2454L36.4559 18.8357L32.535 1.60757L35.8024 0.958924L35.8286 0.945938ZM41.978 15.3135C43.285 15.0346 44.4809 13.6076 43.9385 11.0843C43.3961 8.56109 41.6578 7.73082 40.3312 8.00974C39.0046 8.28865 37.8152 9.70271 38.3707 12.226C38.9262 14.7492 40.6318 15.586 41.9649 15.3135H41.978ZM55.4138 1.96432C54.9346 1.78085 54.4243 1.69056 53.9108 1.69838C53.5214 1.68006 53.1324 1.74237 52.7686 1.88134C52.4048 2.02031 52.074 2.2329 51.7975 2.5056C51.5209 2.7783 51.3045 3.10513 51.162 3.46533C51.0196 3.82553 50.9542 4.2112 50.9701 4.59784C50.9362 4.96751 50.9809 5.34012 51.1012 5.69157C51.2215 6.04304 51.4149 6.36554 51.6686 6.63823C51.9224 6.91086 52.2309 7.12764 52.5744 7.27449C52.9179 7.42135 53.2886 7.49503 53.6625 7.49082C54.3125 7.50269 54.9585 7.38807 55.5642 7.15352L55.636 8.85298C54.8554 9.06878 54.048 9.17367 53.2377 9.16433C49.9114 9.11892 48.4149 6.78379 48.4476 4.43567C48.4803 2.08757 50.2382 -0.0335088 53.5449 0.00541017C54.2389 0.0162536 54.9296 0.105479 55.6034 0.271359L55.44 1.95783L55.4138 1.96432ZM3.02965 37.4649L5.42146 40.5784L19.8768 35.72L18.5698 32.36L3.0166 37.4649H3.02965ZM27.1763 33.2681L36.0769 30.2778L33.6067 27.4238L26.2157 29.8562L25.8366 30.1676L27.1436 33.2746L27.1763 33.2681Z" fill="#FB8746"/>
<path fill-rule="evenodd" clip-rule="evenodd" d="M56.7537 30.615V48.0766H58.6423L67.2357 34.455L68.1114 32.8074H68.1898L68.0918 34.9285V48.0507H69.7451V30.615H67.8631L59.3676 44.0875L58.3874 45.8583H58.3155L58.4135 43.7372V30.615H56.7537ZM73.3982 35.2788V48.0766H74.9796V42.0896H81.9655V48.0766H83.547V35.2788H81.9655V40.7664H74.9796V35.2788H73.3982ZM95.3948 35.5772C94.3976 35.2505 93.354 35.0819 92.3038 35.0777C87.9058 35.0777 85.8211 38.321 85.8211 41.6874C85.8211 45.5793 88.3044 48.2777 92.5064 48.2777C93.5252 48.3085 94.5401 48.1387 95.4929 47.7783L95.3426 46.4291C94.442 46.7937 93.4788 46.981 92.5064 46.9804C89.8401 46.9804 87.481 45.3783 87.481 41.6874C87.481 38.548 89.3369 36.375 92.3299 36.375C93.3572 36.3649 94.3747 36.5705 95.3164 36.9783L95.3948 35.5772ZM97.9173 37.3739C99.0956 36.7346 100.417 36.4 101.76 36.401C104.701 36.401 104.727 38.9242 104.727 39.8193V40.2669H103.923C101.309 40.2669 96.5319 40.468 96.5319 44.6583C96.5319 46.6042 97.9631 48.2777 100.754 48.2777C101.609 48.3248 102.46 48.1258 103.204 47.7047C103.948 47.2836 104.554 46.6582 104.949 45.9037H105.001V48.0766H106.406L106.334 45.281V39.8453C106.334 38.1004 105.955 35.0777 101.76 35.0777C100.437 35.0698 99.1263 35.3418 97.9173 35.8756V37.3739ZM104.727 41.5902V42.5112C104.727 45.3069 103.165 46.9545 100.701 46.9545C100.374 46.9712 100.047 46.9217 99.7399 46.8089C99.4334 46.6961 99.1525 46.5225 98.9152 46.2986C98.678 46.0746 98.4892 45.805 98.3604 45.5063C98.2317 45.2075 98.165 44.8859 98.1657 44.561C98.1657 41.9664 100.93 41.5902 103.289 41.5902H104.727ZM109.53 35.2788V48.0766H111.288L117.947 38.6972L118.803 37.348H118.881V38.6972V48.0766H120.463V35.2788H118.705L112.046 44.6323L111.19 46.0075H111.111V44.6583V35.2788H109.53ZM111.314 30.3945C111.719 30.9912 112.265 31.4799 112.905 31.8179C113.545 32.1558 114.259 32.3326 114.983 32.3326C115.708 32.3326 116.422 32.1558 117.061 31.8179C117.701 31.4799 118.248 30.9912 118.653 30.3945L117.901 29.5188C117.557 29.9605 117.115 30.318 116.61 30.564C116.105 30.81 115.549 30.9378 114.987 30.9378C114.424 30.9378 113.869 30.81 113.363 30.564C112.858 30.318 112.416 29.9605 112.072 29.5188L111.314 30.3945ZM121.829 35.2788V36.5761H125.848V48.0507H127.449V36.602H131.468V35.3047L121.829 35.2788Z" fill="#222222" stroke="#222222" stroke-width="0.25" stroke-linecap="round" stroke-linejoin="round"/>
</svg>
