<svg width="102" height="96" viewBox="0 0 102 96" fill="none" xmlns="http://www.w3.org/2000/svg">
<path fill-rule="evenodd" clip-rule="evenodd" d="M58.7964 69.2427C56.8962 70.1268 56.1571 67.5617 55.4984 66.3642C54.5918 67.3334 52.015 70.9863 49.3757 69.8537C47.232 68.9338 48.9626 65.4353 49.2573 64.3117C49.7039 62.6061 49.2729 63.7387 48.5941 62.6912C49.1077 61.7018 50.9588 61.4489 51.6934 62.3711C52.5241 63.4141 51.9927 65.4062 51.8162 66.6641C53.6205 66.0486 55.8556 63.4164 56.8939 61.7242C57.3517 60.9789 58.3833 59.9448 58.7048 60.3119C59.5377 61.2676 58.9505 62.9978 58.7629 64.4975C58.6356 65.498 58.2873 68.9942 58.7964 69.2427ZM38.0659 66.8007L42.4491 65.7352C42.8935 65.2898 45.3832 57.0059 47.1316 58.1586L47.4375 58.8972C47.5848 60.0074 46.3389 63.0582 46.3299 64.6027C47.2521 64.3251 47.6005 63.9289 48.3664 64.3408C48.0984 65.3323 47.3236 65.536 46.4014 66.1963C44.4565 67.5841 46.3478 74.9682 41.6698 73.9655C41.183 73.8603 41.1942 70.7244 41.6698 68.8017C40.8637 68.8599 39.2649 69.6187 38.2914 69.9276C37.0744 70.3126 36.7931 70.561 36.6323 71.1654C36.5318 71.5436 36.4782 72.0584 36.275 72.8351C35.7079 74.9951 35.1139 79.4426 32.3451 78.2249C31.8918 77.9026 31.7489 77.6967 31.6439 76.8036C31.5591 76.0739 31.6506 75.3353 31.7712 74.6123C31.9833 73.332 32.3875 72.1838 32.6488 71.0422C31.213 71.0646 30.1055 70.9348 29.6566 69.406C29.6857 67.602 32.4724 67.8236 33.9282 67.4565C35.0425 65.5472 36.0741 61.8026 38.5303 59.2039C42.1365 55.3943 38.2981 66.0464 38.0659 66.8007ZM67.0895 58.1743C68.7664 58.0377 73.6499 56.4597 74.063 57.1491C74.4805 57.8497 68.8691 59.8373 67.3619 60.3477C65.9552 60.8244 65.9507 60.5715 65.4751 61.8205L62.8447 69.2494C62.4137 70.5297 62.4919 71.2213 61.3732 71.4138C59.8101 68.3764 61.8935 64.3229 62.3222 61.6123C60.7971 61.5317 59.5087 61.4758 59.5712 60.0007C59.6203 58.801 61.7394 59.2509 63.5637 59.0002C64.5038 57.7557 65.2384 56.0412 66.136 55.0832C66.8573 54.3132 68.0206 54.2416 67.976 55.7256C67.9559 56.3568 67.2949 57.6505 67.0895 58.1743ZM38.4231 57.467C35.9334 58.2772 35.1184 54.6423 36.9739 51.3788C37.9654 49.6374 39.5575 47.6297 39.9348 46.9604C40.4127 46.1121 40.1269 45.8816 41.3081 45.9644C42.9202 48.1019 40.4997 52.3547 39.419 54.5124C38.8697 55.6137 38.2289 57.0977 38.4231 57.467ZM46.9083 53.9685C52.245 53.5522 54.6409 54.6064 57.4008 54.1789C57.8251 54.114 61.4 52.8292 60.2835 54.5729C60.2031 54.6982 59.6382 55.119 59.3814 55.2623C55.5877 57.3618 51.363 55.8621 45.7896 56.8582C43.9563 57.185 41.6542 58.1899 41.0424 57.4155C39.7919 55.8308 43.6951 52.818 45.171 51.3117L48.5472 47.8378C47.8506 47.9229 42.7952 48.9279 43.0096 46.806C43.0833 46.083 43.244 46.2845 43.4003 46.1412C44.0456 45.6443 51.8453 45.0982 52.7809 45.3824C53.0377 46.6247 52.8836 47.0723 52.2025 48.0684C50.3514 50.77 47.8327 52.3681 46.9083 53.9685ZM26.8052 53.9887C25.8472 55.2734 25.0925 58.0646 24.4115 59.8329C23.7639 61.5138 22.8149 65.0436 20.7919 64.6877C19.3985 62.8926 21.761 56.4284 22.4621 54.5124C23.6768 51.193 25.1081 48.6414 26.7226 46.1972C25.9879 46.2285 25.3761 46.6851 24.8246 46.1188C22.6073 43.8537 32.1084 39.5158 35.8553 44.6796C39.2627 49.3733 32.4724 55.2332 27.1915 54.6132L26.8052 53.9887ZM74.1344 47.0589C75.0477 47.4081 75.722 47.3857 76.6018 47.8804C76.4924 48.9906 75.5947 49.2905 74.3689 49.4875C72.4016 49.8008 72.2811 49.3375 70.9904 48.8227C69.932 50.2015 67.0716 51.5019 64.4881 50.9893C63.9009 52.3928 61.4022 52.9031 59.4305 52.9613C58.4168 52.9926 53.0109 53.3037 52.6045 53.1829C51.8654 51.3251 54.5717 49.3711 55.2818 48.6929C55.6926 48.2989 59.1403 45.4361 59.2742 45.3735C58.0149 45.2884 56.5657 45.7987 55.1857 45.6533C53.8415 45.5122 52.7853 44.467 53.8371 43.1978C54.1273 43.0568 58.2337 42.6629 59.1269 42.5129C60.7122 42.2466 63.6106 41.6691 63.6352 43.6634C63.653 45.0041 61.7416 46.3807 61.0561 47.0947C60.1384 48.0505 59.042 49.389 57.9546 50.0314C58.6222 50.6939 59.7633 50.6715 60.8529 50.7364C61.9069 50.7991 62.867 50.5976 63.7825 50.4275C63.2176 47.52 64.3966 45.8771 66.9712 44.073C69.0902 42.589 72.8661 41.6848 74.6815 42.2331C75.2553 44.3237 73.7169 45.0892 74.1344 47.0589ZM40.4439 44.5341C38.8318 41.3042 44.6284 38.0274 45.6913 38.634C46.5398 39.1174 44.2667 41.8481 43.8826 42.4167C43.1547 43.4955 42.3174 45.0982 40.4439 44.5341ZM59.7052 18.9817C60.8708 18.778 61.4938 19.3936 61.7394 20.3784L63.0233 25.5063C63.5548 26.1644 69.3671 27.729 70.6309 28.1722C73.1854 29.0675 75.4072 30.1575 77.7719 31.3147C78.7677 31.8027 80.5318 32.6555 79.8552 34.1216C79.2724 35.3795 77.1868 35.0012 75.7198 35.0012C58.0707 35.0034 45.4479 36.5523 28.5737 38.9675C27.0396 39.1868 20.5775 40.5835 19.7692 39.7419C18.5858 38.5086 23.9827 35.8047 24.9139 35.2676C27.0888 34.0163 29.1721 32.8278 31.5189 31.8161C38.5906 28.7653 36.3063 30.4731 40.0822 24.9513C41.5693 22.7756 41.2545 22.6637 42.6367 22.3862L59.7052 18.9817ZM37.0811 9.84051C37.2598 10.5792 36.1589 10.7358 34.2632 11.508C30.9852 12.8443 28.1874 14.0933 25.1684 15.8212C17.9136 19.9733 11.9919 27.8454 9.31238 35.9704C6.8115 43.5515 6.86062 60.5111 10.1765 67.7296C12.9119 73.6812 13.6599 74.0125 17.7908 78.2339C21.6516 82.18 29.1274 87.0058 34.6383 88.4181C36.5162 88.8994 38.3807 89.1501 40.2921 89.4679C41.4197 89.6559 42.3375 90.2759 41.7748 90.5221C37.7421 92.2904 24.9027 87.158 20.975 84.434C15.8035 80.846 12.7131 76.6805 9.08016 71.9689C4.60536 66.1672 3.80374 77.3699 17.0875 87.6638C29.277 97.1117 49.3466 96.758 63.2422 90.4729C73.4221 85.8687 80.9404 79.3195 86.0962 69.5045C87.8692 66.1292 89.1665 63.2373 90.2115 59.0965C92.0939 51.6474 91.2007 39.8449 89.3139 32.4854C86.4222 21.2133 77.4771 14.2164 68.0139 9.97705C61.2995 6.96878 54.6409 7.84843 57.3003 6.16747C59.6985 4.65214 67.6254 7.60893 69.8427 8.59602C73.5181 10.2322 77.0015 12.4728 79.8708 14.438C94.1102 24.188 96.9996 45.6376 93.0161 61.675C91.9845 65.8248 90.3879 69.7306 88.4788 73.0164C84.6359 79.6239 79.0848 84.6399 72.7634 88.8188C71.9216 89.3761 68.1122 91.3167 68.6593 92.3777C69.2912 93.5998 74.0228 91.498 74.7864 91.0727C80.467 87.9145 87.6481 81.3563 91.7969 76.3381C96.5285 70.6147 99.7082 63.1366 100.601 53.4739C101.602 42.6405 100.845 35.0616 97.0599 25.8578C85.9823 -1.06894 57.9278 -4.60545 32.8877 4.53351C27.4058 6.53455 21.9084 9.29885 17.4626 12.7951C15.1671 14.6014 13.1932 16.2734 11.331 18.5161C6.44976 24.3984 3.84617 28.1274 2.02856 36.9261C1.38324 40.053 0.878599 48.5944 2.28981 51.2333C2.54883 51.719 3.50229 53.0754 4.47362 52.3995C5.21495 51.8824 5.00729 49.8792 5.04525 48.9368C5.1435 46.4702 5.39805 43.9969 5.82231 41.6467C7.26032 33.6739 10.7191 26.0391 16.4756 20.5418C18.2374 18.8608 18.1347 18.6527 20.5708 16.815C23.9939 14.2298 36.5586 7.68727 37.0811 9.84051ZM5.75086 66.5925C6.14162 66.2366 5.94289 60.6342 4.79963 57.9236C3.50006 54.8482 -1.85228 56.0927 0.664237 63.8439C1.24927 65.9121 4.08509 68.1101 5.75086 66.5925ZM26.8052 53.9887C29.1832 52.9904 31.4072 52.2092 32.651 50.3984C34.5624 47.6162 32.1687 45.8077 29.1341 45.7696C28.7099 49.0398 27.2384 51.39 26.8052 53.9887ZM67.2436 47.9676C68.1926 47.8915 69.3314 47.4036 70.0727 46.9604C70.9123 46.459 71.0552 45.5749 71.3723 44.6639C69.3604 44.9213 67.7371 46.3404 67.2436 47.9676ZM86.7773 87.017V85.2621H86.152V84.904H87.8267V85.2621H87.2038V87.017H86.7773ZM88.0969 87.017V84.904H88.7333L89.1152 86.3455L89.4925 84.904H90.1311V87.017H89.7359V85.3539L89.3184 87.017H88.9097L88.4922 85.3539V87.017H88.0969Z" fill="#F44653"/>
</svg>
