<svg width="130" height="30" viewBox="0 0 130 30" fill="none" xmlns="http://www.w3.org/2000/svg">
<path d="M16.5612 9.83353C15.656 9.54875 14.7132 9.40135 13.7642 9.39626C8.64303 9.39626 7.96151 14.3874 7.96151 18.6715V28.6461H0V0.967927H7.96348V4.88762H8.07575C9.45454 3.21535 12.0151 0.94823 14.6821 0.881261C15.9395 0.861158 17.1907 1.06114 18.3792 1.47217L16.5612 9.83353Z" fill="#D2092D"/>
<path d="M26.9751 16.0757C26.9751 19.5719 28.3401 23.5172 32.4902 23.5172C35.106 23.5172 36.7566 21.9414 37.838 19.7393L45.1751 20.9211C43.2428 26.4501 38.3501 29.5504 32.5001 29.5504C23.8551 29.5504 18.5645 23.462 18.5645 15.0613C18.5645 6.66047 23.0456 0.065918 32.0943 0.065918C41.2515 0.065918 45.3465 6.77471 45.3465 15.1184V16.0757H26.9751ZM37.8399 11.1711C37.446 8.35244 35.6221 5.59092 32.5493 5.59092C29.3643 5.59092 27.6015 8.29729 27.2016 11.1711H37.8399Z" fill="#D2092D"/>
<path d="M56.1569 0.786621H48.1934V28.4668H56.1569V0.786621Z" fill="#D2092D"/>
<path d="M67.9537 3.44789H68.068C69.5945 1.24971 72.3265 0.065918 74.8851 0.065918C78.3557 0.065918 80.7725 1.30092 82.7856 4.21804C84.5878 1.70077 87.7965 0.065918 91.0386 0.065918C98.1492 0.065918 99.9022 5.36441 99.9022 11.3976V28.6482H91.9486V14.104C91.9486 11.3976 92.118 6.38077 88.1943 6.38077C83.8709 6.38077 83.928 12.1875 83.928 15.0632V28.6541H75.9665V14.6102C75.9665 11.9038 76.3072 6.3788 72.1551 6.3788C67.7193 6.38077 67.9537 12.1304 67.9537 15.0613V28.6522H59.9824V0.968039H67.9537V3.44789Z" fill="#D2092D"/>
<path d="M130.001 28.5872H122.152V26.0502H122.038C121.21 27.1376 120.138 28.0154 118.909 28.6128C117.679 29.2101 116.327 29.5104 114.96 29.4893C106.768 29.4893 102.104 22.1029 102.104 14.6063C102.104 7.277 106.831 0.00488281 114.844 0.00488281C117.746 0.00488281 120.216 1.24579 122.15 3.50109V0.907004H130.001V28.5872ZM122.713 14.7185C122.713 10.9978 120.399 6.99534 116.302 6.99534C112.205 6.99534 109.938 10.9978 109.938 14.7185C109.938 18.4393 112.197 22.4988 116.292 22.4988C120.387 22.4988 122.703 18.4393 122.703 14.7185" fill="#D2092D"/>
</svg>
