<svg width="203" height="71" viewBox="0 0 203 71" fill="none" xmlns="http://www.w3.org/2000/svg">
<path d="M0 0.478271V70.4783H69.8394V0.478271H0ZM40.548 48.6919C40.536 49.6733 40.1396 50.6109 39.4443 51.302C38.7491 51.9931 37.8106 52.3828 36.8314 52.3865H32.9624C31.9888 52.3865 31.0551 51.9992 30.3666 51.309C29.6782 50.6188 29.2915 49.6831 29.2915 48.7073V39.2722C29.2915 38.7741 29.4888 38.2965 29.8402 37.9443C30.1915 37.5921 30.6681 37.3943 31.165 37.3943C31.6619 37.3943 32.1384 37.5921 32.4898 37.9443C32.8412 38.2965 33.0385 38.7741 33.0385 39.2722V48.6765H36.7856V29.8676H19.9084C19.4115 29.8676 18.935 29.6697 18.5836 29.3176C18.2323 28.9654 18.0349 28.4877 18.0349 27.9897C18.0349 27.4917 18.2323 27.0141 18.5836 26.6619C18.935 26.3097 19.4115 26.1119 19.9084 26.1119H36.8009C37.293 26.1119 37.7802 26.209 38.2349 26.3977C38.6895 26.5865 39.1026 26.8631 39.4505 27.2119C39.7984 27.5606 40.0745 27.9746 40.2628 28.4303C40.4511 28.886 40.548 29.3744 40.548 29.8676V48.6919ZM49.931 26.1271C49.4342 26.1271 48.9575 25.9293 48.6064 25.5771C48.2549 25.225 48.0575 24.7473 48.0575 24.2492V22.3561H19.9084C19.4115 22.3561 18.935 22.1583 18.5836 21.8061C18.2323 21.454 18.0349 20.9763 18.0349 20.4783C18.0349 19.9802 18.2323 19.5026 18.5836 19.1504C18.935 18.7983 19.4115 18.6004 19.9084 18.6004H48.0421C49.0306 18.6004 49.9794 18.9919 50.6811 19.6896C51.3827 20.3873 51.7813 21.3348 51.7892 22.3256V24.2646C51.7892 24.7599 51.5941 25.2353 51.2459 25.587C50.8981 25.9388 50.4255 26.1384 49.931 26.1424V26.1271Z" fill="#1A2026"/>
<path d="M92.4445 4.2491H87.2507V0.783447H101.371V4.2491H96.1916V17.8522H92.4445V4.2491Z" fill="#1A2026"/>
<path d="M103.243 9.31785C103.194 7.514 103.684 5.7366 104.649 4.21314C105.614 2.68968 107.01 1.48938 108.659 0.765822C110.309 0.0422631 112.136 -0.171662 113.907 0.151418C115.679 0.474498 117.313 1.31989 118.603 2.57944C119.892 3.83899 120.777 5.45544 121.145 7.22196C121.512 8.98848 121.346 10.8247 120.666 12.4958C119.987 14.1669 118.826 15.5969 117.331 16.6028C115.836 17.6087 114.076 18.1447 112.276 18.1423C111.1 18.1728 109.931 17.9672 108.836 17.5374C107.741 17.1077 106.743 16.4625 105.902 15.6401C105.06 14.8176 104.391 13.8344 103.934 12.7485C103.477 11.6627 103.243 10.4962 103.243 9.31785ZM117.424 9.31785C117.448 8.62219 117.333 7.92872 117.085 7.27866C116.837 6.62859 116.46 6.03522 115.978 5.53384C115.497 5.03247 114.919 4.63334 114.28 4.36018C113.642 4.08702 112.954 3.94543 112.26 3.94381C111.569 3.94302 110.885 4.08295 110.249 4.35512C109.614 4.62729 109.04 5.02602 108.563 5.52712C108.086 6.02822 107.715 6.62126 107.473 7.27026C107.232 7.91925 107.124 8.61066 107.157 9.30259C107.133 9.99694 107.248 10.6892 107.495 11.3382C107.743 11.9873 108.117 12.5799 108.597 13.0811C109.077 13.5823 109.653 13.9818 110.29 14.2558C110.927 14.5299 111.613 14.673 112.306 14.6766C112.998 14.6795 113.684 14.5411 114.321 14.2698C114.959 13.9986 115.534 13.6002 116.013 13.0989C116.492 12.5975 116.864 12.0038 117.106 11.3538C117.349 10.7038 117.457 10.011 117.424 9.31785Z" fill="#1A2026"/>
<path d="M125.162 0.783447H132.123C136.175 0.783447 138.613 3.19566 138.613 6.72239C138.613 10.6766 135.566 12.6918 131.743 12.6918H128.909V17.8063H125.162V0.783447ZM131.88 9.39415C132.251 9.43942 132.628 9.40535 132.985 9.29419C133.342 9.18308 133.673 8.99734 133.953 8.74931C134.234 8.50128 134.458 8.1965 134.613 7.85504C134.768 7.51358 134.849 7.14318 134.85 6.76817C134.85 5.08879 133.677 4.18803 131.804 4.18803H128.909V9.39415H131.88Z" fill="#1A2026"/>
<path d="M86.4883 41.6997L88.6971 39.0432C90.0859 40.3296 91.8939 41.0674 93.7842 41.1196C95.3076 41.1196 96.2369 40.5089 96.2369 39.4554C96.2369 38.402 95.6577 38.0203 92.8097 37.2875C89.3824 36.402 87.1583 35.4554 87.1583 32.0203C87.1583 28.9669 89.6413 26.8753 93.1142 26.8753C95.4086 26.8382 97.6444 27.6049 99.4356 29.0432L97.4857 31.8982C96.2113 30.9024 94.666 30.3169 93.0532 30.2188C91.6215 30.2188 90.8598 30.8753 90.8598 31.7455C90.8598 32.8753 91.5907 33.2722 94.531 33.9898C97.9885 34.8905 99.938 36.1425 99.938 39.1654C99.938 42.5547 97.3641 44.4631 93.6929 44.4631C91.0344 44.4595 88.4699 43.476 86.4883 41.6997Z" fill="#1A2026"/>
<path d="M107.311 30.6004H102.132V27.1348H116.237V30.6004H111.058V44.2035H107.311V30.6004Z" fill="#1A2026"/>
<path d="M119.589 27.1348H127.372C128.272 27.0774 129.176 27.2004 130.028 27.4966C130.881 27.7929 131.666 28.2563 132.338 28.86C132.845 29.3822 133.24 30.0017 133.502 30.6812C133.764 31.3607 133.886 32.0862 133.861 32.8142C133.917 33.9772 133.59 35.1263 132.929 36.0839C132.268 37.0415 131.311 37.7542 130.205 38.1119L134.363 44.2188H129.931L126.23 38.7531H123.381V44.2188H119.589V27.1348ZM127.204 35.4249C129.032 35.4249 130.068 34.4478 130.068 32.9669C130.068 31.486 128.956 30.5241 127.128 30.5241H123.381V35.4249H127.204Z" fill="#1A2026"/>
<path d="M137.669 27.1348H150.509V30.4783H141.385V33.9439H149.412V37.2874H141.385V40.8599H150.631V44.2035H137.669V27.1348Z" fill="#1A2026"/>
<path d="M158.414 30.6004H153.236V27.1348H167.341V30.6004H162.162V44.2035H158.414V30.6004Z" fill="#1A2026"/>
<path d="M169.214 35.669C169.193 34.4979 169.409 33.3346 169.848 32.2495C170.288 31.1643 170.943 30.1797 171.773 29.3551C172.603 28.5304 173.591 27.8828 174.677 27.4513C175.764 27.0199 176.926 26.8135 178.094 26.8446C179.328 26.8035 180.557 27.0305 181.696 27.5102C182.834 27.9898 183.855 28.7106 184.69 29.6232L182.451 32.2034C181.893 31.5957 181.215 31.112 180.459 30.7832C179.703 30.4545 178.888 30.2882 178.064 30.295C177.385 30.3102 176.716 30.4624 176.097 30.7423C175.478 31.0223 174.922 31.4243 174.461 31.9244C174.001 32.4245 173.645 33.0124 173.416 33.6532C173.187 34.2939 173.089 34.9743 173.129 35.6537C173.089 36.3332 173.187 37.0136 173.416 37.6543C173.645 38.295 174.001 38.883 174.461 39.3831C174.922 39.8832 175.478 40.2852 176.097 40.5651C176.716 40.8451 177.385 40.9972 178.064 41.0125C178.908 41.0082 179.741 40.8282 180.512 40.4839C181.283 40.1396 181.974 39.6386 182.542 39.0125L184.918 41.5774C183.68 42.869 182.091 43.7684 180.348 44.1643C178.605 44.5602 176.785 44.4352 175.112 43.8049C173.439 43.1745 171.987 42.0664 170.937 40.6176C169.885 39.1689 169.281 37.4431 169.198 35.6537L169.214 35.669Z" fill="#1A2026"/>
<path d="M188.406 27.1348H192.153V33.8981H199.069V27.1348H202.816V44.2035H199.069V37.3485H192.153V44.2035H188.406V27.1348Z" fill="#1A2026"/>
<path d="M162.802 53.1042H159.054V70.1731H162.802V53.1042Z" fill="#1A2026"/>
<path d="M167.538 53.1042H170.996L178.978 63.6234V53.1042H182.679V70.1731H179.48L171.24 59.3333V70.1731H167.538V53.1042Z" fill="#1A2026"/>
<path d="M186.488 61.6385C186.479 60.4667 186.705 59.3057 187.153 58.223C187.6 57.1408 188.259 56.1589 189.091 55.3362C189.923 54.5135 190.911 53.8667 191.998 53.4331C193.083 53.0001 194.245 52.7896 195.414 52.8139C197.862 52.6841 200.263 53.5227 202.101 55.15L199.74 58.0046C198.542 56.8655 196.943 56.2457 195.292 56.2798C193.934 56.4109 192.676 57.0531 191.772 58.0769C190.868 59.1008 190.385 60.4303 190.42 61.7967C190.454 63.1636 191.005 64.4665 191.959 65.4428C192.915 66.4191 194.203 66.9963 195.566 67.0584C196.822 67.0976 198.058 66.7397 199.1 66.0355V63.5925H195.322V60.3561H202.725V67.7757C200.705 69.5303 198.117 70.4903 195.444 70.4781C194.264 70.5379 193.084 70.3517 191.979 69.9303C190.875 69.5093 189.869 68.8625 189.028 68.0314C188.185 67.2003 187.525 66.203 187.087 65.1021C186.65 64.0017 186.446 62.822 186.488 61.6385Z" fill="#1A2026"/>
<path d="M201.324 9.63865H148.742C148.338 9.63865 147.951 9.47779 147.665 9.19149C147.38 8.90519 147.219 8.51683 147.219 8.11195C147.219 7.70702 147.38 7.31871 147.665 7.03236C147.951 6.74606 148.338 6.58521 148.742 6.58521H201.309C201.712 6.58521 202.1 6.74606 202.386 7.03236C202.672 7.31871 202.832 7.70702 202.832 8.11195C202.832 8.51683 202.672 8.90519 202.386 9.19149C202.1 9.47779 201.712 9.63865 201.309 9.63865H201.324Z" fill="#1A2026"/>
<path d="M148.499 63.0737H88.8799C88.4757 63.0737 88.0884 62.9131 87.8025 62.6266C87.5171 62.3405 87.3564 61.9523 87.3564 61.5472C87.3564 61.1421 87.5171 60.7539 87.8025 60.4678C88.0884 60.1813 88.4757 60.0203 88.8799 60.0203H148.499C148.902 60.0203 149.29 60.1813 149.575 60.4678C149.861 60.7539 150.021 61.1421 150.021 61.5472C150.021 61.9523 149.861 62.3405 149.575 62.6266C149.29 62.9131 148.902 63.0737 148.499 63.0737Z" fill="#1A2026"/>
</svg>
