<svg width="54" height="60" viewBox="0 0 54 60" fill="none" xmlns="http://www.w3.org/2000/svg">
<path d="M53.8965 2.2286C53.7438 1.65434 53.4239 1.13839 52.9775 0.746193C52.5311 0.353993 51.9782 0.103212 51.3891 0.0256595C50.8 -0.0518934 50.2011 0.0472759 49.6684 0.310589C49.1357 0.573902 48.6932 0.989495 48.397 1.50466L35.998 22.9839V19.0033C35.998 17.9425 35.5766 16.9251 34.8265 16.1751C34.0764 15.425 33.0591 15.0036 31.9983 15.0036H26.9987V13.0037H31.9983C32.2635 13.0037 32.5178 12.8984 32.7053 12.7109C32.8929 12.5233 32.9982 12.269 32.9982 12.0038C32.9982 11.7386 32.8929 11.4843 32.7053 11.2968C32.5178 11.1092 32.2635 11.0039 31.9983 11.0039V8.00414C31.9983 7.73894 31.8929 7.48461 31.7054 7.29709C31.5179 7.10957 31.2636 7.00422 30.9984 7.00422H26.9987C26.7335 7.00422 26.4792 7.10957 26.2916 7.29709C26.1041 7.48461 25.9988 7.73894 25.9988 8.00414V11.0039C25.7336 11.0039 25.4792 11.1092 25.2917 11.2968C25.1042 11.4843 24.9988 11.7386 24.9988 12.0038V15.1456C24.1428 15.3666 23.3841 15.8651 22.8413 16.563C22.2986 17.261 22.0024 18.1191 21.9991 19.0033V25.0598C21.5451 25.2081 21.1319 25.4601 20.7922 25.7957C20.5817 26.0056 20.2965 26.1235 19.9992 26.1235C19.702 26.1235 19.4168 26.0056 19.2063 25.7957C18.612 25.2277 17.8216 24.9106 16.9995 24.9106C16.1774 24.9106 15.3869 25.2277 14.7927 25.7957C14.1648 26.4343 13.6589 27.1822 13.2998 28.0025H11.9089L10.76 25.4587C10.5559 25.0067 10.5271 24.4949 10.6792 24.0228C10.8313 23.5507 11.1533 23.1519 11.5829 22.904L15.5406 20.6191C15.9697 20.3694 16.4766 20.2888 16.9619 20.3933C17.4473 20.4979 17.8761 20.7799 18.1644 21.1841C18.3193 21.3994 18.5533 21.5444 18.8151 21.5872C19.0769 21.6299 19.3449 21.5669 19.5603 21.4121C19.7756 21.2572 19.9206 21.0231 19.9634 20.7613C20.0061 20.4996 19.9431 20.2315 19.7883 20.0162C19.387 19.458 18.8478 19.0135 18.2233 18.7261C17.5989 18.4387 16.9105 18.3181 16.2255 18.3763L14.5257 15.4315L13.0258 12.8318L13.8917 12.3318L17.3555 10.332C17.4693 10.2664 17.569 10.179 17.649 10.0749C17.7291 9.97075 17.7878 9.85187 17.8219 9.72503C17.856 9.59819 17.8647 9.46587 17.8477 9.33565C17.8306 9.20542 17.788 9.07984 17.7224 8.96606L15.7226 5.50234C15.6569 5.38849 15.5695 5.28871 15.4652 5.20869C15.361 5.12867 15.242 5.06998 15.115 5.036C14.9881 5.00201 14.8556 4.99337 14.7254 5.0106C14.5951 5.02782 14.4695 5.07056 14.3557 5.13637L10.892 7.13621L0.500798 13.1357C0.386819 13.2014 0.286915 13.2889 0.206809 13.3932C0.126704 13.4976 0.06797 13.6167 0.0339735 13.7437C-2.2864e-05 13.8708 -0.00861391 14.0033 0.00869223 14.1337C0.0259984 14.2641 0.0688615 14.3898 0.134827 14.5036L2.13467 17.9673C2.26727 18.197 2.48567 18.3646 2.74182 18.4332C2.99797 18.5018 3.2709 18.4659 3.50056 18.3333C3.84191 18.1361 4.21879 18.0082 4.60963 17.9567C5.00047 17.9053 5.39762 17.9314 5.77837 18.0335C6.15912 18.1357 6.516 18.3119 6.82861 18.5521C7.14122 18.7922 7.40342 19.0917 7.60023 19.4332L9.3001 22.377C8.90739 22.9414 8.66771 23.598 8.60444 24.2827C8.54118 24.9674 8.65649 25.6568 8.93913 26.2837L9.71406 28.0025H5.00044C4.73524 28.0025 4.48091 28.1079 4.29339 28.2954C4.10587 28.4829 4.00052 28.7373 4.00052 29.0025C4.00052 29.2677 4.10587 29.522 4.29339 29.7095C4.48091 29.897 4.73524 30.0024 5.00044 30.0024H12.6998L12.4138 32.0022H5.00044C4.73524 32.0022 4.48091 32.1076 4.29339 32.2951C4.10587 32.4826 4.00052 32.737 4.00052 33.0022C4.00052 33.2673 4.10587 33.5217 4.29339 33.7092C4.48091 33.8967 4.73524 34.0021 5.00044 34.0021H7.14227L7.45024 36.0019H5.00044C4.73524 36.0019 4.48091 36.1073 4.29339 36.2948C4.10587 36.4823 4.00052 36.7366 4.00052 37.0018C4.00052 47.478 12.9718 56.0003 23.9989 56.0003C28.32 56.0092 32.534 54.6558 36.042 52.1326L35.14 58.0002H12.8578L12.3729 54.8484C12.3286 54.5903 12.1849 54.3598 11.9725 54.2066C11.7602 54.0533 11.4962 53.9895 11.2373 54.0288C10.9784 54.068 10.7452 54.2073 10.5879 54.4167C10.4306 54.6261 10.3617 54.8888 10.396 55.1484L11.012 59.1481C11.0474 59.3848 11.1666 59.601 11.3479 59.7573C11.5291 59.9137 11.7605 59.9998 11.9999 60H35.998C36.2368 59.9999 36.4676 59.9144 36.6488 59.7588C36.83 59.6033 36.9496 59.3881 36.9859 59.1521L38.3658 50.1868C40.1372 48.4764 41.5481 46.4285 42.5153 44.164C43.4825 41.8995 43.9865 39.4642 43.9973 37.0018C43.9973 36.7366 43.892 36.4823 43.7045 36.2948C43.5169 36.1073 43.2626 36.0019 42.9974 36.0019H40.5476L40.8556 34.0021H42.9974C43.2626 34.0021 43.5169 33.8967 43.7045 33.7092C43.892 33.5217 43.9973 33.2673 43.9973 33.0022V29.0025C43.9973 28.7373 43.892 28.4829 43.7045 28.2954C43.5169 28.1079 43.2626 28.0025 42.9974 28.0025H40.0276L43.6184 21.784C43.7489 21.5545 43.7833 21.2827 43.7141 21.0278C43.6449 20.773 43.4778 20.5559 43.2491 20.4239C43.0204 20.2918 42.7488 20.2556 42.4935 20.3231C42.2383 20.3906 42.02 20.5563 41.8865 20.7841L37.7178 28.0025H35.41L50.1308 2.50458C50.1943 2.38671 50.2807 2.28278 50.3851 2.19894C50.4894 2.1151 50.6095 2.05307 50.7383 2.01651C50.867 1.97996 51.0018 1.96963 51.1347 1.98613C51.2675 2.00264 51.3956 2.04564 51.5116 2.1126C51.6274 2.17955 51.7287 2.26909 51.8094 2.37592C51.89 2.48274 51.9484 2.60467 51.9811 2.73447C52.0137 2.86428 52.02 2.99932 51.9995 3.13159C51.979 3.26386 51.9321 3.39067 51.8617 3.5045L43.8863 17.3204C43.8196 17.4342 43.7761 17.56 43.7583 17.6906C43.7404 17.8213 43.7485 17.9542 43.7822 18.0817C43.816 18.2092 43.8745 18.3287 43.9547 18.4335C44.0348 18.5382 44.1348 18.6261 44.249 18.6921C44.3632 18.758 44.4893 18.8007 44.6201 18.8177C44.7508 18.8347 44.8837 18.8256 45.0109 18.7911C45.1382 18.7565 45.2574 18.6972 45.3616 18.6164C45.4658 18.5356 45.553 18.435 45.6182 18.3203L53.5966 4.50442C53.7942 4.16363 53.9225 3.78708 53.974 3.39649C54.0255 3.00589 53.9992 2.60897 53.8965 2.2286ZM10.83 21.0291L9.83005 19.2972L11.5619 18.2973L13.2938 17.2974L14.2937 19.0293L10.83 21.0291ZM14.4897 7.37019L15.4896 9.10205L13.7577 10.102L13.2578 9.23604L12.7578 8.37011L14.4897 7.37019ZM4.99044 15.9325C4.45513 15.9326 3.92335 16.0191 3.41557 16.1885L2.36565 14.3696L11.025 9.37003L11.5249 10.236L12.0249 11.1019L11.1589 11.6019C10.9293 11.7345 10.7617 11.9529 10.6931 12.209C10.6245 12.4652 10.6604 12.7381 10.793 12.9677L12.2929 15.5675L11.1929 16.2045L8.74614 17.6174C8.27496 17.0871 7.69669 16.6627 7.04948 16.3723C6.40226 16.0819 5.70083 15.932 4.99144 15.9325H4.99044ZM23.9989 24.0029V22.003H33.9981V24.0029H23.9989ZM27.9986 9.00406H29.9984V11.0039H27.9986V9.00406ZM25.9988 17.0034H31.9983C32.5287 17.0034 33.0373 17.2141 33.4124 17.5892C33.7874 17.9642 33.9981 18.4729 33.9981 19.0033V20.0032H23.9989V19.0033C23.9989 18.4729 24.2096 17.9642 24.5847 17.5892C24.9597 17.2141 25.4684 17.0034 25.9988 17.0034ZM12.1329 34.0021L10.7 44.0013L9.16611 34.0021H12.1329ZM7.75822 38.0018L9.05812 46.4351C7.27914 43.963 6.23038 41.0409 6.03136 38.0018H7.75822ZM41.9665 38.0018C41.7682 41.0402 40.7205 43.962 38.9427 46.4341L40.2396 38.0018H41.9665ZM41.9975 32.0022H30.7124C30.4472 32.0022 30.1929 32.1076 30.0053 32.2951C29.8178 32.4826 29.7125 32.737 29.7125 33.0022C29.7125 33.2673 29.8178 33.5217 30.0053 33.7092C30.1929 33.8967 30.4472 34.0021 30.7124 34.0021H38.8317L36.4909 49.2189C33.1333 52.2311 28.8002 53.9284 24.29 53.9983C19.7797 54.0681 15.3962 52.5057 11.9469 49.5988L14.4877 48.074C14.9158 47.8167 15.4109 47.693 15.9097 47.7189C16.4085 47.7447 16.8882 47.9188 17.2875 48.2189C18.0703 48.8018 19.0202 49.1166 19.9962 49.1166C20.9722 49.1166 21.9222 48.8018 22.705 48.2189C23.1043 47.9188 23.584 47.7447 24.0828 47.7189C24.5816 47.693 25.0767 47.8167 25.5048 48.074C25.9344 48.3337 26.4289 48.4661 26.9308 48.4557C27.4327 48.4454 27.9214 48.2926 28.3398 48.0153C28.7583 47.7379 29.0894 47.3474 29.2945 46.8892C29.4996 46.431 29.5704 45.924 29.4985 45.4272L28.8515 40.9015C28.814 40.639 28.6737 40.4021 28.4615 40.243C28.2494 40.0839 27.9827 40.0156 27.7201 40.0531C27.4576 40.0906 27.2207 40.2309 27.0616 40.4431C26.9025 40.6553 26.8342 40.922 26.8717 41.1845L27.5186 45.7101C27.5381 45.8322 27.5215 45.9573 27.4709 46.0701C27.4203 46.1829 27.3378 46.2785 27.2337 46.3451C27.1323 46.4152 27.0126 46.454 26.8894 46.4567C26.7663 46.4593 26.645 46.4257 26.5407 46.3601C25.9988 46.0386 25.3956 45.8342 24.7699 45.7601L23.9989 34.931C23.9896 34.7997 23.9545 34.6715 23.8956 34.5537C23.8368 34.436 23.7553 34.331 23.6559 34.2447C23.5564 34.1585 23.441 34.0927 23.3161 34.051C23.1912 34.0094 23.0593 33.9927 22.928 34.0021C22.7967 34.0114 22.6685 34.0465 22.5508 34.1054C22.433 34.1642 22.328 34.2457 22.2418 34.3451C22.1555 34.4446 22.0897 34.56 22.048 34.6849C22.0064 34.8098 21.9898 34.9417 21.9991 35.073L22.777 45.9541C22.3206 46.1065 21.8916 46.331 21.5061 46.6191C21.0699 46.9434 20.5408 47.1186 19.9972 47.1186C19.4537 47.1186 18.9246 46.9434 18.4884 46.6191C18.1483 46.3663 17.7747 46.1621 17.3785 46.0121L18.9893 33.1261C19.0156 32.8664 18.9392 32.6066 18.7764 32.4024C18.6137 32.1983 18.3776 32.0658 18.1185 32.0334C17.8594 32.001 17.5979 32.0713 17.39 32.2291C17.182 32.387 17.044 32.6199 17.0055 32.8782L15.3996 45.7311C14.7126 45.7897 14.0481 46.0044 13.4568 46.3591L12.2859 47.059L14.6857 30.2394C14.727 29.9537 14.7912 29.6718 14.8777 29.3964L14.8867 29.3764C15.146 28.5583 15.5972 27.814 16.2025 27.2056C16.413 26.9957 16.6982 26.8778 16.9955 26.8778C17.2928 26.8778 17.5779 26.9957 17.7884 27.2056C18.3827 27.7737 19.1731 28.0907 19.9952 28.0907C20.8174 28.0907 21.6078 27.7737 22.2021 27.2056C22.4126 26.9957 22.6977 26.8778 22.995 26.8778C23.2923 26.8778 23.5774 26.9957 23.7879 27.2056C24.3927 27.8141 24.8438 28.5579 25.1038 29.3754L25.1128 29.3964C25.1998 29.672 25.264 29.9543 25.3048 30.2404L26.3047 37.2208C26.3201 37.3535 26.362 37.4818 26.4278 37.598C26.4936 37.7143 26.582 37.8162 26.6878 37.8977C26.7936 37.9792 26.9147 38.0387 27.0439 38.0726C27.1731 38.1065 27.3078 38.1142 27.44 38.0953C27.5723 38.0763 27.6993 38.031 27.8138 37.9621C27.9282 37.8932 28.0277 37.8021 28.1063 37.6941C28.1849 37.5861 28.2411 37.4635 28.2716 37.3334C28.302 37.2033 28.3061 37.0685 28.2836 36.9368L27.2987 30.0024H41.9975V32.0022ZM26.6987 28.0025C26.3713 27.2683 25.9258 26.5928 25.3798 26.0027H33.9981V26.4477L33.0982 28.0025H26.6987Z" fill="#F24538"/>
</svg>
