<svg width="22" height="22" viewBox="0 0 22 22" fill="none" xmlns="http://www.w3.org/2000/svg">
<path d="M21.4799 0.0767822H16.5403C16.253 0.0767822 16.0201 0.309672 16.0201 0.596934V1.98401C16.0201 2.27127 16.253 2.50416 16.5403 2.50416H17.8561L13.8941 6.46612C13.691 6.66926 13.691 6.99855 13.894 7.20169L14.8748 8.18255C14.9724 8.28013 15.1047 8.33492 15.2427 8.33492C15.3807 8.33492 15.5129 8.28013 15.6105 8.18255L19.5726 4.22052V5.53644C19.5726 5.8237 19.8054 6.05659 20.0927 6.05659H21.4798C21.767 6.05659 21.9999 5.8237 21.9999 5.53644V0.596934C22 0.309672 21.7671 0.0767822 21.4799 0.0767822Z" fill="white"/>
<path d="M7.12497 13.8174C7.02739 13.7199 6.89513 13.665 6.75712 13.665C6.61918 13.665 6.48685 13.7198 6.38934 13.8174L2.42738 17.7794V16.4634C2.42738 16.1761 2.19449 15.9432 1.90722 15.9432H0.520152C0.232889 15.9432 0 16.1761 0 16.4634V21.403C0 21.6902 0.232889 21.9231 0.520152 21.9231H5.45972C5.74699 21.9231 5.97988 21.6902 5.97988 21.403V20.0159C5.97988 19.7286 5.74699 19.4957 5.45972 19.4957H4.14381L8.1057 15.5339C8.30884 15.3308 8.30884 15.0015 8.1057 14.7983L7.12497 13.8174Z" fill="white"/>
</svg>
