<?xml version="1.0" encoding="utf-8"?>
<!-- Generator: Adobe Illustrator 19.1.0, SVG Export Plug-In . SVG Version: 6.00 Build 0)  -->
<svg version="1.1" id="Capa_1" xmlns="http://www.w3.org/2000/svg" xmlns:xlink="http://www.w3.org/1999/xlink" x="0px" y="0px"
	 viewBox="0 91 612 612" enable-background="new 0 91 612 612" xml:space="preserve">
<g>
	<g>
		<path fill="#FFFFFF" d="M612,397c0-169-137-306-306-306C137,91,0,228,0,397c0,169,137,306,306,306C475,703,612,566,612,397z
			 M27.8,397c0-153.6,124.5-278.2,278.2-278.2S584.2,243.4,584.2,397S459.6,675.2,306,675.2S27.8,550.6,27.8,397z"/>
		<path fill="#FFFFFF" d="M317.7,573.6V397H376l9.2-58.5h-67.5v-29.3c0-15.3,5-29.8,26.9-29.8h43.8v-58.4h-62.2
			c-52.3,0-66.6,34.4-66.6,82.2v35.4h-35.9V397h35.9v176.6H317.7L317.7,573.6z"/>
	</g>
</g>
</svg>
