<svg width="188" height="103" viewBox="0 0 188 103" fill="none" xmlns="http://www.w3.org/2000/svg">
<path d="M93.998 0L0 28.9595V73.0938L93.998 102.108L188 73.0938V28.9595L93.998 0Z" fill="#F24538"/>
<path d="M27.0774 47.2643L23.7822 42.6302H21.258V47.2643H19.3248V35.7654H21.258V40.7059H23.4065L26.8426 35.7654H29.2611L25.4102 41.3538L29.492 47.2643H27.0774Z" fill="white"/>
<path d="M37.1351 44.0636H33.6834V47.2604H31.7658V35.7654H37.1312C39.4245 35.7654 41.2678 37.6151 41.2678 39.9165C41.2717 42.2139 39.4284 44.0636 37.1351 44.0636ZM37.1351 37.6858H33.6834V42.1236H37.1351C38.3522 42.1236 39.3384 41.1339 39.3384 39.9125C39.3384 38.6912 38.3522 37.6858 37.1351 37.6858Z" fill="white"/>
<path d="M51.3176 47.2643L50.5662 45.1279H44.2342L43.4828 47.2643H41.4243L45.4709 35.7654H49.3139L53.3605 47.2643H51.3176ZM46.8288 37.6858L44.8917 43.1839H49.8814L47.9442 37.6858H46.8288Z" fill="white"/>
<path d="M60.1346 47.4057C56.8943 47.4057 54.5305 44.7666 54.5305 41.5149C54.5305 38.2631 56.8943 35.624 60.1346 35.624C61.6022 35.624 62.2284 35.8165 64.0481 36.3427L63.5198 38.2199C61.8096 37.7447 61.0308 37.6151 60.1346 37.6151C57.9861 37.6151 56.5381 39.3588 56.5381 41.5149C56.5381 43.6709 57.99 45.395 60.1346 45.395C61.0308 45.395 61.927 45.2497 63.4454 44.9041L63.8485 46.8049C62.2205 47.2015 61.6022 47.4057 60.1346 47.4057Z" fill="white"/>
<path d="M75.1194 47.2643V42.4495H68.4273V47.2643H66.4941V35.7654H68.4273V40.5252H75.1194V35.7654H77.0331V47.2643H75.1194Z" fill="white"/>
<path d="M86.3394 47.2643H79.9526V35.7654H81.8858V40.0775H86.3394C88.3079 40.0775 89.9202 41.6955 89.9202 43.6709C89.9202 45.6463 88.3118 47.2643 86.3394 47.2643ZM86.3394 41.9979H81.8858V45.3204H86.3394C87.2512 45.3204 88.0065 44.582 88.0065 43.667C88.0065 42.7519 87.2551 41.9979 86.3394 41.9979ZM90.9769 47.2643V35.7654H92.9101V47.2643H90.9769Z" fill="white"/>
<path d="M104.51 47.2643V39.7711L95.9391 47.4607V35.7653H97.8176V42.9522L106.388 35.408V47.2643H104.51ZM99.6491 38.3848V35.7614H103.156L99.6491 38.3848Z" fill="white"/>
<path d="M55.9942 60.6995C55.9942 64.2104 53.3252 66.5707 50.03 66.5707C46.7349 66.5707 44.0659 64.2104 44.0659 60.6995C44.0659 57.0864 46.7349 54.8282 50.03 54.8282C53.3252 54.8282 55.9942 57.0903 55.9942 60.6995ZM50.03 56.8115C47.8502 56.8115 46.0813 58.1821 46.0813 60.6995C46.0813 63.1147 47.8502 64.5874 50.03 64.5874C52.2098 64.5874 53.9787 63.1147 53.9787 60.6995C53.9787 58.1821 52.2098 56.8115 50.03 56.8115Z" fill="white"/>
<path d="M101.125 66.4449L100.373 64.3085H94.049L93.2976 66.4449H91.243L95.2817 54.9656H99.1208L103.16 66.4449H101.125ZM96.6475 56.886L94.7142 62.3763H99.6961L97.7629 56.886H96.6475Z" fill="white"/>
<path d="M138.717 66.445V58.9636L130.159 66.6413V54.9657H132.037V62.1407L140.596 54.6083V66.4489H138.717V66.445ZM133.861 57.5812V54.9657H137.363L133.861 57.5812Z" fill="white"/>
<path d="M27.9384 66.4449V56.886H21.2581V66.4449H19.3287V54.9656H29.8521V66.4449H27.9384Z" fill="white"/>
<path d="M38.2113 63.252H34.7674V66.4449H32.8537V54.9656H38.2113C40.5007 54.9656 42.34 56.8114 42.34 59.1088C42.34 61.4062 40.5007 63.252 38.2113 63.252ZM38.2113 56.886H34.7674V61.3159H38.2113C39.4284 61.3159 40.4106 60.3302 40.4106 59.1088C40.4106 57.8874 39.4284 56.886 38.2113 56.886Z" fill="white"/>
<path d="M56.7534 65.251C58.8745 63.527 59.0858 59.5801 59.0858 56.8821V54.9617H68.0907V66.441H66.1614V56.8821H61.0191V57.3298C61.0191 59.5055 60.9721 64.0611 58.1152 66.657L56.7534 65.251Z" fill="white"/>
<path d="M70.9867 66.4449V54.9656H79.5064V56.886H72.916V59.7568H78.0779V61.6419H72.916V64.5127H79.5064V66.4488H70.9867V66.4449Z" fill="white"/>
<path d="M87.6934 56.886V66.4449H85.7797V56.886H81.7097V54.9656H91.6734V56.886H87.6934Z" fill="white"/>
<path d="M110.329 63.252H106.885V66.4449H104.971V54.9656H110.329C112.618 54.9656 114.458 56.8114 114.458 59.1088C114.458 61.4062 112.614 63.252 110.329 63.252ZM110.329 56.886H106.885V61.3159H110.329C111.546 61.3159 112.528 60.3302 112.528 59.1088C112.528 57.8874 111.542 56.886 110.329 56.886Z" fill="white"/>
<path d="M125.2 66.445V58.6572L116.641 66.6452V54.9696H118.52V62.3606L127.079 54.6122V66.4528H125.2V66.445Z" fill="white"/>
</svg>
