<svg width="30" height="38" viewBox="0 0 30 38" fill="none" xmlns="http://www.w3.org/2000/svg">
<path d="M19.0923 30.4083L14.1714 25.6907C13.0078 24.575 11.2344 24.4549 9.95517 25.4057C9.95471 25.4059 9.94875 25.41 9.94852 25.4105L9.92673 25.4268C9.90059 25.4465 9.87605 25.4467 9.85954 25.444C9.83064 25.4385 9.81872 25.4201 9.81459 25.413C8.67781 23.6082 7.9091 21.6245 7.5291 19.5167C7.14956 17.4085 7.178 15.2801 7.61464 13.1909C7.61601 13.1838 7.62014 13.165 7.64262 13.1515C7.66096 13.1407 7.68114 13.1384 7.70339 13.1451L7.73733 13.1549C9.27177 13.604 10.8975 12.8706 11.6018 11.4118L14.8224 4.74291C15.2763 3.80312 15.0818 2.68101 14.3392 1.94831C14.076 1.68183 13.7762 1.43117 13.4481 1.20276C10.5088 -0.83873 6.49712 -0.222752 4.31505 2.60533C4.17952 2.78237 4.05362 2.96767 3.9323 3.1548L3.93093 3.15687C3.49429 3.80335 3.27757 4.20697 2.95032 4.81675L2.8806 4.94632C2.80194 5.09149 0.946213 8.52707 0.488931 10.9458C-0.219924 14.6976 -0.157088 18.5774 0.671477 22.1653C1.54683 25.9552 3.21107 29.3272 5.61741 32.1874C6.22812 32.9132 7.3594 31.9631 6.748 31.2361C4.49324 28.5567 2.93312 25.3926 2.1112 21.8327C1.3285 18.4423 1.26934 14.7728 1.94081 11.2201C2.35475 9.0293 4.16049 5.68476 4.18021 5.64876L4.25176 5.51552C4.53727 4.98393 4.83747 4.47207 5.16678 3.96663L5.17183 3.9586C5.2709 3.80197 5.37662 3.65016 5.48876 3.5027C7.19015 1.30274 10.3145 0.825511 12.6048 2.41614C12.8598 2.59318 13.0906 2.78627 13.291 2.98946C13.2937 2.99244 13.2967 2.99542 13.2997 2.9984C13.5937 3.28667 13.671 3.72973 13.4919 4.10033L10.2714 10.7692C9.88201 11.5751 8.99061 11.9821 8.1531 11.7374L8.12512 11.729C7.70912 11.6049 7.25757 11.6606 6.88629 11.8821C6.51776 12.1018 6.25609 12.4685 6.16849 12.8887C5.69263 15.1645 5.66144 17.4826 6.07515 19.7789C6.48863 22.074 7.32591 24.2343 8.56429 26.2003C8.79362 26.5649 9.16811 26.8186 9.59168 26.8968C10.0192 26.9754 10.4645 26.8704 10.8161 26.6064L10.8363 26.5915C11.5348 26.0726 12.5074 26.1421 13.1488 26.7571L18.0697 31.4746C18.6701 32.0505 18.6816 33.0217 18.2881 33.7122C17.5976 34.915 16.1665 35.7214 14.8339 35.9475C13.477 36.1773 12.1065 35.8718 10.9755 35.0861C10.1964 34.5451 9.35249 35.7576 10.1327 36.2995C11.2683 37.0882 12.5918 37.5 13.948 37.5C14.3241 37.5 14.7032 37.4682 15.0807 37.4042C16.8499 37.104 18.6591 36.033 19.5693 34.4479L19.5863 34.4183C20.3087 33.1597 20.1621 31.434 19.0923 30.4083Z" fill="white"/>
<path d="M21.7679 6.71631C17.385 6.71631 13.8196 10.2819 13.8196 14.6651C13.8196 15.048 13.8473 15.4338 13.9026 15.8147L12.5849 20.0953C12.4462 20.5455 12.7885 21.0259 13.252 21.0502L17.3368 21.2642C18.649 22.1478 20.1763 22.6136 21.7679 22.6136C26.1508 22.6136 29.7166 19.0477 29.7166 14.6651C29.7166 10.2819 26.1508 6.71631 21.7679 6.71631ZM21.7679 21.136C20.4121 21.136 19.1139 20.7212 18.0138 19.9362C17.8993 19.8545 17.7638 19.807 17.6237 19.7999L14.2755 19.6243L15.3648 16.0864C15.4928 15.6709 15.2972 15.0971 15.2972 14.6651C15.2972 11.0967 18.1998 8.1941 21.7679 8.1941C25.336 8.1941 28.2388 11.0967 28.2388 14.6651C28.2388 18.2329 25.336 21.136 21.7679 21.136Z" fill="white"/>
<path d="M19.0856 14.1346C18.6838 14.1346 18.3467 14.4718 18.3467 14.8733C18.3467 15.2751 18.684 15.6125 19.0856 15.6125C19.4754 15.6125 19.8056 15.2944 19.8228 14.9057C19.841 14.4919 19.5004 14.1346 19.0856 14.1346Z" fill="white"/>
<path d="M8.14612 33.1818C7.74434 33.1818 7.40723 33.5191 7.40723 33.9204C7.40723 34.322 7.74457 34.6593 8.14612 34.6593C8.53597 34.6593 8.8662 34.3417 8.8834 33.9528C8.90152 33.5397 8.56028 33.1818 8.14612 33.1818Z" fill="white"/>
<path d="M21.9916 14.1346C21.5891 14.1346 21.2529 14.4708 21.2529 14.8733C21.2529 15.2756 21.5898 15.6125 21.9916 15.6125C22.3819 15.612 22.7112 15.2948 22.7282 14.9057C22.7463 14.4919 22.4071 14.1346 21.9916 14.1346Z" fill="white"/>
<path d="M24.8969 14.1346C24.4953 14.1346 24.1582 14.4718 24.1582 14.8733C24.1584 15.2751 24.4958 15.6125 24.8969 15.6125C25.2872 15.6125 25.617 15.2944 25.6342 14.9057C25.6528 14.4919 25.3122 14.1346 24.8969 14.1346Z" fill="white"/>
</svg>
