<svg width="30" height="30" viewBox="0 0 30 30" fill="none" xmlns="http://www.w3.org/2000/svg">
<path d="M29.4828 3.10345H0.517241C0.231724 3.10345 0 3.33466 0 3.6207V26.3793C0 26.6653 0.231724 26.8966 0.517241 26.8966H29.4828C29.7683 26.8966 30 26.6653 30 26.3793V3.6207C30 3.33466 29.7683 3.10345 29.4828 3.10345ZM28.9655 25.8621H1.03448V4.13794H28.9655V25.8621Z" fill="white"/>
<path d="M8.27584 14.5541C9.86429 14.5541 11.1564 13.2621 11.1564 11.6741C11.1564 10.0852 9.86429 8.79309 8.27584 8.79309C6.68739 8.79309 5.39532 10.0852 5.39532 11.6736C5.39532 13.2621 6.68739 14.5541 8.27584 14.5541ZM8.27584 9.82757C9.29377 9.82757 10.1219 10.6562 10.1219 11.6736C10.1219 12.691 9.29377 13.5196 8.27584 13.5196C7.25791 13.5196 6.42981 12.6915 6.42981 11.6741C6.42981 10.6567 7.25791 9.82757 8.27584 9.82757Z" fill="white"/>
<path d="M3.62073 23.7931C3.74176 23.7931 3.86383 23.7507 3.9621 23.6643L12.3999 16.2357L17.7285 21.5638C17.9307 21.766 18.2576 21.766 18.4599 21.5638C18.6621 21.3615 18.6621 21.0346 18.4599 20.8324L15.9735 18.346L20.7223 13.1457L26.5469 18.4852C26.7575 18.6781 27.0849 18.6636 27.2778 18.4531C27.4707 18.2426 27.4568 17.9152 27.2457 17.7222L21.0388 12.0326C20.9375 11.94 20.8025 11.894 20.6664 11.8971C20.5293 11.9033 20.4 11.9638 20.3075 12.0652L15.2416 17.6136L12.7883 15.1603C12.5949 14.9674 12.2856 14.9576 12.0807 15.1376L3.27883 22.8874C3.06417 23.0762 3.04348 23.4031 3.23228 23.6178C3.33469 23.7341 3.47745 23.7931 3.62073 23.7931Z" fill="white"/>
</svg>
