<svg width="31" height="30" viewBox="0 0 31 30" fill="none" xmlns="http://www.w3.org/2000/svg">
<path d="M28.9175 0H1.99465C1.1368 0 0.441406 0.694723 0.441406 1.55173C0.441406 2.40874 1.1368 3.10346 1.99465 3.10346V24.3104C1.99465 24.5961 2.22647 24.8277 2.51239 24.8277H8.68341L5.21451 29.1596L6.02323 29.8062L10.0099 24.8277H14.9383V25.9573C14.1295 26.243 13.7057 27.1296 13.9917 27.9375C14.2776 28.7455 15.1651 29.169 15.9738 28.8833C16.7825 28.5975 17.2064 27.711 16.9204 26.9031C16.7641 26.4611 16.4161 26.1136 15.9738 25.9573V24.8277H20.9022L24.8889 29.8062L25.6976 29.1596L22.2287 24.8277H28.3997C28.6856 24.8277 28.9175 24.5961 28.9175 24.3104V3.10346C29.7753 3.10346 30.4707 2.40874 30.4707 1.55173C30.4707 0.694723 29.7753 0 28.9175 0ZM15.4561 27.9311C15.1701 27.9311 14.9383 27.6996 14.9383 27.4139C14.9383 27.1283 15.1701 26.8967 15.4561 26.8967C15.742 26.8967 15.9738 27.1283 15.9738 27.4139C15.9738 27.6996 15.742 27.9311 15.4561 27.9311ZM27.882 23.7932H3.03014V3.10346H27.882V23.7932ZM28.9175 2.06897H1.99465C1.70872 2.06897 1.4769 1.83738 1.4769 1.55173C1.4769 1.26608 1.70872 1.03449 1.99465 1.03449H28.9175C29.2034 1.03449 29.4352 1.26608 29.4352 1.55173C29.4352 1.83738 29.2034 2.06897 28.9175 2.06897Z" fill="white"/>
<path d="M13.3851 16.5518H5.1012V17.5862H13.3851V16.5518Z" fill="white"/>
<path d="M13.3851 18.6208H5.1012V19.6553H13.3851V18.6208Z" fill="white"/>
<path d="M11.3142 20.6897H5.1012V21.7241H11.3142V20.6897Z" fill="white"/>
<path d="M13.3849 14.4829H9.24292V15.5173H13.3849V14.4829Z" fill="white"/>
<path d="M25.8113 7.24146H17.5273V8.27588H25.8113V7.24146Z" fill="white"/>
<path d="M25.8113 9.3103H17.5273V10.3447H25.8113V9.3103Z" fill="white"/>
<path d="M23.7403 11.3794H17.5273V12.4138H23.7403V11.3794Z" fill="white"/>
<path d="M25.8112 5.17236H21.6692V6.20679H25.8112V5.17236Z" fill="white"/>
<path d="M9.24316 4.65527C6.95563 4.65527 5.1012 6.50791 5.1012 8.79321C5.10379 11.0775 6.95667 12.9286 9.24316 12.9312C11.5307 12.9312 13.3851 11.0785 13.3851 8.79321C13.3851 6.50791 11.5307 4.65527 9.24316 4.65527ZM9.77644 5.73941C10.5672 5.87765 11.2734 6.31672 11.747 6.96424L9.76091 7.95528L9.77644 5.73941ZM7.45286 6.26222C7.83768 5.99112 8.27925 5.81131 8.74406 5.73625L8.72542 8.58632L6.70621 10.5761C5.71997 9.17888 6.05424 7.2475 7.45286 6.26222ZM10.1488 11.7616C9.85527 11.8511 9.55012 11.8966 9.24316 11.8967C8.59216 11.8967 7.95786 11.6911 7.43105 11.3091L9.55795 9.21425L12.2135 7.88752C12.7141 9.52692 11.7898 11.2614 10.1488 11.7616Z" fill="white"/>
<path d="M17.5257 19.1379H16.4912V21.7241H17.5257V19.1379Z" fill="white"/>
<path d="M25.8111 18.1035H24.7756V21.7241H25.8111V18.1035Z" fill="white"/>
<path d="M19.5981 17.5862H18.5626V21.7241H19.5981V17.5862Z" fill="white"/>
<path d="M21.6695 15.5173H20.634V21.7241H21.6695V15.5173Z" fill="white"/>
<path d="M23.7398 17.0691H22.7043V21.7244H23.7398V17.0691Z" fill="white"/>
<path d="M8.2081 14.4829H7.17261V15.5173H8.2081V14.4829Z" fill="white"/>
<path d="M20.6333 5.17236H19.5978V6.20679H20.6333V5.17236Z" fill="white"/>
</svg>
