<svg width="24" height="24" viewBox="0 0 24 24" fill="none" xmlns="http://www.w3.org/2000/svg">
<path d="M9.89227 19.7661C4.44273 19.7661 0.00921631 15.3326 0.00921631 9.88306C0.00921631 4.43351 4.44273 0 9.89227 0C15.3418 0 19.7753 4.43351 19.7753 9.88306C19.7753 15.3326 15.3418 19.7661 9.89227 19.7661ZM9.89227 1.87357C5.47581 1.87357 1.88278 5.4666 1.88278 9.88306C1.88278 14.2995 5.47581 17.8925 9.89227 17.8925C14.3087 17.8925 17.9018 14.2995 17.9018 9.88306C17.9018 5.4666 14.3087 1.87357 9.89227 1.87357ZM23.7165 23.7256C24.0823 23.3598 24.0823 22.7666 23.7165 22.4008L19.5244 18.2087C19.1586 17.8428 18.5654 17.8428 18.1996 18.2087C17.8338 18.5745 17.8338 19.1677 18.1996 19.5335L22.3917 23.7256C22.5746 23.9085 22.8143 24 23.0541 24C23.2939 24 23.5336 23.9085 23.7165 23.7256Z" fill="#7E7E7E"/>
</svg>
