<svg width="41" height="60" viewBox="0 0 41 60" fill="none" xmlns="http://www.w3.org/2000/svg">
<path d="M19.7876 29.864V27.2258H21.5465C23.0012 27.2258 24.1849 26.0421 24.1849 24.5874V22.8284C24.1849 21.3736 23.0012 20.19 21.5465 20.19H18.0287V29.864H19.7876ZM19.7876 21.9489H21.5465C22.0315 21.9489 22.4259 22.3434 22.4259 22.8284V24.5874C22.4259 25.0724 22.0315 25.4669 21.5465 25.4669H19.7876V21.9489Z" fill="#F24538"/>
<path d="M18.4685 36.0202H21.9864V37.7791H18.4685V36.0202Z" fill="#F24538"/>
<path d="M28.1426 58.2411H29.9015V60H28.1426V58.2411Z" fill="#F24538"/>
<path d="M36.8485 58.2411C36.4399 56.2365 34.6632 54.7234 32.5397 54.7234H30.4618C30.0988 53.6997 29.1207 52.9645 27.9741 52.9645H22.8658V44.0163C24.6817 43.6211 26.0729 42.0125 26.3754 39.8349L27.2373 33.6294L31.6605 23.8981V17.4004C32.684 17.0373 33.4194 16.0597 33.4194 14.9133V2.63837C33.4194 1.18363 32.2358 0 30.781 0H9.67404C8.21918 0 7.03566 1.18363 7.03566 2.63837V8.79434H8.79458V5.27675H9.67404C10.159 5.27675 10.5535 5.67121 10.5535 6.1562C10.5535 7.66817 11.7124 8.85239 13.1919 8.85239C14.6466 8.85239 15.8302 7.66875 15.8302 6.21401C15.8302 5.67086 16.2001 5.27675 16.7097 5.27675H31.6606V14.9133C31.6606 15.3982 31.2661 15.7927 30.7811 15.7927H28.0927C27.6537 11.8408 24.2946 8.75705 20.2275 8.75705C16.1604 8.75705 12.8015 11.8408 12.3625 15.7927H9.67404C9.18904 15.7927 8.79458 15.3982 8.79458 14.9133V10.5536H7.03566V14.9133C7.03566 16.0597 7.77101 17.0373 8.79458 17.4004V23.8983L13.2178 33.6294L14.0796 39.8349C14.3821 42.0124 15.7733 43.621 17.5892 44.0161V53.0529C16.5183 53.2711 15.5879 53.8798 14.9532 54.7231H7.91512C5.79152 54.7231 4.0149 56.2363 3.60636 58.241H0V59.9999H26.3836V58.241H15.8301V57.3616C15.8301 55.9069 17.0136 54.7233 18.4685 54.7233H27.9741C28.4591 54.7233 28.8536 55.1177 28.8536 55.6027V56.4822H32.5397C33.6862 56.4822 34.6637 57.2174 35.0267 58.241H31.6604V59.9999H40.4548V58.241H36.8485V58.2411ZM16.7095 3.51783C15.23 3.51783 14.0711 4.70217 14.0711 6.21401C14.0711 6.699 13.6766 7.09347 13.1916 7.09347C12.682 7.09347 12.3122 6.69936 12.3122 6.1562C12.3122 4.70146 11.1285 3.51783 9.6738 3.51783H8.79434V2.63837C8.79434 2.15338 9.18881 1.75892 9.6738 1.75892H30.7808C31.2658 1.75892 31.6602 2.15338 31.6602 2.63837V3.51783H16.7095ZM5.42801 58.2411C5.79105 57.2175 6.76854 56.4822 7.91512 56.4822H14.1597C14.1018 56.7664 14.0712 57.0606 14.0712 57.3617V58.2411H5.42801ZM21.1069 44.1111V52.9645H19.348V44.1111H21.1069ZM20.2274 10.516C23.3233 10.516 25.8917 12.8135 26.3198 15.7927H21.1068V12.2749H19.3478V15.7927H14.1349C14.5631 12.8135 17.1315 10.516 20.2274 10.516ZM10.5534 23.5172V17.5516H29.9014V23.5173L25.8174 32.5024H14.6375L10.5534 23.5172ZM15.8218 39.5929L15.0813 34.2612H25.3738L24.6333 39.5929C24.4425 40.9663 23.5502 42.3521 21.9866 42.3521H18.4686C16.9048 42.3522 16.0125 40.9663 15.8218 39.5929Z" fill="#F24538"/>
<path d="M28.1426 7.03555H29.9015V8.79447H28.1426V7.03555Z" fill="#F24538"/>
<path d="M26.3837 19.3105H28.1426V21.0695H26.3837V19.3105Z" fill="#F24538"/>
</svg>
