<svg xmlns="http://www.w3.org/2000/svg"><symbol id="phone" viewBox="0 0 30 38">
<path d="M19.0923 30.4083L14.1714 25.6907C13.0078 24.575 11.2344 24.4549 9.95517 25.4057C9.95471 25.4059 9.94875 25.41 9.94852 25.4105L9.92673 25.4268C9.90059 25.4465 9.87605 25.4467 9.85954 25.444C9.83064 25.4385 9.81872 25.4201 9.81459 25.413C8.67781 23.6082 7.9091 21.6245 7.5291 19.5167C7.14956 17.4085 7.178 15.2801 7.61464 13.1909C7.61601 13.1838 7.62014 13.165 7.64262 13.1515C7.66096 13.1407 7.68114 13.1384 7.70339 13.1451L7.73733 13.1549C9.27177 13.604 10.8975 12.8706 11.6018 11.4118L14.8224 4.74291C15.2763 3.80312 15.0818 2.68101 14.3392 1.94831C14.076 1.68183 13.7762 1.43117 13.4481 1.20276C10.5088 -0.83873 6.49712 -0.222752 4.31505 2.60533C4.17952 2.78237 4.05362 2.96767 3.9323 3.1548L3.93093 3.15687C3.49429 3.80335 3.27757 4.20697 2.95032 4.81675L2.8806 4.94632C2.80194 5.09149 0.946213 8.52707 0.488931 10.9458C-0.219924 14.6976 -0.157088 18.5774 0.671477 22.1653C1.54683 25.9552 3.21107 29.3272 5.61741 32.1874C6.22812 32.9132 7.3594 31.9631 6.748 31.2361C4.49324 28.5567 2.93312 25.3926 2.1112 21.8327C1.3285 18.4423 1.26934 14.7728 1.94081 11.2201C2.35475 9.0293 4.16049 5.68476 4.18021 5.64876L4.25176 5.51552C4.53727 4.98393 4.83747 4.47207 5.16678 3.96663L5.17183 3.9586C5.2709 3.80197 5.37662 3.65016 5.48876 3.5027C7.19015 1.30274 10.3145 0.825511 12.6048 2.41614C12.8598 2.59318 13.0906 2.78627 13.291 2.98946C13.2937 2.99244 13.2967 2.99542 13.2997 2.9984C13.5937 3.28667 13.671 3.72973 13.4919 4.10033L10.2714 10.7692C9.88201 11.5751 8.99061 11.9821 8.1531 11.7374L8.12512 11.729C7.70912 11.6049 7.25757 11.6606 6.88629 11.8821C6.51776 12.1018 6.25609 12.4685 6.16849 12.8887C5.69263 15.1645 5.66144 17.4826 6.07515 19.7789C6.48863 22.074 7.32591 24.2343 8.56429 26.2003C8.79362 26.5649 9.16811 26.8186 9.59168 26.8968C10.0192 26.9754 10.4645 26.8704 10.8161 26.6064L10.8363 26.5915C11.5348 26.0726 12.5074 26.1421 13.1488 26.7571L18.0697 31.4746C18.6701 32.0505 18.6816 33.0217 18.2881 33.7122C17.5976 34.915 16.1665 35.7214 14.8339 35.9475C13.477 36.1773 12.1065 35.8718 10.9755 35.0861C10.1964 34.5451 9.35249 35.7576 10.1327 36.2995C11.2683 37.0882 12.5918 37.5 13.948 37.5C14.3241 37.5 14.7032 37.4682 15.0807 37.4042C16.8499 37.104 18.6591 36.033 19.5693 34.4479L19.5863 34.4183C20.3087 33.1597 20.1621 31.434 19.0923 30.4083Z" fill="white"/>
<path d="M21.7679 6.71631C17.385 6.71631 13.8196 10.2819 13.8196 14.6651C13.8196 15.048 13.8473 15.4338 13.9026 15.8147L12.5849 20.0953C12.4462 20.5455 12.7885 21.0259 13.252 21.0502L17.3368 21.2642C18.649 22.1478 20.1763 22.6136 21.7679 22.6136C26.1508 22.6136 29.7166 19.0477 29.7166 14.6651C29.7166 10.2819 26.1508 6.71631 21.7679 6.71631ZM21.7679 21.136C20.4121 21.136 19.1139 20.7212 18.0138 19.9362C17.8993 19.8545 17.7638 19.807 17.6237 19.7999L14.2755 19.6243L15.3648 16.0864C15.4928 15.6709 15.2972 15.0971 15.2972 14.6651C15.2972 11.0967 18.1998 8.1941 21.7679 8.1941C25.336 8.1941 28.2388 11.0967 28.2388 14.6651C28.2388 18.2329 25.336 21.136 21.7679 21.136Z" fill="white"/>
<path d="M19.0856 14.1346C18.6838 14.1346 18.3467 14.4718 18.3467 14.8733C18.3467 15.2751 18.684 15.6125 19.0856 15.6125C19.4754 15.6125 19.8056 15.2944 19.8228 14.9057C19.841 14.4919 19.5004 14.1346 19.0856 14.1346Z" fill="white"/>
<path d="M8.14612 33.1818C7.74434 33.1818 7.40723 33.5191 7.40723 33.9204C7.40723 34.322 7.74457 34.6593 8.14612 34.6593C8.53597 34.6593 8.8662 34.3417 8.8834 33.9528C8.90152 33.5397 8.56028 33.1818 8.14612 33.1818Z" fill="white"/>
<path d="M21.9916 14.1346C21.5891 14.1346 21.2529 14.4708 21.2529 14.8733C21.2529 15.2756 21.5898 15.6125 21.9916 15.6125C22.3819 15.612 22.7112 15.2948 22.7282 14.9057C22.7463 14.4919 22.4071 14.1346 21.9916 14.1346Z" fill="white"/>
<path d="M24.8969 14.1346C24.4953 14.1346 24.1582 14.4718 24.1582 14.8733C24.1584 15.2751 24.4958 15.6125 24.8969 15.6125C25.2872 15.6125 25.617 15.2944 25.6342 14.9057C25.6528 14.4919 25.3122 14.1346 24.8969 14.1346Z" fill="white"/>
</symbol><symbol id="presentation" viewBox="0 0 30 30">
<path d="M28.4483 0.097168H1.55172C0.69472 0.097168 0 0.791888 0 1.64889C0 2.5059 0.69472 3.20062 1.55172 3.20062V24.4075C1.55172 24.6932 1.78332 24.9248 2.06897 24.9248H8.23396L4.76845 29.2566L5.57638 29.9032L9.55914 24.9248H14.4828V26.0544C13.6748 26.3401 13.2513 27.2267 13.537 28.0346C13.8227 28.8426 14.7093 29.266 15.5172 28.9803C16.3252 28.6946 16.7487 27.8081 16.463 27.0001C16.3067 26.5582 15.9591 26.2106 15.5172 26.0544V24.9248H20.4409L24.4236 29.9032L25.2316 29.2566L21.766 24.9248H27.931C28.2167 24.9248 28.4483 24.6932 28.4483 24.4075V3.20062C29.3053 3.20062 30 2.5059 30 1.64889C30 0.791888 29.3053 0.097168 28.4483 0.097168ZM15 28.0282C14.7144 28.0282 14.4828 27.7966 14.4828 27.511C14.4828 27.2253 14.7144 26.9937 15 26.9937C15.2856 26.9937 15.5172 27.2253 15.5172 27.511C15.5172 27.7966 15.2856 28.0282 15 28.0282ZM27.4138 23.8903H2.58621V3.20062H27.4138V23.8903ZM28.4483 2.16613H1.55172C1.26608 2.16613 1.03448 1.93454 1.03448 1.64889C1.03448 1.36325 1.26608 1.13165 1.55172 1.13165H28.4483C28.7339 1.13165 28.9655 1.36325 28.9655 1.64889C28.9655 1.93454 28.7339 2.16613 28.4483 2.16613Z" fill="white"/>
<path d="M12.9311 16.6489H4.65527V17.6834H12.9311V16.6489Z" fill="white"/>
<path d="M12.9311 18.7178H4.65527V19.7523H12.9311V18.7178Z" fill="white"/>
<path d="M10.8622 20.7866H4.65527V21.8211H10.8622V20.7866Z" fill="white"/>
<path d="M12.9309 14.5796H8.79297V15.6141H12.9309V14.5796Z" fill="white"/>
<path d="M25.3452 7.33838H17.0693V8.37286H25.3452V7.33838Z" fill="white"/>
<path d="M25.3452 9.40723H17.0693V10.4417H25.3452V9.40723Z" fill="white"/>
<path d="M23.2762 11.4761H17.0693V12.5106H23.2762V11.4761Z" fill="white"/>
<path d="M25.345 5.26953H21.207V6.30401H25.345V5.26953Z" fill="white"/>
<path d="M8.7932 4.75195C6.5079 4.75195 4.65527 6.60458 4.65527 8.88988C4.65786 11.1742 6.50894 13.0252 8.7932 13.0278C11.0785 13.0278 12.9311 11.1752 12.9311 8.88988C12.9311 6.60458 11.0785 4.75195 8.7932 4.75195ZM9.32596 5.83609C10.1159 5.97432 10.8215 6.4134 11.2946 7.06092L9.31045 8.05195L9.32596 5.83609ZM7.00465 6.35889C7.38909 6.08779 7.83023 5.90799 8.29458 5.83292L8.27596 8.68299L6.25872 10.6728C5.27344 9.27555 5.60739 7.34417 7.00465 6.35889ZM9.69799 11.8583C9.40471 11.9478 9.09986 11.9933 8.7932 11.9933C8.14284 11.9934 7.50915 11.7877 6.98286 11.4057L9.10769 9.31092L11.7606 7.98419C12.2608 9.62359 11.3373 11.358 9.69799 11.8583Z" fill="white"/>
<path d="M17.0687 19.2349H16.0342V21.8211H17.0687V19.2349Z" fill="white"/>
<path d="M25.345 18.2002H24.3105V21.8209H25.345V18.2002Z" fill="white"/>
<path d="M19.138 17.6831H18.1035V21.821H19.138V17.6831Z" fill="white"/>
<path d="M21.2073 15.6143H20.1729V21.8212H21.2073V15.6143Z" fill="white"/>
<path d="M23.2757 17.166H22.2412V21.8212H23.2757V17.166Z" fill="white"/>
<path d="M7.7591 14.5796H6.72461V15.6141H7.7591V14.5796Z" fill="white"/>
<path d="M20.1722 5.26953H19.1377V6.30401H20.1722V5.26953Z" fill="white"/>
</symbol><symbol id="search" viewBox="0 0 24 24">
<path d="M9.89185 19.7661C4.4423 19.7661 0.00878906 15.3326 0.00878906 9.88306C0.00878906 4.43351 4.4423 0 9.89185 0C15.3414 0 19.7749 4.43351 19.7749 9.88306C19.7749 15.3326 15.3414 19.7661 9.89185 19.7661ZM9.89185 1.87357C5.47538 1.87357 1.88235 5.4666 1.88235 9.88306C1.88235 14.2995 5.47538 17.8925 9.89185 17.8925C14.3083 17.8925 17.9013 14.2995 17.9013 9.88306C17.9013 5.4666 14.3083 1.87357 9.89185 1.87357ZM23.7161 23.7256C24.0819 23.3598 24.0819 22.7666 23.7161 22.4008L19.524 18.2087C19.1581 17.8428 18.565 17.8428 18.1991 18.2087C17.8333 18.5745 17.8333 19.1677 18.1991 19.5335L22.3912 23.7256C22.5742 23.9085 22.8139 24 23.0537 24C23.2935 24 23.5331 23.9085 23.7161 23.7256Z"/>
</symbol><symbol id="union" viewBox="0 0 34 17">
<path fill-rule="evenodd" clip-rule="evenodd" d="M0 0H27V3H0V0ZM0 7H20V10H0V7ZM34 14H0V17H34V14Z"/>
</symbol><symbol id="arrow" viewBox="0 0 41 16"><path d="M40.7071 8.70711C41.0976 8.31659 41.0976 7.68342 40.7071 7.2929L34.3431 0.928935C33.9526 0.538411 33.3195 0.538411 32.9289 0.928935C32.5384 1.31946 32.5384 1.95262 32.9289 2.34315L38.5858 8L32.9289 13.6569C32.5384 14.0474 32.5384 14.6805 32.9289 15.0711C33.3195 15.4616 33.9526 15.4616 34.3431 15.0711L40.7071 8.70711ZM-8.74228e-08 9L40 9L40 7L8.74228e-08 7L-8.74228e-08 9Z" fill="white"/></symbol>
</svg>